<?xml version="1.0" standalone="no"?>
<!DOCTYPE svg PUBLIC "-//W3C//DTD SVG 1.1//EN" "http://www.w3.org/Graphics/SVG/1.1/DTD/svg11.dtd" >
<svg>
<metadata>
Created by FontForge 20090914 at Fri Mar  4 18:21:18 2022
 By www-data
Copyright 2011 The Montserrat Project Authors (https://github.com/JulietaUla/Montserrat)
</metadata>
<defs>
<font id="Montserrat-Medium" horiz-adv-x="0" >
  <font-face 
    font-family="Montserrat Medium"
    font-weight="500"
    font-stretch="normal"
    units-per-em="1000"
    panose-1="0 0 0 0 0 0 0 0 0 0"
    ascent="800"
    descent="-200"
    x-height="530"
    cap-height="700"
    bbox="-190 -263.002 1613 1053"
    underline-thickness="50"
    underline-position="-75"
    unicode-range="U+000D-U+FB02"
  />
<missing-glyph horiz-adv-x="587" 
d="M40 0v700h507v-700h-507zM120 70h347v560h-347v-560z" />
    <glyph glyph-name="fi" unicode="fi" horiz-adv-x="632" 
d="M105 0v577.001c0 52 15.167 93.5 45.5 124.5s73.5 46.5 129.5 46.5c20.667 0 40.5 -2.5 59.5 -7.5s35.167 -12.833 48.5 -23.5l-29 -73c-10 8 -21.333 14.167 -34 18.5s-26 6.5 -40 6.5c-28 0 -49.333 -7.83301 -64 -23.5s-22 -38.834 -22 -69.501v-71l2 -44v-461h-96z
M15 451.001v79h338v-79h-338zM444 0.000976562v530h96v-530h-96zM492 632.001c-18.667 0 -34.167 6 -46.5 18s-18.5 26.667 -18.5 44c0 18 6.16699 33 18.5 45s27.833 18 46.5 18s34.167 -5.83301 46.5 -17.5s18.5 -26.167 18.5 -43.5c0 -18 -6 -33.167 -18 -45.5
s-27.667 -18.5 -47 -18.5z" />
    <glyph glyph-name="fl" unicode="fl" horiz-adv-x="632" 
d="M105 0v577.001c0 52 15.167 93.5 45.5 124.5s73.5 46.5 129.5 46.5c20.667 0 40.5 -2.5 59.5 -7.5s35.167 -12.833 48.5 -23.5l-29 -73c-10 8 -21.333 14.167 -34 18.5s-26 6.5 -40 6.5c-28 0 -49.333 -7.83301 -64 -23.5s-22 -38.834 -22 -69.501v-71l2 -44v-461h-96z
M15 451.001v79h338v-79h-338zM444 0.000976562v742h96v-742h-96z" />
    <glyph glyph-name=".notdef" horiz-adv-x="587" 
d="M40 0v700h507v-700h-507zM120 70h347v560h-347v-560z" />
    <glyph glyph-name="NULL" 
 />
    <glyph glyph-name="NULL" 
 />
    <glyph glyph-name="CR" unicode="&#xd;" horiz-adv-x="269" 
 />
    <glyph glyph-name="space" unicode=" " horiz-adv-x="269" 
 />
    <glyph glyph-name="exclam" unicode="!" horiz-adv-x="268" 
d="M96 221l-18 479h113l-19 -479h-76zM135 -6c-18.667 0 -34.334 6.33301 -47.001 19s-19 27.667 -19 45c0 18.667 6.33301 34 19 46s28.334 18 47.001 18s34 -6 46 -18s18 -27.333 18 -46c0 -17.333 -6 -32.333 -18 -45s-27.333 -19 -46 -19z" />
    <glyph glyph-name="quotedbl" unicode="&#x22;" horiz-adv-x="391" 
d="M69 430l-6 270h84l-7 -270h-71zM250 430l-6 270h84l-7 -270h-71z" />
    <glyph glyph-name="numbersign" unicode="#" horiz-adv-x="703" 
d="M403 0l86 700h71l-86 -700h-71zM27 180v73h617v-73h-617zM143 0l87 700h71l-87 -700h-71zM59 447v73h617v-73h-617z" />
    <glyph glyph-name="dollar" unicode="$" horiz-adv-x="621" 
d="M284 -120v940h64v-940h-64zM309 -8c-53.333 0 -104.337 8.16895 -153.004 24.502s-87 37.5 -115 63.5l37 78c26.667 -23.333 60.667 -42.666 102 -57.999s84.333 -23 129 -23c40.667 0 73.667 4.66699 99 14s44 22.166 56 38.499s18 34.833 18 55.5
c0 24 -7.83301 43.333 -23.5 58s-36 26.5 -61 35.5s-52.5 16.833 -82.5 23.5s-60.167 14.5 -90.5 23.5s-58 20.5 -83 34.5s-45.167 32.833 -60.5 56.5s-23 54.167 -23 91.5c0 36 9.5 69.167 28.5 99.5s48.333 54.666 88 72.999s90.167 27.5 151.5 27.5
c40.667 0 81 -5.33301 121 -16s74.667 -26 104 -46l-33 -80c-30 20 -61.667 34.5 -95 43.5s-65.666 13.5 -96.999 13.5c-39.333 0 -71.666 -5 -96.999 -15s-43.833 -23.333 -55.5 -40s-17.5 -35.334 -17.5 -56.001c0 -24.667 7.83301 -44.334 23.5 -59.001
s36 -26.334 61 -35.001s52.5 -16.5 82.5 -23.5s60.167 -14.833 90.5 -23.5s58 -20 83 -34s45.167 -32.667 60.5 -56s23 -53.333 23 -90c0 -35.333 -9.66699 -68.166 -29 -98.499s-49.166 -54.666 -89.499 -72.999s-91.166 -27.5 -152.499 -27.5z" />
    <glyph glyph-name="percent" unicode="%" horiz-adv-x="843" 
d="M144 0l478 700h77l-478 -700h-77zM200 324c-32 0 -60.333 8 -85 24s-43.834 38.333 -57.501 67s-20.5 62 -20.5 100s6.83301 71.333 20.5 100s32.834 51 57.501 67s53 24 85 24c32.667 0 61.167 -8 85.5 -24s43.166 -38.333 56.499 -67s20 -62 20 -100
s-6.66699 -71.333 -20 -100s-32.166 -51 -56.499 -67s-52.833 -24 -85.5 -24zM200 381c30.667 0 54.667 11.833 72 35.5s26 56.5 26 98.5s-8.66699 74.833 -26 98.5s-41.333 35.5 -72 35.5c-30 0 -53.833 -11.833 -71.5 -35.5s-26.5 -56.5 -26.5 -98.5
c0 -41.333 8.83301 -74 26.5 -98s41.5 -36 71.5 -36zM643 -6c-32 0 -60.333 8 -85 24s-43.667 38.333 -57 67s-20 62 -20 100s6.66699 71.333 20 100s32.333 51 57 67s53 24 85 24c32.667 0 61.167 -8 85.5 -24s43.333 -38.333 57 -67s20.5 -62 20.5 -100
s-6.83301 -71.333 -20.5 -100s-32.667 -51 -57 -67s-52.833 -24 -85.5 -24zM643 51c30 0 53.833 11.833 71.5 35.5s26.5 56.5 26.5 98.5c0 41.333 -8.83301 74 -26.5 98s-41.5 36 -71.5 36s-53.833 -11.833 -71.5 -35.5s-26.5 -56.5 -26.5 -98.5s8.83301 -74.833 26.5 -98.5
s41.5 -35.5 71.5 -35.5z" />
    <glyph glyph-name="ampersand" unicode="&#x26;" horiz-adv-x="686" 
d="M290 -8c-47.333 0 -89.334 7.67578 -126.001 23.0088s-65.667 36.666 -87 63.999s-32 59 -32 95c0 31.333 7 60 21 86s36.333 51.167 67 75.5s71 49.5 121 75.5c40.667 21.333 72.5 40 95.5 56s39.333 31.167 49 45.5s14.5 29.833 14.5 46.5c0 22.667 -8 41.167 -24 55.5
s-39 21.5 -69 21.5c-31.333 0 -55.833 -7.83301 -73.5 -23.5s-26.5 -36.167 -26.5 -61.5c0 -12.667 2.16699 -24.834 6.5 -36.501s12.333 -24.667 24 -39s28.5 -32.5 50.5 -54.5l370 -368l-54 -64l-393 391c-23.333 23.333 -41.666 44.166 -54.999 62.499
s-23 36.166 -29 53.499s-9 35 -9 53c0 31.333 7.83301 58.833 23.5 82.5s37.667 42 66 55s61.5 19.5 99.5 19.5c35.333 0 66 -5.83301 92 -17.5s46.167 -28.334 60.5 -50.001s21.5 -47.834 21.5 -78.501c0 -26.667 -6.5 -51.334 -19.5 -74.001s-33.833 -44.667 -62.5 -66
s-67.334 -44.333 -116.001 -69c-40 -20.667 -71.333 -39.834 -94 -57.501s-38.834 -35.167 -48.501 -52.5s-14.5 -36.333 -14.5 -57c0 -22 6.5 -41.5 19.5 -58.5s31.333 -30.167 55 -39.5s51.167 -14 82.5 -14c44.667 0 85 9.66699 121 29s66.167 48.333 90.5 87
s42.166 86.667 53.499 144l77 -25c-13.333 -67.333 -36.166 -124.333 -68.499 -171s-72.166 -82.334 -119.499 -107.001s-100.666 -37 -159.999 -37z" />
    <glyph glyph-name="quotesingle" unicode="'" horiz-adv-x="210" 
d="M69 430l-6 270h84l-7 -270h-71z" />
    <glyph glyph-name="parenleft" unicode="(" horiz-adv-x="337" 
d="M214 -194c-38 60.667 -67.333 130.834 -88 210.501s-31 165.5 -31 257.5s10.333 178.167 31 258.5s50 150.166 88 209.499h91c-40 -70.667 -69.333 -144.5 -88 -221.5s-28 -159.167 -28 -246.5s9.33301 -169.5 28 -246.5s48 -150.833 88 -221.5h-91z" />
    <glyph glyph-name="parenright" unicode=")" horiz-adv-x="338" 
d="M123 -194h-91c40.667 70.667 70.334 144.5 89.001 221.5s28 159.167 28 246.5s-9.33301 169.5 -28 246.5s-48.334 150.833 -89.001 221.5h91c39.333 -59.333 69.166 -129.166 89.499 -209.499s30.5 -166.5 30.5 -258.5s-10.167 -177.833 -30.5 -257.5
s-50.166 -149.834 -89.499 -210.501z" />
    <glyph glyph-name="asterisk" unicode="*" horiz-adv-x="400" 
d="M381 622l-136 -76v19l136 -76l-31 -55l-132 77l11 7l1 -149h-60l1 149l11 -7l-132 -77l-31 55l137 76v-19l-137 76l31 56l132 -78l-11 -7l-1 149h60l-1 -149l-11 7l132 78z" />
    <glyph glyph-name="plus" unicode="+" horiz-adv-x="582" 
d="M249 131v438h84v-438h-84zM67 310v79h448v-79h-448z" />
    <glyph glyph-name="comma" unicode="," horiz-adv-x="227" 
d="M53 -148l50 201.999l13 -58c-19.333 0 -35.5 6 -48.5 18s-19.5 28.333 -19.5 49c0 20 6.5 36.333 19.5 49s28.833 19 47.5 19c19.333 0 35 -6.5 47 -19.5s18 -29.167 18 -48.5c0 -6.66699 -0.5 -13.167 -1.5 -19.5s-2.66699 -13.666 -5 -21.999
s-5.83301 -18.5 -10.5 -30.5l-47 -139h-63z" />
    <glyph glyph-name="hyphen" unicode="-" horiz-adv-x="383" 
d="M57 233v83h269v-83h-269z" />
    <glyph glyph-name="period" unicode="." horiz-adv-x="227" 
d="M114 -6c-18.667 0 -34.667 6.5 -48 19.5s-20 29.5 -20 49.5s6.66699 36.333 20 49s29.333 19 48 19c18 0 33.5 -6.33301 46.5 -19s19.5 -29 19.5 -49s-6.5 -36.5 -19.5 -49.5s-28.5 -19.5 -46.5 -19.5z" />
    <glyph glyph-name="slash" unicode="/" horiz-adv-x="352" 
d="M-28 -100l330 942h87l-330 -942h-87z" />
    <glyph glyph-name="zero" unicode="0" horiz-adv-x="667" 
d="M334 -8c-54.667 0 -103.5 14 -146.5 42s-77 68.667 -102 122s-37.5 118 -37.5 194s12.5 140.667 37.5 194s59 94 102 122s91.833 42 146.5 42c54 0 102.667 -14 146 -42s77.333 -68.667 102 -122s37 -118 37 -194s-12.333 -140.667 -37 -194s-58.667 -94 -102 -122
s-92 -42 -146 -42zM334 81c36.667 0 68.834 10 96.501 30s49.334 50 65.001 90s23.5 89.667 23.5 149s-7.83301 109 -23.5 149s-37.334 70 -65.001 90s-59.834 30 -96.501 30s-69 -10 -97 -30s-49.833 -50 -65.5 -90s-23.5 -89.667 -23.5 -149s7.83301 -109 23.5 -149
s37.5 -70 65.5 -90s60.333 -30 97 -30z" />
    <glyph glyph-name="one" unicode="1" horiz-adv-x="370" 
d="M166 0v660l43 -47h-201v87h257v-700h-99z" />
    <glyph glyph-name="two" unicode="2" horiz-adv-x="574" 
d="M37 0l0.00195312 68l285 275c25.333 24 44.166 45.167 56.499 63.5s20.666 35.333 24.999 51s6.5 30.834 6.5 45.501c0 36 -12.667 64.333 -38 85s-62.333 31 -111 31c-37.333 0 -71 -6.16699 -101 -18.5s-56 -31.5 -78 -57.5l-68 59c26.667 34 62.5 60.167 107.5 78.5
s94.5 27.5 148.5 27.5c48.667 0 91 -7.83301 127 -23.5s63.833 -38.167 83.5 -67.5s29.5 -64 29.5 -104c0 -22.667 -3 -45 -9 -67s-17.333 -45.333 -34 -70s-40.667 -52.334 -72 -83.001l-254 -245l-24 39h423v-87h-503z" />
    <glyph glyph-name="three" unicode="3" horiz-adv-x="572" 
d="M262 -8c-49.333 0 -97.167 7.66699 -143.5 23s-84.166 36 -113.499 62l46 79c23.333 -22 53.666 -40 90.999 -54s77.333 -21 120 -21c52 0 92.5 11.167 121.5 33.5s43.5 52.5 43.5 90.5c0 36.667 -13.833 66.167 -41.5 88.5s-71.5 33.5 -131.5 33.5h-56v70l208 256
l14 -40h-383v87h462v-68l-207 -255l-52 31h33c84.667 0 148.167 -19 190.5 -57s63.5 -86.333 63.5 -145c0 -39.333 -9.66699 -75.333 -29 -108s-48.5 -58.5 -87.5 -77.5s-88.5 -28.5 -148.5 -28.5z" />
    <glyph glyph-name="four" unicode="4" horiz-adv-x="669" 
d="M38 172v70l358 458h108l-355 -458l-51 16h559v-86h-619zM427 0v172l3 86v152h94v-410h-97z" />
    <glyph glyph-name="five" unicode="5" horiz-adv-x="574" 
d="M274 -8c-49.333 0 -97.167 7.66797 -143.5 23.001s-84.166 36 -113.499 62l46 79c23.333 -22 53.666 -40 90.999 -54s77 -21 119 -21c53.333 0 94.333 11.333 123 34s43 53 43 91c0 26 -6.33301 48.667 -19 68s-34.5 34.166 -65.5 44.499s-73.5 15.5 -127.5 15.5h-159
l37 366h395v-87h-358l52 49l-29 -289l-52 48h135c70 0 126.333 -9 169 -27s73.667 -42.833 93 -74.5s29 -68.167 29 -109.5c0 -40 -9.66699 -76.5 -29 -109.5s-48.5 -59.333 -87.5 -79s-88.5 -29.5 -148.5 -29.5z" />
    <glyph glyph-name="six" unicode="6" horiz-adv-x="617" 
d="M342 -8c-62 0 -114.997 13.6641 -158.997 40.9971s-77.5 66.833 -100.5 118.5s-34.5 114.834 -34.5 189.501c0 79.333 14 146.333 42 201s67 96 117 124s107.333 42 172 42c33.333 0 65.166 -3.33301 95.499 -10s56.5 -17 78.5 -31l-38 -78
c-18 12.667 -38.5 21.334 -61.5 26.001s-47.167 7 -72.5 7c-71.333 0 -128 -22.167 -170 -66.5s-63 -110.166 -63 -197.499c0 -14 0.666992 -30.667 2 -50s4.66602 -38.333 9.99902 -57l-34 34c10 30.667 25.833 56.5 47.5 77.5s47.667 36.667 78 47
s63.166 15.5 98.499 15.5c46.667 0 88 -8.66699 124 -26s64.333 -41.833 85 -73.5s31 -69.167 31 -112.5c0 -44.667 -11 -83.667 -33 -117s-51.667 -59 -89 -77s-79.333 -27 -126 -27zM338.003 72.9971c30.667 0 57.499 5.66992 80.499 17.0029s41.167 27.166 54.5 47.499
s20 44.166 20 71.499c0 41.333 -14.333 74.166 -43 98.499s-67.667 36.5 -117 36.5c-32 0 -60 -6 -84 -18s-42.833 -28.167 -56.5 -48.5s-20.5 -43.5 -20.5 -69.5c0 -24 6.33301 -46.167 19 -66.5s31.334 -36.833 56.001 -49.5s55 -19 91 -19z" />
    <glyph glyph-name="seven" unicode="7" horiz-adv-x="598" 
d="M169 0l297 658l26 -45h-416l50 49v-174h-96v212h528v-68l-283 -632h-106z" />
    <glyph glyph-name="eight" unicode="8" horiz-adv-x="644" 
d="M321 -8c-56.667 0 -105.668 8.33301 -147.001 25s-73.333 40.5 -96 71.5s-34 67.5 -34 109.5c0 41.333 10.833 76.5 32.5 105.5s53.167 51 94.5 66s91.333 22.5 150 22.5s108.834 -7.5 150.501 -22.5s73.5 -37.167 95.5 -66.5s33 -64.333 33 -105
c0 -42 -11.333 -78.5 -34 -109.5s-55 -54.833 -97 -71.5s-91.333 -25 -148 -25zM320.999 73c56 0 99.833 11.5 131.5 34.5s47.5 54.167 47.5 93.5c0 38.667 -15.833 69.167 -47.5 91.5s-75.5 33.5 -131.5 33.5c-55.333 0 -98.666 -11.167 -129.999 -33.5
s-47 -52.833 -47 -91.5c0 -39.333 15.667 -70.5 47 -93.5s74.666 -34.5 129.999 -34.5zM320.999 338c-53.333 0 -98.667 7.16699 -136 21.5s-66 35 -86 62s-30 59.167 -30 96.5c0 39.333 10.5 73.166 31.5 101.499s50.5 50.166 88.5 65.499s82 23 132 23
c50.667 0 95 -7.66699 133 -23s67.667 -37.166 89 -65.499s32 -62.166 32 -101.499c0 -37.333 -10 -69.5 -30 -96.5s-49 -47.667 -87 -62s-83.667 -21.5 -137 -21.5zM320.998 402c48.667 0 86.835 10 114.502 30s41.5 47.333 41.5 82c0 35.333 -14.333 63 -43 83
s-66.334 30 -113.001 30s-83.834 -10 -111.501 -30s-41.5 -47.667 -41.5 -83c0 -34.667 13.5 -62 40.5 -82s64.5 -30 112.5 -30z" />
    <glyph glyph-name="nine" unicode="9" horiz-adv-x="617" 
d="M275 708c63.333 0 116.831 -13.665 160.498 -40.998s76.834 -66.833 99.501 -118.5s34 -114.834 34 -189.501c0 -79.333 -14 -146.333 -42 -201s-66.667 -96 -116 -124s-107 -42 -173 -42c-32.667 0 -64.167 3.33301 -94.5 10s-56.833 17 -79.5 31l38 78
c18.667 -12 39.5 -20.5 62.5 -25.5s47.167 -7.5 72.5 -7.5c70.667 0 127 22.167 169 66.5s63 110.166 63 197.499c0 14 -0.666992 30.667 -2 50s-4.33301 38.333 -9 57l33 -34c-9.33301 -30.667 -24.833 -56.5 -46.5 -77.5s-47.667 -36.667 -78 -47s-63.5 -15.5 -99.5 -15.5
c-46 0 -87 8.66699 -123 26s-64.333 41.833 -85 73.5s-31 69.167 -31 112.5c0 45.333 10.833 84.5 32.5 117.5s51.334 58.5 89.001 76.5s79.5 27 125.5 27zM278.998 627.002c-30 0 -56.666 -5.66797 -79.999 -17.001s-41.5 -27 -54.5 -47s-19.5 -44 -19.5 -72
c0 -41.333 14.333 -74.166 43 -98.499s67.334 -36.5 116.001 -36.5c32 0 60.167 6 84.5 18s43.333 28.333 57 49s20.5 43.667 20.5 69c0 24.667 -6.33301 47 -19 67s-31.334 36.333 -56.001 49s-55.334 19 -92.001 19z" />
    <glyph glyph-name="colon" unicode=":" horiz-adv-x="227" 
d="M114 398c-18.667 0 -34.667 6.5 -48 19.5s-20 29.5 -20 49.5s6.66699 36.333 20 49s29.333 19 48 19c18 0 33.5 -6.33301 46.5 -19s19.5 -29 19.5 -49s-6.5 -36.5 -19.5 -49.5s-28.5 -19.5 -46.5 -19.5zM114 -6c-18.667 0 -34.667 6.5 -48 19.5s-20 29.5 -20 49.5
s6.66699 36.333 20 49s29.333 19 48 19c18 0 33.5 -6.33301 46.5 -19s19.5 -29 19.5 -49s-6.5 -36.5 -19.5 -49.5s-28.5 -19.5 -46.5 -19.5z" />
    <glyph glyph-name="semicolon" unicode=";" horiz-adv-x="227" 
d="M114 398c-18.667 0 -34.667 6.5 -48 19.5s-20 29.5 -20 49.5s6.66699 36.333 20 49s29.333 19 48 19c18 0 33.5 -6.33301 46.5 -19s19.5 -29 19.5 -49s-6.5 -36.5 -19.5 -49.5s-28.5 -19.5 -46.5 -19.5zM53 -148l50 201.999l13 -58c-19.333 0 -35.5 6 -48.5 18
s-19.5 28.333 -19.5 49c0 20 6.5 36.333 19.5 49s28.833 19 47.5 19c19.333 0 35 -6.5 47 -19.5s18 -29.167 18 -48.5c0 -6.66699 -0.5 -13.167 -1.5 -19.5s-2.66699 -13.666 -5 -21.999s-5.83301 -18.5 -10.5 -30.5l-47 -139h-63z" />
    <glyph glyph-name="less" unicode="&#x3c;" horiz-adv-x="582" 
d="M515 130l-448 177v86l448 177v-83l-415 -160v46l415 -160v-83z" />
    <glyph glyph-name="equal" unicode="=" horiz-adv-x="582" 
d="M67 429v79h448v-79h-448zM67 192v79h448v-79h-448z" />
    <glyph glyph-name="greater" unicode="&#x3e;" horiz-adv-x="582" 
d="M67 130v83l416 160v-46l-416 160v83l448 -177v-86z" />
    <glyph glyph-name="question" unicode="?" horiz-adv-x="573" 
d="M228 221c0 26 4.33496 48.6641 13.002 67.9971s19.5 36.666 32.5 51.999s27.167 29.5 42.5 42.5s29.666 26 42.999 39s24.166 26.833 32.499 41.5s12.5 31.667 12.5 51c0 32 -12.667 58 -38 78s-60.333 30 -105 30c-40 0 -74.667 -6.66699 -104 -20s-54.333 -33 -75 -59
l-73 52c28 35.333 63.667 62.833 107 82.5s94 29.5 152 29.5c48 0 89.667 -7.16699 125 -21.5s62.833 -34.666 82.5 -60.999s29.5 -58.166 29.5 -95.499c0 -28 -4.33301 -52 -13 -72s-19.667 -37.667 -33 -53s-27.5 -29.666 -42.5 -42.999s-29.167 -26.666 -42.5 -39.999
s-24.333 -28 -33 -44s-13 -35 -13 -57h-100zM279.002 -6.00293c-18.667 0 -34.167 6.33301 -46.5 19s-18.5 27.667 -18.5 45c0 18.667 6.16699 34 18.5 46s27.833 18 46.5 18s34 -6 46 -18s18 -27.333 18 -46c0 -17.333 -6 -32.333 -18 -45s-27.333 -19 -46 -19z" />
    <glyph glyph-name="at" unicode="@" horiz-adv-x="1034" 
d="M516 -202c-69.333 0 -132.671 11.333 -190.004 34s-106.666 54.334 -147.999 95.001s-73.333 88.834 -96 144.501s-34 116.5 -34 182.5s11.333 126.667 34 182s54.834 103.333 96.501 144s91.5 72 149.5 94s122 33 192 33c68.667 0 131.334 -10.667 188.001 -32
s105.834 -51.5 147.501 -90.5s73.834 -85.333 96.501 -139s34 -112.834 34 -177.501c0 -56.667 -7 -105.334 -21 -146.001s-34.167 -72.167 -60.5 -94.5s-58.5 -33.5 -96.5 -33.5c-37.333 0 -67.166 11.333 -89.499 34s-33.5 55 -33.5 97v68l5 61l-9 115v133h87v-360
c0 -26.667 5.5 -45.334 16.5 -56.001s24.5 -16 40.5 -16c19.333 0 36.166 7.66699 50.499 23s25 37.833 32 67.5s10.5 65.167 10.5 106.5c0 56 -9.5 106.833 -28.5 152.5s-46.333 85.167 -82 118.5s-77.667 58.833 -126 76.5s-102.166 26.5 -161.499 26.5
s-113.5 -9.5 -162.5 -28.5s-91.167 -45.667 -126.5 -80s-62.5 -75.166 -81.5 -122.499s-28.5 -99.333 -28.5 -156c0 -57.333 9.33301 -109.833 28 -157.5s45.5 -88.667 80.5 -123s76.667 -61 125 -80s102.166 -28.5 161.499 -28.5c30.667 0 63 3.5 97 10.5
s66 18.167 96 33.5l22 -64c-30.667 -15.333 -65.334 -27 -104.001 -35s-75.667 -12 -111 -12zM497.995 -6c-47.333 0 -89.333 11.167 -126 33.5s-65.667 52.833 -87 91.5s-32 82.667 -32 132c0 50 10.667 94.167 32 132.5s50.333 68.333 87 90s78.667 32.5 126 32.5
c46 0 86.333 -9.83301 121 -29.5s61.834 -48.5 81.501 -86.5s29.5 -84.333 29.5 -139s-9.66699 -101 -29 -139s-46.333 -67.167 -81 -87.5s-75.334 -30.5 -122.001 -30.5zM511.995 72c32.667 0 61.834 7.16797 87.501 21.501s46 35 61 62s22.5 58.833 22.5 95.5
c0 37.333 -7.5 69.333 -22.5 96s-35.333 47 -61 61s-54.834 21 -87.501 21c-33.333 0 -62.833 -7.16699 -88.5 -21.5s-45.667 -34.833 -60 -61.5s-21.5 -58.334 -21.5 -95.001c0 -36 7.16699 -67.333 21.5 -94s34.333 -47.5 60 -62.5s55.167 -22.5 88.5 -22.5z" />
    <glyph glyph-name="A" unicode="A" horiz-adv-x="732" 
d="M-1 0l317 700h99l318 -700h-105l-283 644h40l-283 -644h-103zM134 175l27 80h394l29 -80h-450z" />
    <glyph glyph-name="B" unicode="B" horiz-adv-x="757" 
d="M105 0v700h314c80.667 0 142.667 -16.167 186 -48.5s65 -76.5 65 -132.5c0 -38 -8.5 -70 -25.5 -96s-39.833 -46 -68.5 -60s-59.667 -21 -93 -21l18 30c40 0 75.333 -7 106 -21s55 -34.5 73 -61.5s27 -60.5 27 -100.5c0 -60 -22.5 -106.5 -67.5 -139.5
s-111.833 -49.5 -200.5 -49.5h-334zM205 81l230 -0.000976562c55.333 0 97.666 9.33301 126.999 28s44 48 44 88c0 40.667 -14.667 70.334 -44 89.001s-71.666 28 -126.999 28h-239v81h214c50.667 0 90 9.33301 118 28s42 46.667 42 84s-14 65.333 -42 84
s-67.333 28 -118 28h-205v-538z" />
    <glyph glyph-name="C" unicode="C" horiz-adv-x="723" 
d="M418 -8c-53.333 0 -102.499 8.83398 -147.499 26.501s-84 42.667 -117 75s-58.833 70.166 -77.5 113.499s-28 91 -28 143s9.33301 99.667 28 143s44.667 81.166 78 113.499s72.5 57.333 117.5 75s94.167 26.5 147.5 26.5c54 0 103.833 -9.16699 149.5 -27.5
s84.5 -45.5 116.5 -81.5l-65 -63c-26.667 28 -56.667 48.833 -90 62.5s-69 20.5 -107 20.5c-39.333 0 -75.833 -6.66699 -109.5 -20s-62.834 -32 -87.501 -56s-43.834 -52.5 -57.501 -85.5s-20.5 -68.833 -20.5 -107.5s6.83301 -74.5 20.5 -107.5s32.834 -61.5 57.501 -85.5
s53.834 -42.667 87.501 -56s70.167 -20 109.5 -20c38 0 73.667 6.83301 107 20.5s63.333 34.834 90 63.501l65 -63c-32 -36 -70.833 -63.333 -116.5 -82s-95.834 -28 -150.501 -28z" />
    <glyph glyph-name="D" unicode="D" horiz-adv-x="826" 
d="M105 0v700h295c74.667 0 140.5 -14.667 197.5 -44s101.333 -70.333 133 -123s47.5 -113.667 47.5 -183s-15.833 -130.333 -47.5 -183s-76 -93.667 -133 -123s-122.833 -44 -197.5 -44h-295zM205 87h189c58 0 108.167 11 150.5 33s75.166 52.833 98.499 92.5
s35 85.5 35 137.5c0 52.667 -11.667 98.667 -35 138s-56.166 70 -98.499 92s-92.5 33 -150.5 33h-189v-526z" />
    <glyph glyph-name="E" unicode="E" horiz-adv-x="670" 
d="M196 398h360v-85h-360v85zM205 87h408v-87h-508v700h494v-87h-394v-526z" />
    <glyph glyph-name="F" unicode="F" horiz-adv-x="635" 
d="M195 369h361v-86h-361v86zM205 0h-100v700h494v-87h-394v-613z" />
    <glyph glyph-name="G" unicode="G" horiz-adv-x="772" 
d="M421 -8c-54 0 -103.667 8.83398 -149 26.501s-84.666 42.667 -117.999 75s-59.333 70.166 -78 113.499s-28 91 -28 143s9.33301 99.667 28 143s44.834 81.166 78.501 113.499s73.167 57.333 118.5 75s95.333 26.5 150 26.5c55.333 0 106 -9 152 -27s85 -45 117 -81
l-62 -62c-28.667 28 -59.834 48.5 -93.501 61.5s-70.167 19.5 -109.5 19.5c-40 0 -77.167 -6.66699 -111.5 -20s-64 -32 -89 -56s-44.333 -52.5 -58 -85.5s-20.5 -68.833 -20.5 -107.5c0 -38 6.83301 -73.5 20.5 -106.5s33 -61.667 58 -86s54.5 -43.166 88.5 -56.499
s71 -20 111 -20c37.333 0 73.166 5.83301 107.499 17.5s66.166 31.167 95.499 58.5l57 -76c-34.667 -29.333 -75.167 -51.5 -121.5 -66.5s-94.166 -22.5 -143.499 -22.5zM590 94.001v260h96v-273z" />
    <glyph glyph-name="H" unicode="H" horiz-adv-x="812" 
d="M607 700h100v-700h-100v700zM205 0h-100v700h100v-700zM616 312h-421v87h421v-87z" />
    <glyph glyph-name="I" unicode="I" horiz-adv-x="310" 
d="M105 0v700h100v-700h-100z" />
    <glyph glyph-name="J" unicode="J" horiz-adv-x="513" 
d="M195 -8c-41.333 0 -79.998 8.66699 -115.998 26s-65.333 42.333 -88 75l58 68c19.333 -26.667 41.166 -47.167 65.499 -61.5s51.166 -21.5 80.499 -21.5c80 0 120 47.333 120 142v393h-253v87h352v-475c0 -78 -18.5 -136.333 -55.5 -175s-91.5 -58 -163.5 -58z" />
    <glyph glyph-name="K" unicode="K" horiz-adv-x="719" 
d="M193 169l-5 122l397 409h114l-307 -324l-56 -62zM105 0v700h100v-700h-100zM601 0l-287 334l67 74l337 -408h-117z" />
    <glyph glyph-name="L" unicode="L" horiz-adv-x="594" 
d="M105 0v700h100v-613h379v-87h-479z" />
    <glyph glyph-name="M" unicode="M" horiz-adv-x="955" 
d="M105 0v700h82l314 -529h-44l310 529h82l1 -700h-96l-1 549h23l-276 -464h-46l-278 464h25v-549h-96z" />
    <glyph glyph-name="N" unicode="N" horiz-adv-x="812" 
d="M105 0v700h82l463 -575h-43v575h100v-700h-82l-463 575h43v-575h-100z" />
    <glyph glyph-name="O" unicode="O" horiz-adv-x="840" 
d="M421 -8c-53.333 0 -102.832 9.00195 -148.499 27.002s-85.167 43.167 -118.5 75.5s-59.333 70.166 -78 113.499s-28 90.666 -28 141.999s9.33301 98.666 28 141.999s44.667 81.166 78 113.499s72.666 57.5 117.999 75.5s95 27 149 27
c53.333 0 102.5 -8.83301 147.5 -26.5s84.333 -42.667 118 -75s59.667 -70.166 78 -113.499s27.5 -91 27.5 -143s-9.16699 -99.667 -27.5 -143s-44.333 -81.166 -78 -113.499s-73 -57.333 -118 -75s-94.167 -26.5 -147.5 -26.5zM421.001 81.002
c38.667 0 74.5 6.66699 107.5 20s61.667 32.166 86 56.499s43.333 52.833 57 85.5s20.5 68.334 20.5 107.001s-6.83301 74.334 -20.5 107.001s-32.667 61.167 -57 85.5s-53 43.166 -86 56.499s-68.833 20 -107.5 20c-39.333 0 -75.5 -6.66699 -108.5 -20
s-61.833 -32.166 -86.5 -56.499s-43.834 -52.833 -57.501 -85.5s-20.5 -68.334 -20.5 -107.001s6.83301 -74.334 20.5 -107.001s32.834 -61.167 57.501 -85.5s53.5 -43.166 86.5 -56.499s69.167 -20 108.5 -20z" />
    <glyph glyph-name="P" unicode="P" horiz-adv-x="722" 
d="M105 0v700.001h273c61.333 0 113.666 -9.66699 156.999 -29s76.666 -47.333 99.999 -84s35 -80.334 35 -131.001s-11.667 -94.167 -35 -130.5s-56.666 -64.333 -99.999 -84s-95.666 -29.5 -156.999 -29.5h-218l45 47v-259h-100zM205 249.001l-45 50h215
c64 0 112.5 13.667 145.5 41s49.5 66 49.5 116s-16.5 88.667 -49.5 116s-81.5 41 -145.5 41h-215l45 50v-414z" />
    <glyph glyph-name="Q" unicode="Q" horiz-adv-x="840" 
d="M421 -8c-53.333 0 -102.832 9.00195 -148.499 27.002s-85.167 43.167 -118.5 75.5s-59.333 70.166 -78 113.499s-28 90.666 -28 141.999s9.33301 98.666 28 141.999s44.667 81.166 78 113.499s72.666 57.5 117.999 75.5s95 27 149 27
c53.333 0 102.5 -8.83301 147.5 -26.5s84.333 -42.667 118 -75s59.667 -70.166 78 -113.499s27.5 -91 27.5 -143s-9.16699 -99.667 -27.5 -143s-44.333 -81.166 -78 -113.499s-73 -57.333 -118 -75s-94.167 -26.5 -147.5 -26.5zM650.001 -145.998
c-23.333 0 -45.667 2.83301 -67 8.5s-42.666 14.667 -63.999 27s-43.333 28.333 -66 48s-47.334 43.834 -74.001 72.501l107 28c20 -24.667 39.167 -44.834 57.5 -60.501s36.5 -27 54.5 -34s35.667 -10.5 53 -10.5c50 0 92.667 20 128 60l47 -57
c-45.333 -54.667 -104 -82 -176 -82zM421 81.002c38.667 0 74.5 6.66699 107.5 20s61.667 32.333 86 57s43.333 53.334 57 86.001s20.5 68 20.5 106c0 38.667 -6.83301 74.334 -20.5 107.001s-32.667 61.167 -57 85.5s-53 43.166 -86 56.499s-68.833 20 -107.5 20
c-39.333 0 -75.5 -6.66699 -108.5 -20s-61.833 -32.166 -86.5 -56.499s-43.834 -52.833 -57.501 -85.5s-20.5 -68.334 -20.5 -107.001c0 -38 6.83301 -73.333 20.5 -106s32.834 -61.334 57.501 -86.001s53.5 -43.667 86.5 -57s69.167 -20 108.5 -20z" />
    <glyph glyph-name="R" unicode="R" horiz-adv-x="727" 
d="M105 0v700h273c61.333 0 113.666 -9.66699 156.999 -29s76.666 -47.333 99.999 -84s35 -80.334 35 -131.001s-11.667 -94.167 -35 -130.5s-56.666 -64.166 -99.999 -83.499s-95.666 -29 -156.999 -29h-218l45 46v-259h-100zM573 0l-178 254h107l180 -254h-109zM205 249
l-45 49h215c64 0 112.5 13.833 145.5 41.5s49.5 66.5 49.5 116.5s-16.5 88.667 -49.5 116s-81.5 41 -145.5 41h-215l45 50v-414z" />
    <glyph glyph-name="S" unicode="S" horiz-adv-x="621" 
d="M309 -8c-53.333 0 -104.337 8.16895 -153.004 24.502s-87 37.5 -115 63.5l37 78c26.667 -23.333 60.667 -42.666 102 -57.999s84.333 -23 129 -23c40.667 0 73.667 4.66699 99 14s44 22.166 56 38.499s18 34.833 18 55.5c0 24 -7.83301 43.333 -23.5 58
s-36 26.5 -61 35.5s-52.5 16.833 -82.5 23.5s-60.167 14.5 -90.5 23.5s-58 20.5 -83 34.5s-45.167 32.833 -60.5 56.5s-23 54.167 -23 91.5c0 36 9.5 69.167 28.5 99.5s48.333 54.666 88 72.999s90.167 27.5 151.5 27.5c40.667 0 81 -5.33301 121 -16s74.667 -26 104 -46
l-33 -80c-30 20 -61.667 34.5 -95 43.5s-65.666 13.5 -96.999 13.5c-39.333 0 -71.666 -5 -96.999 -15s-43.833 -23.333 -55.5 -40s-17.5 -35.334 -17.5 -56.001c0 -24.667 7.83301 -44.334 23.5 -59.001s36 -26.334 61 -35.001s52.5 -16.5 82.5 -23.5
s60.167 -14.833 90.5 -23.5s58 -20 83 -34s45.167 -32.667 60.5 -56s23 -53.333 23 -90c0 -35.333 -9.66699 -68.166 -29 -98.499s-49.166 -54.666 -89.499 -72.999s-91.166 -27.5 -152.499 -27.5z" />
    <glyph glyph-name="T" unicode="T" horiz-adv-x="587" 
d="M244 0v613h-240v87h579v-87h-240v-613h-99z" />
    <glyph glyph-name="U" unicode="U" horiz-adv-x="791" 
d="M395 -8c-92 0 -164.332 26.333 -216.999 79s-79 129.667 -79 231v398h100v-394c0 -78 17.167 -135 51.5 -171s82.833 -54 145.5 -54c63.333 0 112.166 18 146.499 54s51.5 93 51.5 171v394h97v-398c0 -101.333 -26.167 -178.333 -78.5 -231s-124.833 -79 -217.5 -79z" />
    <glyph glyph-name="V" unicode="V" horiz-adv-x="712" 
d="M307 0l-308 700h108l283 -646h-62l285 646h100l-307 -700h-99z" />
    <glyph glyph-name="W" unicode="W" horiz-adv-x="1126" 
d="M266 0l-234 700h103l215 -646h-52l223 646h92l218 -646h-50l218 646h95l-234 -700h-105l-204 599h27l-205 -599h-107z" />
    <glyph glyph-name="X" unicode="X" horiz-adv-x="673" 
d="M13 0l291 397v-77l-275 380h114l218 -299l-45 -1l217 300h109l-273 -374v72l291 -398h-115l-232 319h44l-229 -319h-115z" />
    <glyph glyph-name="Y" unicode="Y" horiz-adv-x="647" 
d="M274 0v268l23 -62l-301 494h107l253 -417h-58l254 417h99l-300 -494l22 62v-268h-99z" />
    <glyph glyph-name="Z" unicode="Z" horiz-adv-x="657" 
d="M43 0v68l471 584l11 -39h-475v87h565v-68l-469 -584l-12 39h494v-87h-585z" />
    <glyph glyph-name="bracketleft" unicode="[" horiz-adv-x="333" 
d="M105 -194v936h209v-79h-113v-778h113v-79h-209z" />
    <glyph glyph-name="backslash" unicode="\" horiz-adv-x="352" 
d="M379 -100h-87l-330 942h87z" />
    <glyph glyph-name="bracketright" unicode="]" horiz-adv-x="333" 
d="M228 -194h-209v79h113v778h-113v79h209v-936z" />
    <glyph glyph-name="asciicircum" unicode="^" horiz-adv-x="583" 
d="M75 142l177 416h80l176 -416h-77l-160 386h41l-160 -386h-77z" />
    <glyph glyph-name="underscore" unicode="_" horiz-adv-x="500" 
d="M0 -62v62h500v-62h-500z" />
    <glyph glyph-name="grave" unicode="`" horiz-adv-x="600" 
d="M285 607l-168 130h122l136 -130h-90z" />
    <glyph glyph-name="a" unicode="a" horiz-adv-x="598" 
d="M420 0l0.000976562 111.999l-5 21v191c0 40.667 -11.833 72.167 -35.5 94.5s-59.167 33.5 -106.5 33.5c-31.333 0 -62 -5.16699 -92 -15.5s-55.333 -24.166 -76 -41.499l-40 72c27.333 22 60.166 38.833 98.499 50.5s78.5 17.5 120.5 17.5
c72.667 0 128.667 -17.667 168 -53s59 -89.333 59 -162v-320h-91zM246.001 -6.00098c-39.333 0 -73.834 6.66602 -103.501 19.999s-52.5 31.833 -68.5 55.5s-24 50.5 -24 80.5c0 28.667 6.83301 54.667 20.5 78s36 42 67 56s72.833 21 125.5 21h168v-69h-164
c-48 0 -80.333 -8 -97 -24s-25 -35.333 -25 -58c0 -26 10.333 -46.833 31 -62.5s49.334 -23.5 86.001 -23.5c36 0 67.5 8 94.5 24s46.5 39.333 58.5 70l19 -66c-12.667 -31.333 -35 -56.166 -67 -74.499s-72.333 -27.5 -121 -27.5z" />
    <glyph glyph-name="b" unicode="b" horiz-adv-x="682" 
d="M372 -6c-45.333 0 -86.167 10.168 -122.5 30.501s-65 50.5 -86 90.5s-31.5 90 -31.5 150s10.833 110 32.5 150s50.667 70 87 90s76.5 30 120.5 30c52 0 98 -11.333 138 -34s71.667 -54.167 95 -94.5s35 -87.5 35 -141.5s-11.667 -101.333 -35 -142
s-55 -72.334 -95 -95.001s-86 -34 -138 -34zM90.999 0.000976562v742h96v-353l-10 -123l6 -123v-143h-92zM363.999 78.001c34 0 64.5 7.66699 91.5 23s48.333 37.166 64 65.499s23.5 61.166 23.5 98.499c0 38 -7.83301 70.833 -23.5 98.5s-37 49.167 -64 64.5
s-57.5 23 -91.5 23c-33.333 0 -63.5 -7.66699 -90.5 -23s-48.333 -36.833 -64 -64.5s-23.5 -60.5 -23.5 -98.5c0 -37.333 7.83301 -70.166 23.5 -98.499s37 -50.166 64 -65.499s57.167 -23 90.5 -23z" />
    <glyph glyph-name="c" unicode="c" horiz-adv-x="571" 
d="M322 -6c-54 0 -102.167 11.666 -144.5 34.999s-75.5 55.333 -99.5 96s-36 87.334 -36 140.001s12 99.334 36 140.001s57.167 72.5 99.5 95.5s90.5 34.5 144.5 34.5c48 0 90.833 -9.5 128.5 -28.5s66.834 -47.167 87.501 -84.5l-73 -47
c-17.333 26 -38.5 45.167 -63.5 57.5s-51.833 18.5 -80.5 18.5c-34.667 0 -65.667 -7.66699 -93 -23s-49 -36.833 -65 -64.5s-24 -60.5 -24 -98.5s8 -71 24 -99s37.667 -49.667 65 -65s58.333 -23 93 -23c28.667 0 55.5 6.16699 80.5 18.5s46.167 31.5 63.5 57.5l73 -46
c-20.667 -36.667 -49.834 -64.834 -87.501 -84.501s-80.5 -29.5 -128.5 -29.5z" />
    <glyph glyph-name="d" unicode="d" horiz-adv-x="682" 
d="M310 -6c-51.333 0 -97.166 11.332 -137.499 33.999s-72.166 54.334 -95.499 95.001s-35 88 -35 142s11.667 101.167 35 141.5s55.166 71.833 95.499 94.5s86.166 34 137.499 34c44.667 0 85 -10 121 -30s64.833 -50 86.5 -90s32.5 -90 32.5 -150s-10.5 -110 -31.5 -150
s-49.5 -70.167 -85.5 -90.5s-77 -30.5 -123 -30.5zM318 77.999c33.333 0 63.5 7.66699 90.5 23s48.333 37.166 64 65.499s23.5 61.166 23.5 98.499c0 38 -7.83301 70.833 -23.5 98.5s-37 49.167 -64 64.5s-57.167 23 -90.5 23c-34 0 -64.333 -7.66699 -91 -23
s-48 -36.833 -64 -64.5s-24 -60.5 -24 -98.5c0 -37.333 8 -70.166 24 -98.499s37.333 -50.166 64 -65.499s57 -23 91 -23zM499 -0.000976562v143l6 123l-10 123v353h96v-742h-92z" />
    <glyph glyph-name="e" unicode="e" horiz-adv-x="612" 
d="M327 -6c-56.667 0 -106.496 11.665 -149.496 34.998s-76.333 55.333 -100 96s-35.5 87.334 -35.5 140.001s11.5 99.334 34.5 140.001s54.667 72.5 95 95.5s85.833 34.5 136.5 34.5c51.333 0 96.666 -11.333 135.999 -34s70.166 -54.5 92.499 -95.5
s33.5 -88.833 33.5 -143.5c0 -4 -0.166992 -8.66699 -0.5 -14s-0.833008 -10.333 -1.5 -15h-451v69h401l-39 -24c0.666992 34 -6.33301 64.333 -21 91s-34.834 47.5 -60.501 62.5s-55.5 22.5 -89.5 22.5c-33.333 0 -63 -7.5 -89 -22.5s-46.333 -36 -61 -63
s-22 -57.833 -22 -92.5v-16c0 -35.333 8.16699 -66.833 24.5 -94.5s39.166 -49.167 68.499 -64.5s63 -23 101 -23c31.333 0 59.833 5.33301 85.5 16s48.167 26.667 67.5 48l53 -62c-24 -28 -53.833 -49.333 -89.5 -64s-75.5 -22 -119.5 -22z" />
    <glyph glyph-name="f" unicode="f" horiz-adv-x="353" 
d="M105 0v577.001c0 52 15.167 93.5 45.5 124.5s73.5 46.5 129.5 46.5c20.667 0 40.5 -2.5 59.5 -7.5s35.167 -12.833 48.5 -23.5l-29 -73c-10 8 -21.333 14.167 -34 18.5s-26 6.5 -40 6.5c-28 0 -49.333 -7.83301 -64 -23.5s-22 -38.834 -22 -69.501v-71l2 -44v-461h-96z
M15 451.001v79h338v-79h-338z" />
    <glyph glyph-name="g" unicode="g" horiz-adv-x="690" 
d="M323 -200c-48.667 0 -95.832 6.83203 -141.499 20.499s-82.834 33.167 -111.501 58.5l46 74c24.667 -21.333 55 -38.166 91 -50.499s73.667 -18.5 113 -18.5c62.667 0 108.667 14.667 138 44s44 74 44 134v112l10 105l-5 106v145h91v-458
c0 -93.333 -23.333 -162 -70 -206s-115 -66 -205 -66zM311.002 21.999c-51.333 0 -97.166 10.833 -137.499 32.5s-72.333 51.834 -96 90.501s-35.5 83.334 -35.5 134.001c0 51.333 11.833 96.166 35.5 134.499s55.667 68.166 96 89.499s86.166 32 137.499 32
c45.333 0 86.666 -9.16699 123.999 -27.5s67.166 -46.5 89.499 -84.5s33.5 -86 33.5 -144c0 -57.333 -11.167 -105 -33.5 -143s-52.166 -66.5 -89.499 -85.5s-78.666 -28.5 -123.999 -28.5zM322.002 105.999c35.333 0 66.666 7.33301 93.999 22s48.833 35 64.5 61
s23.5 56 23.5 90s-7.83301 64 -23.5 90s-37.167 46.167 -64.5 60.5s-58.666 21.5 -93.999 21.5s-66.833 -7.16699 -94.5 -21.5s-49.334 -34.5 -65.001 -60.5s-23.5 -56 -23.5 -90s7.83301 -64 23.5 -90s37.334 -46.333 65.001 -61s59.167 -22 94.5 -22z" />
    <glyph glyph-name="h" unicode="h" horiz-adv-x="681" 
d="M374 535c43.333 0 81.5 -8.33301 114.5 -25s58.833 -42 77.5 -76s28 -77 28 -129v-305h-96v294c0 51.333 -12.5 90 -37.5 116s-60.167 39 -105.5 39c-34 0 -63.667 -6.66699 -89 -20s-44.833 -33 -58.5 -59s-20.5 -58.333 -20.5 -97v-273h-96v742h96v-355l-19 38
c17.333 34.667 44 61.667 80 81s78 29 126 29z" />
    <glyph glyph-name="i" unicode="i" horiz-adv-x="279" 
d="M91 0v530h96v-530h-96zM139 632c-18.667 0 -34.167 6 -46.5 18s-18.5 26.667 -18.5 44c0 18 6.16699 33 18.5 45s27.833 18 46.5 18s34.167 -5.83301 46.5 -17.5s18.5 -26.167 18.5 -43.5c0 -18 -6 -33.167 -18 -45.5s-27.667 -18.5 -47 -18.5z" />
    <glyph glyph-name="j" unicode="j" horiz-adv-x="284" 
d="M23 -200c-22 0 -43.167 2.66602 -63.5 7.99902s-37.5 13.333 -51.5 24l31 74c20 -16.667 46 -25 78 -25c25.333 0 44.833 7.83301 58.5 23.5s20.5 38.834 20.5 69.501v556h96v-554c0 -54 -14.5 -96.833 -43.5 -128.5s-70.833 -47.5 -125.5 -47.5zM144 631.999
c-18.667 0 -34.167 6 -46.5 18s-18.5 26.667 -18.5 44c0 18 6.16699 33 18.5 45s27.833 18 46.5 18s34.167 -5.83301 46.5 -17.5s18.5 -26.167 18.5 -43.5c0 -18 -6 -33.167 -18 -45.5s-27.667 -18.5 -47 -18.5z" />
    <glyph glyph-name="k" unicode="k" horiz-adv-x="616" 
d="M169 128l2 123l305 279h116l-234 -230l-52 -44zM91 0v742h96v-742h-96zM496 0l-208 258l62 77l264 -335h-118z" />
    <glyph glyph-name="l" unicode="l" horiz-adv-x="279" 
d="M91 0v742h96v-742h-96z" />
    <glyph glyph-name="m" unicode="m" horiz-adv-x="1057" 
d="M754 535c42.667 0 80.3311 -8.33398 112.998 -25.001s58.167 -42 76.5 -76s27.5 -77 27.5 -129v-305h-96v294c0 51.333 -12 90 -36 116s-57.667 39 -101 39c-32 0 -60 -6.66699 -84 -20s-42.5 -33 -55.5 -59s-19.5 -58.333 -19.5 -97v-273h-96v294
c0 51.333 -11.833 90 -35.5 116s-57.5 39 -101.5 39c-31.333 0 -59 -6.66699 -83 -20s-42.667 -33 -56 -59s-20 -58.333 -20 -97v-273h-96v530h92v-141l-15 36c16.667 34.667 42.334 61.667 77.001 81s75 29 121 29c50.667 0 94.334 -12.5 131.001 -37.5
s60.667 -62.833 72 -113.5l-39 16c16 40.667 44 73.334 84 98.001s86.667 37 140 37z" />
    <glyph glyph-name="n" unicode="n" horiz-adv-x="681" 
d="M374 535c43.333 0 81.5 -8.33301 114.5 -25s58.833 -42 77.5 -76s28 -77 28 -129v-305h-96v294c0 51.333 -12.5 90 -37.5 116s-60.167 39 -105.5 39c-34 0 -63.667 -6.66699 -89 -20s-44.833 -33 -58.5 -59s-20.5 -58.333 -20.5 -97v-273h-96v530h92v-143l-15 38
c17.333 34.667 44 61.667 80 81s78 29 126 29z" />
    <glyph glyph-name="o" unicode="o" horiz-adv-x="635" 
d="M318 -6c-53.333 0 -100.666 11.666 -141.999 34.999s-74 55.5 -98 96.5s-36 87.5 -36 139.5c0 52.667 12 99.334 36 140.001s56.667 72.5 98 95.5s88.666 34.5 141.999 34.5c52.667 0 99.834 -11.5 141.501 -34.5s74.334 -54.667 98.001 -95s35.5 -87.166 35.5 -140.499
c0 -52.667 -11.833 -99.334 -35.5 -140.001s-56.334 -72.667 -98.001 -96s-88.834 -35 -141.501 -35zM318 77.999c34 0 64.5 7.66699 91.5 23s48.167 37.166 63.5 65.499s23 61.166 23 98.499c0 38 -7.66699 70.833 -23 98.5s-36.5 49.167 -63.5 64.5s-57.5 23 -91.5 23
s-64.333 -7.66699 -91 -23s-48 -36.833 -64 -64.5s-24 -60.5 -24 -98.5c0 -37.333 8 -70.166 24 -98.499s37.333 -50.166 64 -65.499s57 -23 91 -23z" />
    <glyph glyph-name="p" unicode="p" horiz-adv-x="682" 
d="M372 -6c-44 0 -84.166 10.168 -120.499 30.501s-65.333 50.5 -87 90.5s-32.5 90 -32.5 150s10.5 110 31.5 150s49.667 70 86 90s77.166 30 122.499 30c52 0 98 -11.333 138 -34s71.667 -54.167 95 -94.5s35 -87.5 35 -141.5s-11.667 -101.333 -35 -142
s-55 -72.334 -95 -95.001s-86 -34 -138 -34zM91.001 -193.999v724h92v-143l-6 -123l10 -123v-335h-96zM364.001 78.001c34 0 64.5 7.66699 91.5 23s48.333 37.166 64 65.499s23.5 61.166 23.5 98.499c0 38 -7.83301 70.833 -23.5 98.5s-37 49.167 -64 64.5
s-57.5 23 -91.5 23c-33.333 0 -63.5 -7.66699 -90.5 -23s-48.333 -36.833 -64 -64.5s-23.5 -60.5 -23.5 -98.5c0 -37.333 7.83301 -70.166 23.5 -98.499s37 -50.166 64 -65.499s57.167 -23 90.5 -23z" />
    <glyph glyph-name="q" unicode="q" horiz-adv-x="682" 
d="M310 -6c-51.333 0 -97.166 11.332 -137.499 33.999s-72.166 54.334 -95.499 95.001s-35 88 -35 142s11.667 101.167 35 141.5s55.166 71.833 95.499 94.5s86.166 34 137.499 34c46 0 87 -10 123 -30s64.5 -50 85.5 -90s31.5 -90 31.5 -150s-10.833 -110 -32.5 -150
s-50.5 -70.167 -86.5 -90.5s-76.333 -30.5 -121 -30.5zM318 77.999c33.333 0 63.5 7.66699 90.5 23s48.333 37.166 64 65.499s23.5 61.166 23.5 98.499c0 38 -7.83301 70.833 -23.5 98.5s-37 49.167 -64 64.5s-57.167 23 -90.5 23c-34 0 -64.333 -7.66699 -91 -23
s-48 -36.833 -64 -64.5s-24 -60.5 -24 -98.5c0 -37.333 8 -70.166 24 -98.499s37.333 -50.166 64 -65.499s57 -23 91 -23zM495 -194.001v335l10 123l-6 123v143h92v-724h-96z" />
    <glyph glyph-name="r" unicode="r" horiz-adv-x="410" 
d="M91 0l-0.00195312 530h92v-144l-9 36c14.667 36.667 39.334 64.667 74.001 84s77.334 29 128.001 29v-93c-4 0.666992 -7.83301 1 -11.5 1h-10.5c-51.333 0 -92 -15.333 -122 -46s-45 -75 -45 -133v-264h-96z" />
    <glyph glyph-name="s" unicode="s" horiz-adv-x="501" 
d="M243 -6c-44 0 -85.835 5.99805 -125.502 17.998s-70.834 26.667 -93.501 44l40 76c22.667 -15.333 50.667 -28.333 84 -39s67.333 -16 102 -16c44.667 0 76.834 6.33301 96.501 19s29.5 30.334 29.5 53.001c0 16.667 -6 29.667 -18 39s-27.833 16.333 -47.5 21
s-41.5 8.83398 -65.5 12.501s-48 8.33398 -72 14.001s-46 13.667 -66 24s-36 24.666 -48 42.999s-18 42.833 -18 73.5c0 32 9 60 27 84s43.5 42.5 76.5 55.5s72.167 19.5 117.5 19.5c34.667 0 69.834 -4.16699 105.501 -12.5s64.834 -20.166 87.501 -35.499l-41 -76
c-24 16 -49 27 -75 33s-52 9 -78 9c-42 0 -73.333 -6.83301 -94 -20.5s-31 -31.167 -31 -52.5c0 -18 6.16699 -31.833 18.5 -41.5s28.333 -17.167 48 -22.5s41.5 -9.83301 65.5 -13.5s48 -8.33398 72 -14.001s45.833 -13.5 65.5 -23.5s35.667 -24 48 -42s18.5 -42 18.5 -72
c0 -32 -9.33301 -59.667 -28 -83s-45 -41.5 -79 -54.5s-74.667 -19.5 -122 -19.5z" />
    <glyph glyph-name="t" unicode="t" horiz-adv-x="414" 
d="M273 -6c-53.333 0 -94.667 14.333 -124 43s-44 69.667 -44 123v486h96v-482c0 -28.667 7.16699 -50.667 21.5 -66s34.833 -23 61.5 -23c30 0 55 8.33301 75 25l30 -69c-14.667 -12.667 -32.167 -22 -52.5 -28s-41.5 -9 -63.5 -9zM14.999 451v79h338v-79h-338z" />
    <glyph glyph-name="u" unicode="u" horiz-adv-x="677" 
d="M314 -6c-45.333 0 -85.167 8.33301 -119.5 25s-61 42.167 -80 76.5s-28.5 77.5 -28.5 129.5v305h96v-294c0 -52 12.5 -91 37.5 -117s60.167 -39 105.5 -39c33.333 0 62.333 6.83301 87 20.5s43.667 33.667 57 60s20 58.166 20 95.499v274h96v-530h-91v143l15 -38
c-17.333 -35.333 -43.333 -62.666 -78 -81.999s-73.667 -29 -117 -29z" />
    <glyph glyph-name="v" unicode="v" horiz-adv-x="559" 
d="M230 0l-232 530h100l206 -480h-48l210 480h94l-232 -530h-98z" />
    <glyph glyph-name="w" unicode="w" horiz-adv-x="899" 
d="M203 0l-197 530h91l175 -480h-43l182 480h81l178 -480h-42l179 480h86l-198 -530h-92l-167 438h28l-169 -438h-92z" />
    <glyph glyph-name="x" unicode="x" horiz-adv-x="552" 
d="M14 0l228 296l-1 -49l-217 283h107l166 -218h-41l166 218h105l-220 -285l1 51l230 -296h-109l-175 232l39 -6l-172 -226h-107z" />
    <glyph glyph-name="y" unicode="y" horiz-adv-x="559" 
d="M114 -200c-25.333 0 -49.998 4.16699 -73.998 12.5s-44.667 20.5 -62 36.5l41 72c13.333 -12.667 28 -22.334 44 -29.001s33 -10 51 -10c23.333 0 42.666 6 57.999 18s29.666 33.333 42.999 64l33 73l10 12l208 481h94l-257 -583
c-15.333 -37.333 -32.5 -66.666 -51.5 -87.999s-39.833 -36.5 -62.5 -45.5s-47.667 -13.5 -75 -13.5zM240.002 -17l-242 547h100l206 -472z" />
    <glyph glyph-name="z" unicode="z" horiz-adv-x="521" 
d="M40 0v62l340 422l19 -33h-353v79h430v-63l-340 -421l-22 33h370v-79h-444z" />
    <glyph glyph-name="braceleft" unicode="{" horiz-adv-x="351" 
d="M288 -194c-50 0 -87.667 12.498 -113 37.498s-38 61.833 -38 110.5v230c0 17.333 -4 30 -12 38s-19 12 -33 12h-35v80h35c14 0 25 4 33 12s12 20.667 12 38v230c0 49.333 12.667 86.333 38 111s63 37 113 37h44v-79h-25c-24.667 0 -43.167 -6.66699 -55.5 -20
s-18.5 -32.666 -18.5 -57.999v-219c0 -23.333 -3 -41.5 -9 -54.5s-14.833 -22.667 -26.5 -29s-26.834 -11.166 -45.501 -14.499v12c18.667 -2.66699 33.834 -7.33398 45.501 -14.001s20.5 -16.5 26.5 -29.5s9 -31.167 9 -54.5v-219c0 -25.333 6.16699 -44.666 18.5 -57.999
s30.833 -20 55.5 -20h25v-79h-44z" />
    <glyph glyph-name="bar" unicode="|" horiz-adv-x="299" 
d="M105 -194v936h89v-936h-89z" />
    <glyph glyph-name="braceright" unicode="}" horiz-adv-x="351" 
d="M63 -194l-44 0.00195312v79h24c26 0 45.167 6.66699 57.5 20s18.5 32.666 18.5 57.999v219c0 23.333 2.83301 41.5 8.5 54.5s14.5 22.833 26.5 29.5s27 11.334 45 14.001v-12c-18 3.33301 -33 8.16602 -45 14.499s-20.833 16 -26.5 29s-8.5 31.167 -8.5 54.5v219
c0 25.333 -6.16699 44.666 -18.5 57.999s-31.5 20 -57.5 20h-24v79h44c50 0 87.833 -12.333 113.5 -37s38.5 -61.667 38.5 -111v-230c0 -17.333 4 -30 12 -38s18.667 -12 32 -12h34v-80h-34c-13.333 0 -24 -4 -32 -12s-12 -20.667 -12 -38v-230
c0 -48.667 -12.833 -85.5 -38.5 -110.5s-63.5 -37.5 -113.5 -37.5z" />
    <glyph glyph-name="asciitilde" unicode="~" horiz-adv-x="582" 
d="M392 265c-24 0 -45.002 5 -63.002 15s-34.5 21.333 -49.5 34s-29.167 23.834 -42.5 33.501s-28 14.5 -44 14.5c-21.333 0 -38.333 -8 -51 -24s-19.667 -38 -21 -66h-63c1.33301 56 14.333 97.333 39 124s55.667 40 93 40c24 0 45 -5 63 -15s34.5 -21.333 49.5 -34
s29.167 -23.834 42.5 -33.501s28 -14.5 44 -14.5c22 0 39.333 8.16699 52 24.5s19.334 38.5 20.001 66.5h63c-1.33301 -56 -14.166 -97.5 -38.499 -124.5s-55.5 -40.5 -93.5 -40.5z" />
    <glyph glyph-name="uni00A0" unicode="&#xa0;" horiz-adv-x="269" 
 />
    <glyph glyph-name="exclamdown" unicode="&#xa1;" horiz-adv-x="268" 
d="M172 309l19 -463h-113l18 463h76zM135 535c18.667 0 34 -6.33301 46 -19s18 -28 18 -46c0 -17.333 -6 -32.166 -18 -44.499s-27.333 -18.5 -46 -18.5s-34.334 6.16699 -47.001 18.5s-19 27.166 -19 44.499c0 18 6.33301 33.333 19 46s28.334 19 47.001 19z" />
    <glyph glyph-name="cent" unicode="&#xa2;" horiz-adv-x="571" 
d="M282 -120v770h64v-770h-64zM322 -6c-54 0 -102.167 11.666 -144.5 34.999s-75.5 55.333 -99.5 96s-36 87.334 -36 140.001s12 99.334 36 140.001s57.167 72.5 99.5 95.5s90.5 34.5 144.5 34.5c48 0 90.833 -9.5 128.5 -28.5s66.834 -47.167 87.501 -84.5l-73 -47
c-17.333 26 -38.5 45.167 -63.5 57.5s-51.833 18.5 -80.5 18.5c-34.667 0 -65.667 -7.66699 -93 -23s-49 -36.833 -65 -64.5s-24 -60.5 -24 -98.5s8 -71 24 -99s37.667 -49.667 65 -65s58.333 -23 93 -23c28.667 0 55.5 6.16699 80.5 18.5s46.167 31.5 63.5 57.5l73 -46
c-20.667 -36.667 -49.834 -64.834 -87.501 -84.501s-80.5 -29.5 -128.5 -29.5z" />
    <glyph glyph-name="sterling" unicode="&#xa3;" horiz-adv-x="646" 
d="M139 14l-0.00195312 434c0 52.667 11.5 98.5 34.5 137.5s56.5 69.167 100.5 90.5s97.333 32 160 32c40.667 0 77 -4 109 -12s61.333 -20.667 88 -38l-33 -83c-23.333 16.667 -49.666 28.167 -78.999 34.5s-60.666 9.5 -93.999 9.5c-62 0 -108.667 -14.667 -140 -44
s-47 -71.333 -47 -126v-435h-99zM29.998 0v87h586v-87h-586zM29.998 317v66h474v-66h-474z" />
    <glyph glyph-name="currency" unicode="&#xa4;" horiz-adv-x="700" 
d="M146 463l-115 115l55 59l116 -115zM86 -2l-55 59l115 115l56 -59zM613 -2l-116 115l56 59l116 -115zM553 463l-56 59l116 115l56 -59zM350 55c-36.667 0 -71.5 6.83301 -104.5 20.5s-61.833 32.667 -86.5 57s-44.167 52.333 -58.5 84s-21.5 65.834 -21.5 102.501
s7.16699 70.834 21.5 102.501s33.833 59.834 58.5 84.501s53.5 43.834 86.5 57.501s67.833 20.5 104.5 20.5c37.333 0 72.5 -6.83301 105.5 -20.5s62 -32.834 87 -57.501s44.5 -52.834 58.5 -84.501s21 -65.834 21 -102.501s-7 -70.834 -21 -102.501
s-33.5 -59.667 -58.5 -84s-54 -43.333 -87 -57s-68.167 -20.5 -105.5 -20.5zM350 134c36 0 68.5 8.5 97.5 25.5s52.5 39.333 70.5 67s27 58.5 27 92.5s-9 65 -27 93s-41.5 50.5 -70.5 67.5s-61.5 25.5 -97.5 25.5c-34.667 0 -66.667 -8.5 -96 -25.5
s-52.666 -39.5 -69.999 -67.5s-26 -59 -26 -93s8.66699 -64.833 26 -92.5s40.666 -50 69.999 -67s61.333 -25.5 96 -25.5z" />
    <glyph glyph-name="yen" unicode="&#xa5;" horiz-adv-x="707" 
d="M304 0v305l23 -67l-331 462h106l283 -396h-60l284 396h102l-330 -462l22 67v-305h-99zM93 117v57h521v-57h-521zM93 255v57h521v-57h-521z" />
    <glyph glyph-name="brokenbar" unicode="&#xa6;" horiz-adv-x="299" 
d="M105 392v350h89v-350h-89zM105 -194v350h89v-350h-89z" />
    <glyph glyph-name="section" unicode="&#xa7;" horiz-adv-x="500" 
d="M353 147l-65.001 48.998c26.667 4.66699 48.834 15.167 66.501 31.5s26.5 37.166 26.5 62.499c0 19.333 -5.83301 35 -17.5 47s-27 21.333 -46 28s-40 12.834 -63 18.501s-46 11.834 -69 18.501s-44.167 15.334 -63.5 26.001s-34.833 25.167 -46.5 43.5
s-17.5 42.166 -17.5 71.499c0 32.667 9.16699 61.167 27.5 85.5s44.666 43.333 78.999 57s75.166 20.5 122.499 20.5c20.667 0 42.667 -2 66 -6s45.5 -9.66699 66.5 -17s38.5 -16.333 52.5 -27l-31 -73c-23.333 16 -48.666 27.667 -75.999 35s-55.666 11 -84.999 11
c-44.667 0 -78.5 -7.16699 -101.5 -21.5s-34.5 -34.833 -34.5 -61.5c0 -18 5.83301 -32.667 17.5 -44s27 -20.166 46 -26.499s40 -12.166 63 -17.499s46 -11.5 69 -18.5s44 -16.333 63 -28s34.167 -27.334 45.5 -47.001s17 -44.167 17 -73.5
c0 -34.667 -10.5 -64.667 -31.5 -90s-47.833 -43.333 -80.5 -54zM231.999 -106.002c-25.333 0 -51.3311 2.83398 -77.998 8.50098s-51.167 13.334 -73.5 23.001s-40.5 20.5 -54.5 32.5l31 73c20.667 -16.667 47.167 -30.834 79.5 -42.501s65.5 -17.5 99.5 -17.5
c38 0 67.833 7.16699 89.5 21.5s32.5 34.833 32.5 61.5c0 19.333 -5.83301 34.5 -17.5 45.5s-27 19.833 -46 26.5s-40 12.667 -63 18s-46 11.333 -69 18s-44 15.667 -63 27s-34.333 26.333 -46 45s-17.5 42.667 -17.5 72c0 37.333 10.5 68.333 31.5 93
s47.833 42.667 80.5 54l63 -50c-26 -4.66699 -47.667 -14.834 -65 -30.501s-26 -36.167 -26 -61.5c0 -20 5.83301 -35.833 17.5 -47.5s27.167 -21 46.5 -28s40.5 -13.167 63.5 -18.5s46 -11.333 69 -18s44.167 -15.5 63.5 -26.5s34.833 -25.833 46.5 -44.5
s17.5 -42.667 17.5 -72c0 -32 -8.83301 -60.167 -26.5 -84.5s-42.334 -43.333 -74.001 -57s-68.834 -20.5 -111.501 -20.5z" />
    <glyph glyph-name="dieresis" unicode="&#xa8;" horiz-adv-x="600" 
d="M393 624c-14 0 -26 4.83301 -36 14.5s-15 21.834 -15 36.501c0 15.333 5 27.833 15 37.5s22 14.5 36 14.5s26 -4.83301 36 -14.5s15 -22.167 15 -37.5c0 -14.667 -5 -26.834 -15 -36.501s-22 -14.5 -36 -14.5zM207 624c-14 0 -26 4.83301 -36 14.5s-15 21.834 -15 36.501
c0 15.333 5 27.833 15 37.5s22 14.5 36 14.5s26 -4.83301 36 -14.5s15 -22.167 15 -37.5c0 -14.667 -5 -26.834 -15 -36.501s-22 -14.5 -36 -14.5z" />
    <glyph glyph-name="copyright" unicode="&#xa9;" horiz-adv-x="802" 
d="M400 -3c-50 0 -96.334 9 -139.001 27s-80 43.167 -112 75.5s-56.833 69.833 -74.5 112.5s-26.5 88.667 -26.5 138s9 95.333 27 138s43 80.167 75 112.5s69.5 57.5 112.5 75.5s89.5 27 139.5 27s96.5 -8.83301 139.5 -26.5s80.333 -42.5 112 -74.5
s56.334 -69.167 74.001 -111.5s26.5 -88.5 26.5 -138.5s-9 -96.5 -27 -139.5s-43.167 -80.667 -75.5 -113s-69.833 -57.5 -112.5 -75.5s-89 -27 -139 -27zM399.999 42c43.333 0 83.668 8.00098 121.001 24.001s70 38 98 66s49.667 60.833 65 98.5s23 78.167 23 121.5
s-7.66699 83.666 -23 120.999s-36.666 69.666 -63.999 96.999s-59.5 48.833 -96.5 64.5s-77.5 23.5 -121.5 23.5s-84.833 -7.83301 -122.5 -23.5s-70.167 -37.667 -97.5 -66s-48.666 -61 -63.999 -98s-23 -77.167 -23 -120.5s7.66699 -83.666 23 -120.999
s36.666 -70 63.999 -98s59.666 -49.833 96.999 -65.5s77.666 -23.5 120.999 -23.5zM411.001 144.001c-40.667 0 -77 8.66406 -109 25.9971s-57 41.5 -75 72.5s-27 66.833 -27 107.5s9 76.5 27 107.5s43 55.167 75 72.5s68.333 26 109 26
c35.333 0 67.166 -7.16699 95.499 -21.5s50.5 -34.166 66.5 -59.499l-57 -41c-12.667 18.667 -28.167 32.334 -46.5 41.001s-38.166 13 -59.499 13c-26 0 -48.833 -5.83301 -68.5 -17.5s-35.5 -27.667 -47.5 -48s-18 -44.5 -18 -72.5s6 -52.167 18 -72.5
s27.833 -36.333 47.5 -48s42.5 -17.5 68.5 -17.5c21.333 0 41.166 4.33301 59.499 13s33.833 22.334 46.5 41.001l57 -40c-16 -25.333 -38.167 -45.333 -66.5 -60s-60.166 -22 -95.499 -22z" />
    <glyph glyph-name="ordfeminine" unicode="&#xaa;" horiz-adv-x="404" 
d="M275 428l0.000976562 66l-5 12v113c0 26 -7.33301 45 -22 57s-36.334 18 -65.001 18c-20.667 0 -40.667 -3.16699 -60 -9.5s-36 -14.833 -50 -25.5l-26 45c17.333 13.333 39 23.833 65 31.5s52 11.5 78 11.5c48 0 84.833 -10.667 110.5 -32s38.5 -54 38.5 -98v-189h-64z
M163.001 424c-41.333 0 -72.667 9.00098 -94 27.001s-32 40.333 -32 67s10.5 48.667 31.5 66s55.833 26 104.5 26h108v-43h-99c-28.667 0 -49 -4.16699 -61 -12.5s-18 -19.5 -18 -33.5c0 -16 6.5 -28.167 19.5 -36.5s31.167 -12.5 54.5 -12.5s42.666 4.33301 57.999 13
s27 20.667 35 36l11 -43c-6.66699 -14.667 -20.167 -27.334 -40.5 -38.001s-46.166 -16 -77.499 -16z" />
    <glyph glyph-name="guillemotleft" unicode="&#xab;" horiz-adv-x="504" 
d="M190 74l-144 191l144 192h88l-141 -192l141 -191h-88zM382 74l-144 191l144 192h88l-141 -192l141 -191h-88z" />
    <glyph glyph-name="logicalnot" unicode="&#xac;" horiz-adv-x="582" 
d="M515 390v-257h-85v178h-363v79h448z" />
    <glyph glyph-name="uni00AD" unicode="&#xad;" horiz-adv-x="383" 
d="M57 233v83h269v-83h-269z" />
    <glyph glyph-name="registered" unicode="&#xae;" horiz-adv-x="802" 
d="M400 -3c-50 0 -96.334 9 -139.001 27s-80 43.167 -112 75.5s-56.833 69.833 -74.5 112.5s-26.5 88.667 -26.5 138s9 95.333 27 138s43 80.167 75 112.5s69.5 57.5 112.5 75.5s89.5 27 139.5 27s96.5 -8.83301 139.5 -26.5s80.333 -42.5 112 -74.5
s56.334 -69.167 74.001 -111.5s26.5 -88.5 26.5 -138.5s-9 -96.5 -27 -139.5s-43.167 -80.667 -75.5 -113s-69.833 -57.5 -112.5 -75.5s-89 -27 -139 -27zM518.999 150l-100 154h69l100 -154h-69zM399.999 42c43.333 0 83.668 8.00098 121.001 24.001s70 38 98 66
s49.667 60.833 65 98.5s23 78.167 23 121.5s-7.66699 83.666 -23 120.999s-36.666 69.666 -63.999 96.999s-59.5 48.833 -96.5 64.5s-77.5 23.5 -121.5 23.5s-84.833 -7.83301 -122.5 -23.5s-70.167 -37.667 -97.5 -66s-48.666 -61 -63.999 -98s-23 -77.167 -23 -120.5
s7.66699 -83.666 23 -120.999s36.666 -70 63.999 -98s59.666 -49.833 96.999 -65.5s77.666 -23.5 120.999 -23.5zM259.001 150.001v400h160c50.667 0 90.334 -12.333 119.001 -37s43 -57.667 43 -99c0 -42.667 -14.333 -76 -43 -100s-68.334 -36 -119.001 -36h-92v-128h-68z
M326.001 334.001h88c32 0 56.833 7 74.5 21s26.5 33.667 26.5 59s-8.83301 44.833 -26.5 58.5s-42.5 20.5 -74.5 20.5h-88v-159z" />
    <glyph glyph-name="macron" unicode="&#xaf;" horiz-adv-x="600" 
d="M137 642v60h326v-60h-326z" />
    <glyph glyph-name="degree" unicode="&#xb0;" horiz-adv-x="419" 
d="M209 381c-30.667 0 -58.5 7.16699 -83.5 21.5s-44.667 33.833 -59 58.5s-21.5 52.334 -21.5 83.001c0 30 7.16699 57.333 21.5 82s34 44.167 59 58.5s52.833 21.5 83.5 21.5s58.5 -7.16699 83.5 -21.5s44.833 -33.833 59.5 -58.5s22 -52 22 -82
c0 -30.667 -7.33301 -58.334 -22 -83.001s-34.5 -44.167 -59.5 -58.5s-52.833 -21.5 -83.5 -21.5zM210 435c20 0 38.167 4.83105 54.5 14.498s29.166 22.667 38.499 39s14 34.5 14 54.5c0 21.333 -4.66699 40.333 -14 57s-22.166 29.667 -38.499 39s-34.5 14 -54.5 14
c-20.667 0 -39.334 -4.66699 -56.001 -14s-29.667 -22.166 -39 -38.499s-14 -35.5 -14 -57.5c0 -20.667 4.66699 -39.167 14 -55.5s22.333 -29.166 39 -38.499s35.334 -14 56.001 -14z" />
    <glyph glyph-name="plusminus" unicode="&#xb1;" horiz-adv-x="582" 
d="M67 0v79h448v-79h-448zM249 185v427h84v-427h-84zM67 359v79h448v-79h-448z" />
    <glyph glyph-name="uni00B2" unicode="&#xb2;" horiz-adv-x="430" 
d="M46 327l0.00195312 45.002l185 162c24 22 40 39.5 48 52.5s12 25.5 12 37.5c0 17.333 -8 32.166 -24 44.499s-41.333 18.5 -76 18.5c-24 0 -45.833 -3.83301 -65.5 -11.5s-35.834 -18.834 -48.501 -33.501l-49 38c17.333 21.333 40.166 37.833 68.499 49.5
s61.5 17.5 99.5 17.5c54 0 95 -11.333 123 -34s42 -50.667 42 -84c0 -20 -4.83301 -39.333 -14.5 -58s-30.5 -42 -62.5 -70l-162 -142l-19 26h277v-58h-334z" />
    <glyph glyph-name="uni00B3" unicode="&#xb3;" horiz-adv-x="430" 
d="M201 322c-36 0 -69.832 4.66699 -101.499 14s-55.834 21.666 -72.501 36.999l28 53c16 -13.333 37 -24 63 -32s53.667 -12 83 -12c37.333 0 65 6.16699 83 18.5s27 28.833 27 49.5s-8.66699 37 -26 49s-44 18 -80 18h-47v47l137 147l12 -27h-267v58h321v-45l-137 -147
l-32 21h25c54 0 94.833 -11.333 122.5 -34s41.5 -51.667 41.5 -87c0 -23.333 -6.66699 -44.666 -20 -63.999s-33.333 -34.833 -60 -46.5s-60 -17.5 -100 -17.5z" />
    <glyph glyph-name="acute" unicode="&#xb4;" horiz-adv-x="600" 
d="M225 607l136 130h122l-168 -130h-90z" />
    <glyph glyph-name="uni00B5" unicode="&#xb5;" horiz-adv-x="682" 
d="M91 -194v724.002h96v-294c0 -52 12.5 -91 37.5 -117s60.167 -39 105.5 -39c33.333 0 62.333 6.83301 87 20.5s43.667 33.667 57 60s20 58.166 20 95.499v274h96v-530h-91v144l16 -29c-10.667 -28.667 -25.667 -51.834 -45 -69.501s-41 -30.667 -65 -39
s-48.333 -12.5 -73 -12.5c-38 0 -71.167 7.83301 -99.5 23.5s-49.833 38.167 -64.5 67.5l19 37v-316h-96z" />
    <glyph glyph-name="paragraph" unicode="&#xb6;" horiz-adv-x="648" 
d="M227 -100l0.000976562 484c-40.667 0 -76.667 7.5 -108 22.5s-55.833 35.833 -73.5 62.5s-26.5 58 -26.5 94c0 36.667 9.16699 68.5 27.5 95.5s44.166 47.667 77.499 62s72.333 21.5 117 21.5h302v-842h-80v767h-156v-767h-80z" />
    <glyph glyph-name="periodcentered" unicode="&#xb7;" horiz-adv-x="267" 
d="M134 206c-18.667 0 -34.667 6.5 -48 19.5s-20 29.5 -20 49.5s6.66699 36.333 20 49s29.333 19 48 19c19.333 0 35.166 -6.33301 47.499 -19s18.5 -29 18.5 -49s-6.16699 -36.5 -18.5 -49.5s-28.166 -19.5 -47.499 -19.5z" />
    <glyph glyph-name="cedilla" unicode="&#xb8;" horiz-adv-x="600" 
d="M275 -224c-17.333 0 -33.333 1.83301 -48 5.5s-28.334 9.16699 -41.001 16.5l21 49c10.667 -6 21.5 -10.333 32.5 -13s22.833 -4 35.5 -4c19.333 0 33.5 3.5 42.5 10.5s13.5 16.833 13.5 29.5c0 12 -4.5 21.5 -13.5 28.5s-23.5 10.5 -43.5 10.5h-27l25 98h55l-15 -57
c28.667 -2.66699 50.334 -11.667 65.001 -27s22 -34 22 -56c0 -28 -11.333 -50.167 -34 -66.5s-52.667 -24.5 -90 -24.5z" />
    <glyph glyph-name="uni00B9" unicode="&#xb9;" horiz-adv-x="430" 
d="M268 339l-44 46h146v-58h-289v58h160l-44 -46v377l31 -32h-139v58h179v-403z" />
    <glyph glyph-name="ordmasculine" unicode="&#xba;" horiz-adv-x="418" 
d="M209 424c-34 0 -64.333 7 -91 21s-47.667 33.333 -63 58s-23 52.334 -23 83.001c0 31.333 7.66699 59.166 23 83.499s36.333 43.333 63 57s57 20.5 91 20.5c34.667 0 65.334 -6.83301 92.001 -20.5s47.5 -32.667 62.5 -57s22.5 -52.166 22.5 -83.499
c0 -30.667 -7.5 -58.334 -22.5 -83.001s-35.833 -44 -62.5 -58s-57.334 -21 -92.001 -21zM209 482c32.667 0 59.167 9.66699 79.5 29s30.5 44.333 30.5 75c0 31.333 -10.167 56.5 -30.5 75.5s-46.833 28.5 -79.5 28.5c-32 0 -58.333 -9.5 -79 -28.5s-31 -44.167 -31 -75.5
c0 -30 10.333 -54.833 31 -74.5s47 -29.5 79 -29.5z" />
    <glyph glyph-name="guillemotright" unicode="&#xbb;" horiz-adv-x="504" 
d="M122 74h-88l141 191l-141 192h88l144 -192zM314 74h-88l141 191l-141 192h88l144 -192z" />
    <glyph glyph-name="onequarter" unicode="&#xbc;" horiz-adv-x="1034" 
d="M268 297l-44 46h146v-58h-289v58h160l-44 -46v377l31 -32h-139v58h179v-403zM240 0l478 700h76l-478 -700h-76zM626 99v47l201 269h78l-202 -269l-34 11h338v-58h-381zM857 0v99l6 58v83h63v-240h-69z" />
    <glyph glyph-name="onehalf" unicode="&#xbd;" horiz-adv-x="1034" 
d="M268 297l-44 46h146v-58h-289v58h160l-44 -46v377l31 -32h-139v58h179v-403zM240 0l478 700h76l-478 -700h-76zM650 0l0.00195312 45.002l185 162c24 22 40 39.5 48 52.5s12 25.5 12 37.5c0 17.333 -8 32.166 -24 44.499s-41.333 18.5 -76 18.5
c-24 0 -45.833 -3.83301 -65.5 -11.5s-35.834 -18.834 -48.501 -33.501l-49 38c17.333 21.333 40.166 37.833 68.499 49.5s61.5 17.5 99.5 17.5c54 0 95 -11.333 123 -34s42 -50.667 42 -84c0 -20 -4.83301 -39.333 -14.5 -58s-30.5 -42 -62.5 -70l-162 -142l-19 26h277v-58
h-334z" />
    <glyph glyph-name="threequarters" unicode="&#xbe;" horiz-adv-x="1034" 
d="M201 280c-36 0 -69.832 4.66699 -101.499 14s-55.834 21.666 -72.501 36.999l28 53c16 -13.333 37 -24 63 -32s53.667 -12 83 -12c37.333 0 65 6.16699 83 18.5s27 28.833 27 49.5s-8.66699 37 -26 49s-44 18 -80 18h-47v47l137 147l12 -27h-267v58h321v-45l-137 -147
l-32 21h25c54 0 94.833 -11.333 122.5 -34s41.5 -51.667 41.5 -87c0 -23.333 -6.66699 -44.666 -20 -63.999s-33.333 -34.833 -60 -46.5s-60 -17.5 -100 -17.5zM240.001 0l478 700h76l-478 -700h-76zM626.001 99v47l201 269h78l-202 -269l-34 11h338v-58h-381zM857.001 0v99
l6 58v83h63v-240h-69z" />
    <glyph glyph-name="questiondown" unicode="&#xbf;" horiz-adv-x="573" 
d="M306 -162c-48 0 -89.8398 7.16504 -125.507 21.498s-63.167 34.5 -82.5 60.5s-29 56.333 -29 91c0 26.667 4.16699 49.834 12.5 69.501s19.333 36.834 33 51.501s27.834 28.334 42.501 41.001l42.5 38c13.667 12.667 24.667 26.834 33 42.501s12.5 34.167 12.5 55.5h100
c0 -25.333 -4.16699 -47.333 -12.5 -66s-19.166 -35.334 -32.499 -50.001s-27.666 -28.5 -42.999 -41.5s-29.666 -25.833 -42.999 -38.5s-24.166 -26.334 -32.499 -41.001s-12.5 -31.334 -12.5 -50.001c0 -27.333 12.667 -50.666 38 -69.999s60.333 -29 105 -29
c40.667 0 75.834 6.83301 105.501 20.5s54.167 33.167 73.5 58.5l73 -52c-27.333 -35.333 -62.666 -62.833 -105.999 -82.5s-94 -29.5 -152 -29.5zM294.993 406.998c-18.667 0 -34.167 6.16699 -46.5 18.5s-18.5 27.166 -18.5 44.499c0 18 6.16699 33.333 18.5 46
s27.833 19 46.5 19c19.333 0 35 -6.33301 47 -19s18 -28 18 -46c0 -17.333 -6 -32.166 -18 -44.499s-27.667 -18.5 -47 -18.5z" />
    <glyph glyph-name="Agrave" unicode="&#xc0;" horiz-adv-x="732" 
d="M-1 0l317 700h99l318 -700h-105l-283 644h40l-283 -644h-103zM134 175l27 80h394l29 -80h-450zM351 757l-168 130h122l136 -130h-90z" />
    <glyph glyph-name="Aacute" unicode="&#xc1;" horiz-adv-x="732" 
d="M-1 0l317 700h99l318 -700h-105l-283 644h40l-283 -644h-103zM134 175l27 80h394l29 -80h-450zM291 757l136 130h122l-168 -130h-90z" />
    <glyph glyph-name="Acircumflex" unicode="&#xc2;" horiz-adv-x="732" 
d="M-1 0l317 700h99l318 -700h-105l-283 644h40l-283 -644h-103zM134 175l27 80h394l29 -80h-450zM187 757l133 130h92l133 -130h-87l-132 110h80l-132 -110h-87z" />
    <glyph glyph-name="Atilde" unicode="&#xc3;" horiz-adv-x="732" 
d="M-1 0l317 700h99l318 -700h-105l-283 644h40l-283 -644h-103zM134 175l27 80h394l29 -80h-450zM436 760c-16 0 -30.165 3.33203 -42.498 9.99902s-23.5 14.5 -33.5 23.5s-19.667 16.833 -29 23.5s-18.666 10 -27.999 10c-14.667 0 -26.5 -5.5 -35.5 -16.5
s-14.167 -26.167 -15.5 -45.5h-54c1.33301 37.333 10.666 67 27.999 89s40.666 33 69.999 33c16 0 30.333 -3.5 43 -10.5s24 -15 34 -24s19.5 -16.833 28.5 -23.5s18.167 -10 27.5 -10c14.667 0 26.667 5.33301 36 16s14.333 25.334 15 44.001h54
c-0.666992 -35.333 -9.83398 -64 -27.501 -86s-41.167 -33 -70.5 -33z" />
    <glyph glyph-name="Adieresis" unicode="&#xc4;" horiz-adv-x="732" 
d="M-1 0l317 700h99l318 -700h-105l-283 644h40l-283 -644h-103zM134 175l27 80h394l29 -80h-450zM459 774c-14 0 -26 4.83301 -36 14.5s-15 21.834 -15 36.501c0 15.333 5 27.833 15 37.5s22 14.5 36 14.5s26 -4.83301 36 -14.5s15 -22.167 15 -37.5
c0 -14.667 -5 -26.834 -15 -36.501s-22 -14.5 -36 -14.5zM273 774c-14 0 -26 4.83301 -36 14.5s-15 21.834 -15 36.501c0 15.333 5 27.833 15 37.5s22 14.5 36 14.5s26 -4.83301 36 -14.5s15 -22.167 15 -37.5c0 -14.667 -5 -26.834 -15 -36.501s-22 -14.5 -36 -14.5z" />
    <glyph glyph-name="Aring" unicode="&#xc5;" horiz-adv-x="732" 
d="M-1 0l317 700h99l318 -700h-105l-283 644h40l-283 -644h-103zM134 175l27 80h394l29 -80h-450zM365 764c-20.667 0 -39.334 5 -56.001 15s-29.834 23 -39.501 39s-14.5 34 -14.5 54s4.83301 38.333 14.5 55s22.834 30 39.501 40s35.334 15 56.001 15
c21.333 0 40.333 -5 57 -15s29.834 -23.333 39.501 -40s14.5 -35 14.5 -55s-4.83301 -38 -14.5 -54s-22.834 -29 -39.501 -39s-35.667 -15 -57 -15zM365 806c19.333 0 35.166 6.33301 47.499 19s18.5 28.334 18.5 47.001c0 19.333 -6.16699 35.333 -18.5 48
s-28.166 19 -47.499 19c-18.667 0 -34.167 -6.16699 -46.5 -18.5s-18.5 -28.5 -18.5 -48.5c0 -18.667 6 -34.334 18 -47.001s27.667 -19 47 -19z" />
    <glyph glyph-name="AE" unicode="&#xc6;" horiz-adv-x="1047" 
d="M-1 0l417 700h100v-87h-88l61 44l-387 -657h-103zM177 175l6 80h333v-80h-339zM574 398h359v-85h-360zM582 87h409v-87h-508v700h494v-87h-395v-526z" />
    <glyph glyph-name="Ccedilla" unicode="&#xc7;" horiz-adv-x="723" 
d="M418 -8c-53.333 0 -102.499 8.83398 -147.499 26.501s-84 42.667 -117 75s-58.833 70.166 -77.5 113.499s-28 91 -28 143s9.33301 99.667 28 143s44.667 81.166 78 113.499s72.5 57.333 117.5 75s94.167 26.5 147.5 26.5c54 0 103.833 -9.16699 149.5 -27.5
s84.5 -45.5 116.5 -81.5l-65 -63c-26.667 28 -56.667 48.833 -90 62.5s-69 20.5 -107 20.5c-39.333 0 -75.833 -6.66699 -109.5 -20s-62.834 -32 -87.501 -56s-43.834 -52.5 -57.501 -85.5s-20.5 -68.833 -20.5 -107.5s6.83301 -74.5 20.5 -107.5s32.834 -61.5 57.501 -85.5
s53.834 -42.667 87.501 -56s70.167 -20 109.5 -20c38 0 73.667 6.83301 107 20.5s63.333 34.834 90 63.501l65 -63c-32 -36 -70.833 -63.333 -116.5 -82s-95.834 -28 -150.501 -28zM377.001 -223.999c-17.333 0 -33.333 1.83301 -48 5.5s-28.334 9.16699 -41.001 16.5l21 49
c10.667 -6 21.5 -10.333 32.5 -13s22.833 -4 35.5 -4c19.333 0 33.5 3.5 42.5 10.5s13.5 16.833 13.5 29.5c0 12 -4.5 21.5 -13.5 28.5s-23.5 10.5 -43.5 10.5h-27l25 98h55l-15 -57c28.667 -2.66699 50.334 -11.667 65.001 -27s22 -34 22 -56
c0 -28 -11.333 -50.167 -34 -66.5s-52.667 -24.5 -90 -24.5z" />
    <glyph glyph-name="Egrave" unicode="&#xc8;" horiz-adv-x="670" 
d="M196 398h360v-85h-360v85zM205 87h408v-87h-508v700h494v-87h-394v-526zM338 757l-168 130h122l136 -130h-90z" />
    <glyph glyph-name="Eacute" unicode="&#xc9;" horiz-adv-x="670" 
d="M196 398h360v-85h-360v85zM205 87h408v-87h-508v700h494v-87h-394v-526zM278 757l136 130h122l-168 -130h-90z" />
    <glyph glyph-name="Ecircumflex" unicode="&#xca;" horiz-adv-x="670" 
d="M196 398h360v-85h-360v85zM205 87h408v-87h-508v700h494v-87h-394v-526zM174 757l133 130h92l133 -130h-87l-132 110h80l-132 -110h-87z" />
    <glyph glyph-name="Edieresis" unicode="&#xcb;" horiz-adv-x="670" 
d="M196 398h360v-85h-360v85zM205 87h408v-87h-508v700h494v-87h-394v-526zM446 774c-14 0 -26 4.83301 -36 14.5s-15 21.834 -15 36.501c0 15.333 5 27.833 15 37.5s22 14.5 36 14.5s26 -4.83301 36 -14.5s15 -22.167 15 -37.5c0 -14.667 -5 -26.834 -15 -36.501
s-22 -14.5 -36 -14.5zM260 774c-14 0 -26 4.83301 -36 14.5s-15 21.834 -15 36.501c0 15.333 5 27.833 15 37.5s22 14.5 36 14.5s26 -4.83301 36 -14.5s15 -22.167 15 -37.5c0 -14.667 -5 -26.834 -15 -36.501s-22 -14.5 -36 -14.5z" />
    <glyph glyph-name="Igrave" unicode="&#xcc;" horiz-adv-x="310" 
d="M105 0v700h100v-700h-100zM140 757l-168 130h122l136 -130h-90z" />
    <glyph glyph-name="Iacute" unicode="&#xcd;" horiz-adv-x="310" 
d="M105 0v700h100v-700h-100zM80 757l136 130h122l-168 -130h-90z" />
    <glyph glyph-name="Icircumflex" unicode="&#xce;" horiz-adv-x="310" 
d="M105 0v700h100v-700h-100zM-24 757l133 130h92l133 -130h-87l-132 110h80l-132 -110h-87z" />
    <glyph glyph-name="Idieresis" unicode="&#xcf;" horiz-adv-x="310" 
d="M105 0v700h100v-700h-100zM248 774c-14 0 -26 4.83301 -36 14.5s-15 21.834 -15 36.501c0 15.333 5 27.833 15 37.5s22 14.5 36 14.5s26 -4.83301 36 -14.5s15 -22.167 15 -37.5c0 -14.667 -5 -26.834 -15 -36.501s-22 -14.5 -36 -14.5zM62 774
c-14 0 -26 4.83301 -36 14.5s-15 21.834 -15 36.501c0 15.333 5 27.833 15 37.5s22 14.5 36 14.5s26 -4.83301 36 -14.5s15 -22.167 15 -37.5c0 -14.667 -5 -26.834 -15 -36.501s-22 -14.5 -36 -14.5z" />
    <glyph glyph-name="Eth" unicode="&#xd0;" horiz-adv-x="834" 
d="M113 0v700h295c74.667 0 140.5 -14.667 197.5 -44s101.333 -70.333 133 -123s47.5 -113.667 47.5 -183s-15.833 -130.333 -47.5 -183s-76 -93.667 -133 -123s-122.833 -44 -197.5 -44h-295zM213 87h189c58 0 108.167 11 150.5 33s75.166 52.833 98.499 92.5
s35 85.5 35 137.5c0 52.667 -11.667 98.667 -35 138s-56.166 70 -98.499 92s-92.5 33 -150.5 33h-189v-526zM10 317v79h400v-79h-400z" />
    <glyph glyph-name="Ntilde" unicode="&#xd1;" horiz-adv-x="812" 
d="M105 0v700h82l463 -575h-43v575h100v-700h-82l-463 575h43v-575h-100zM475 760c-16 0 -30.165 3.33203 -42.498 9.99902s-23.5 14.5 -33.5 23.5s-19.667 16.833 -29 23.5s-18.666 10 -27.999 10c-14.667 0 -26.5 -5.5 -35.5 -16.5s-14.167 -26.167 -15.5 -45.5h-54
c1.33301 37.333 10.666 67 27.999 89s40.666 33 69.999 33c16 0 30.333 -3.5 43 -10.5s24 -15 34 -24s19.5 -16.833 28.5 -23.5s18.167 -10 27.5 -10c14.667 0 26.667 5.33301 36 16s14.333 25.334 15 44.001h54c-0.666992 -35.333 -9.83398 -64 -27.501 -86
s-41.167 -33 -70.5 -33z" />
    <glyph glyph-name="Ograve" unicode="&#xd2;" horiz-adv-x="840" 
d="M421 -8c-53.333 0 -102.832 9.00195 -148.499 27.002s-85.167 43.167 -118.5 75.5s-59.333 70.166 -78 113.499s-28 90.666 -28 141.999s9.33301 98.666 28 141.999s44.667 81.166 78 113.499s72.666 57.5 117.999 75.5s95 27 149 27
c53.333 0 102.5 -8.83301 147.5 -26.5s84.333 -42.667 118 -75s59.667 -70.166 78 -113.499s27.5 -91 27.5 -143s-9.16699 -99.667 -27.5 -143s-44.333 -81.166 -78 -113.499s-73 -57.333 -118 -75s-94.167 -26.5 -147.5 -26.5zM421.001 81.002
c38.667 0 74.5 6.66699 107.5 20s61.667 32.166 86 56.499s43.333 52.833 57 85.5s20.5 68.334 20.5 107.001s-6.83301 74.334 -20.5 107.001s-32.667 61.167 -57 85.5s-53 43.166 -86 56.499s-68.833 20 -107.5 20c-39.333 0 -75.5 -6.66699 -108.5 -20
s-61.833 -32.166 -86.5 -56.499s-43.834 -52.833 -57.501 -85.5s-20.5 -68.334 -20.5 -107.001s6.83301 -74.334 20.5 -107.001s32.834 -61.167 57.501 -85.5s53.5 -43.166 86.5 -56.499s69.167 -20 108.5 -20zM406.001 757.002l-168 130h122l136 -130h-90z" />
    <glyph glyph-name="Oacute" unicode="&#xd3;" horiz-adv-x="840" 
d="M421 -8c-53.333 0 -102.832 9.00195 -148.499 27.002s-85.167 43.167 -118.5 75.5s-59.333 70.166 -78 113.499s-28 90.666 -28 141.999s9.33301 98.666 28 141.999s44.667 81.166 78 113.499s72.666 57.5 117.999 75.5s95 27 149 27
c53.333 0 102.5 -8.83301 147.5 -26.5s84.333 -42.667 118 -75s59.667 -70.166 78 -113.499s27.5 -91 27.5 -143s-9.16699 -99.667 -27.5 -143s-44.333 -81.166 -78 -113.499s-73 -57.333 -118 -75s-94.167 -26.5 -147.5 -26.5zM421.001 81.002
c38.667 0 74.5 6.66699 107.5 20s61.667 32.166 86 56.499s43.333 52.833 57 85.5s20.5 68.334 20.5 107.001s-6.83301 74.334 -20.5 107.001s-32.667 61.167 -57 85.5s-53 43.166 -86 56.499s-68.833 20 -107.5 20c-39.333 0 -75.5 -6.66699 -108.5 -20
s-61.833 -32.166 -86.5 -56.499s-43.834 -52.833 -57.501 -85.5s-20.5 -68.334 -20.5 -107.001s6.83301 -74.334 20.5 -107.001s32.834 -61.167 57.501 -85.5s53.5 -43.166 86.5 -56.499s69.167 -20 108.5 -20zM346.001 757.002l136 130h122l-168 -130h-90z" />
    <glyph glyph-name="Ocircumflex" unicode="&#xd4;" horiz-adv-x="840" 
d="M421 -8c-53.333 0 -102.832 9.00195 -148.499 27.002s-85.167 43.167 -118.5 75.5s-59.333 70.166 -78 113.499s-28 90.666 -28 141.999s9.33301 98.666 28 141.999s44.667 81.166 78 113.499s72.666 57.5 117.999 75.5s95 27 149 27
c53.333 0 102.5 -8.83301 147.5 -26.5s84.333 -42.667 118 -75s59.667 -70.166 78 -113.499s27.5 -91 27.5 -143s-9.16699 -99.667 -27.5 -143s-44.333 -81.166 -78 -113.499s-73 -57.333 -118 -75s-94.167 -26.5 -147.5 -26.5zM421.001 81.002
c38.667 0 74.5 6.66699 107.5 20s61.667 32.166 86 56.499s43.333 52.833 57 85.5s20.5 68.334 20.5 107.001s-6.83301 74.334 -20.5 107.001s-32.667 61.167 -57 85.5s-53 43.166 -86 56.499s-68.833 20 -107.5 20c-39.333 0 -75.5 -6.66699 -108.5 -20
s-61.833 -32.166 -86.5 -56.499s-43.834 -52.833 -57.501 -85.5s-20.5 -68.334 -20.5 -107.001s6.83301 -74.334 20.5 -107.001s32.834 -61.167 57.501 -85.5s53.5 -43.166 86.5 -56.499s69.167 -20 108.5 -20zM242.001 757.002l133 130h92l133 -130h-87l-132 110h80
l-132 -110h-87z" />
    <glyph glyph-name="Otilde" unicode="&#xd5;" horiz-adv-x="840" 
d="M421 -8c-53.333 0 -102.832 9.00195 -148.499 27.002s-85.167 43.167 -118.5 75.5s-59.333 70.166 -78 113.499s-28 90.666 -28 141.999s9.33301 98.666 28 141.999s44.667 81.166 78 113.499s72.666 57.5 117.999 75.5s95 27 149 27
c53.333 0 102.5 -8.83301 147.5 -26.5s84.333 -42.667 118 -75s59.667 -70.166 78 -113.499s27.5 -91 27.5 -143s-9.16699 -99.667 -27.5 -143s-44.333 -81.166 -78 -113.499s-73 -57.333 -118 -75s-94.167 -26.5 -147.5 -26.5zM421.001 81.002
c38.667 0 74.5 6.66699 107.5 20s61.667 32.166 86 56.499s43.333 52.833 57 85.5s20.5 68.334 20.5 107.001s-6.83301 74.334 -20.5 107.001s-32.667 61.167 -57 85.5s-53 43.166 -86 56.499s-68.833 20 -107.5 20c-39.333 0 -75.5 -6.66699 -108.5 -20
s-61.833 -32.166 -86.5 -56.499s-43.834 -52.833 -57.501 -85.5s-20.5 -68.334 -20.5 -107.001s6.83301 -74.334 20.5 -107.001s32.834 -61.167 57.501 -85.5s53.5 -43.166 86.5 -56.499s69.167 -20 108.5 -20zM491.001 760.002c-16 0 -30.165 3.33203 -42.498 9.99902
s-23.5 14.5 -33.5 23.5s-19.667 16.833 -29 23.5s-18.666 10 -27.999 10c-14.667 0 -26.5 -5.5 -35.5 -16.5s-14.167 -26.167 -15.5 -45.5h-54c1.33301 37.333 10.666 67 27.999 89s40.666 33 69.999 33c16 0 30.333 -3.5 43 -10.5s24 -15 34 -24s19.5 -16.833 28.5 -23.5
s18.167 -10 27.5 -10c14.667 0 26.667 5.33301 36 16s14.333 25.334 15 44.001h54c-0.666992 -35.333 -9.83398 -64 -27.501 -86s-41.167 -33 -70.5 -33z" />
    <glyph glyph-name="Odieresis" unicode="&#xd6;" horiz-adv-x="840" 
d="M421 -8c-53.333 0 -102.832 9.00195 -148.499 27.002s-85.167 43.167 -118.5 75.5s-59.333 70.166 -78 113.499s-28 90.666 -28 141.999s9.33301 98.666 28 141.999s44.667 81.166 78 113.499s72.666 57.5 117.999 75.5s95 27 149 27
c53.333 0 102.5 -8.83301 147.5 -26.5s84.333 -42.667 118 -75s59.667 -70.166 78 -113.499s27.5 -91 27.5 -143s-9.16699 -99.667 -27.5 -143s-44.333 -81.166 -78 -113.499s-73 -57.333 -118 -75s-94.167 -26.5 -147.5 -26.5zM421.001 81.002
c38.667 0 74.5 6.66699 107.5 20s61.667 32.166 86 56.499s43.333 52.833 57 85.5s20.5 68.334 20.5 107.001s-6.83301 74.334 -20.5 107.001s-32.667 61.167 -57 85.5s-53 43.166 -86 56.499s-68.833 20 -107.5 20c-39.333 0 -75.5 -6.66699 -108.5 -20
s-61.833 -32.166 -86.5 -56.499s-43.834 -52.833 -57.501 -85.5s-20.5 -68.334 -20.5 -107.001s6.83301 -74.334 20.5 -107.001s32.834 -61.167 57.501 -85.5s53.5 -43.166 86.5 -56.499s69.167 -20 108.5 -20zM514.001 774.002c-14 0 -26 4.83301 -36 14.5
s-15 21.834 -15 36.501c0 15.333 5 27.833 15 37.5s22 14.5 36 14.5s26 -4.83301 36 -14.5s15 -22.167 15 -37.5c0 -14.667 -5 -26.834 -15 -36.501s-22 -14.5 -36 -14.5zM328.001 774.002c-14 0 -26 4.83301 -36 14.5s-15 21.834 -15 36.501c0 15.333 5 27.833 15 37.5
s22 14.5 36 14.5s26 -4.83301 36 -14.5s15 -22.167 15 -37.5c0 -14.667 -5 -26.834 -15 -36.501s-22 -14.5 -36 -14.5z" />
    <glyph glyph-name="multiply" unicode="&#xd7;" horiz-adv-x="582" 
d="M107 220l315 318l54 -58l-316 -318zM107 480l53 58l316 -318l-54 -58z" />
    <glyph glyph-name="Oslash" unicode="&#xd8;" horiz-adv-x="840" 
d="M421 -8c-53.333 0 -102.832 9.00195 -148.499 27.002s-85.167 43.167 -118.5 75.5s-59.333 70.166 -78 113.499s-28 90.666 -28 141.999s9.33301 98.666 28 141.999s44.667 81.166 78 113.499s72.666 57.5 117.999 75.5s95 27 149 27
c53.333 0 102.5 -8.83301 147.5 -26.5s84.333 -42.667 118 -75s59.667 -70.166 78 -113.499s27.5 -91 27.5 -143s-9.16699 -99.667 -27.5 -143s-44.333 -81.166 -78 -113.499s-73 -57.333 -118 -75s-94.167 -26.5 -147.5 -26.5zM421.001 81.002
c38.667 0 74.5 6.66699 107.5 20s61.667 32.166 86 56.499s43.333 52.833 57 85.5s20.5 68.334 20.5 107.001s-6.83301 74.334 -20.5 107.001s-32.667 61.167 -57 85.5s-53 43.166 -86 56.499s-68.833 20 -107.5 20c-39.333 0 -75.5 -6.66699 -108.5 -20
s-61.833 -32.166 -86.5 -56.499s-43.834 -52.833 -57.501 -85.5s-20.5 -68.334 -20.5 -107.001s6.83301 -74.334 20.5 -107.001s32.834 -61.167 57.501 -85.5s53.5 -43.166 86.5 -56.499s69.167 -20 108.5 -20zM81.001 -69.998l602 840h78l-602 -840h-78z" />
    <glyph glyph-name="Ugrave" unicode="&#xd9;" horiz-adv-x="791" 
d="M395 -8c-92 0 -164.332 26.333 -216.999 79s-79 129.667 -79 231v398h100v-394c0 -78 17.167 -135 51.5 -171s82.833 -54 145.5 -54c63.333 0 112.166 18 146.499 54s51.5 93 51.5 171v394h97v-398c0 -101.333 -26.167 -178.333 -78.5 -231s-124.833 -79 -217.5 -79z
M381.001 757l-168 130h122l136 -130h-90z" />
    <glyph glyph-name="Uacute" unicode="&#xda;" horiz-adv-x="791" 
d="M395 -8c-92 0 -164.332 26.333 -216.999 79s-79 129.667 -79 231v398h100v-394c0 -78 17.167 -135 51.5 -171s82.833 -54 145.5 -54c63.333 0 112.166 18 146.499 54s51.5 93 51.5 171v394h97v-398c0 -101.333 -26.167 -178.333 -78.5 -231s-124.833 -79 -217.5 -79z
M321.001 757l136 130h122l-168 -130h-90z" />
    <glyph glyph-name="Ucircumflex" unicode="&#xdb;" horiz-adv-x="791" 
d="M395 -8c-92 0 -164.332 26.333 -216.999 79s-79 129.667 -79 231v398h100v-394c0 -78 17.167 -135 51.5 -171s82.833 -54 145.5 -54c63.333 0 112.166 18 146.499 54s51.5 93 51.5 171v394h97v-398c0 -101.333 -26.167 -178.333 -78.5 -231s-124.833 -79 -217.5 -79z
M217.001 757l133 130h92l133 -130h-87l-132 110h80l-132 -110h-87z" />
    <glyph glyph-name="Udieresis" unicode="&#xdc;" horiz-adv-x="791" 
d="M395 -8c-92 0 -164.332 26.333 -216.999 79s-79 129.667 -79 231v398h100v-394c0 -78 17.167 -135 51.5 -171s82.833 -54 145.5 -54c63.333 0 112.166 18 146.499 54s51.5 93 51.5 171v394h97v-398c0 -101.333 -26.167 -178.333 -78.5 -231s-124.833 -79 -217.5 -79z
M489.001 774c-14 0 -26 4.83301 -36 14.5s-15 21.834 -15 36.501c0 15.333 5 27.833 15 37.5s22 14.5 36 14.5s26 -4.83301 36 -14.5s15 -22.167 15 -37.5c0 -14.667 -5 -26.834 -15 -36.501s-22 -14.5 -36 -14.5zM303.001 774c-14 0 -26 4.83301 -36 14.5
s-15 21.834 -15 36.501c0 15.333 5 27.833 15 37.5s22 14.5 36 14.5s26 -4.83301 36 -14.5s15 -22.167 15 -37.5c0 -14.667 -5 -26.834 -15 -36.501s-22 -14.5 -36 -14.5z" />
    <glyph glyph-name="Yacute" unicode="&#xdd;" horiz-adv-x="647" 
d="M274 0v268l23 -62l-301 494h107l253 -417h-58l254 417h99l-300 -494l22 62v-268h-99zM249 757l136 130h122l-168 -130h-90z" />
    <glyph glyph-name="Thorn" unicode="&#xde;" horiz-adv-x="722" 
d="M181 125v86h194c64 0 112.5 13.833 145.5 41.5s49.5 66.5 49.5 116.5c0 50.667 -16.5 89.667 -49.5 117s-81.5 41 -145.5 41h-194v87h197c61.333 0 113.666 -9.83301 156.999 -29.5s76.666 -47.667 99.999 -84s35 -79.833 35 -130.5s-11.667 -94.5 -35 -131.5
s-56.666 -65.167 -99.999 -84.5s-95.666 -29 -156.999 -29h-197zM105 0v700h100v-700h-100z" />
    <glyph glyph-name="germandbls" unicode="&#xdf;" horiz-adv-x="676" 
d="M392 -6c-20 0 -40.165 1.33008 -60.498 3.99707s-38.5 6.66699 -54.5 12l15 81c13.333 -4.66699 27.5 -8 42.5 -10s32.833 -3 53.5 -3c30 0 56 4.83301 78 14.5s39.333 24 52 43s19 41.833 19 68.5c0 40.667 -14.833 71.834 -44.5 93.501s-68.167 32.5 -115.5 32.5h-57
v81c50.667 0.666992 90.167 13.167 118.5 37.5s42.5 56.833 42.5 97.5c0 35.333 -12 63.833 -36 85.5s-58.333 32.5 -103 32.5c-48 0 -85.833 -13.667 -113.5 -41s-41.5 -67.666 -41.5 -120.999v-502h-96v494c0 56 11 102.833 33 140.5s51.833 66 89.5 85
s80.5 28.5 128.5 28.5s89.333 -8.66699 124 -26s61.334 -41 80.001 -71s28 -63.667 28 -101c0 -30.667 -5.83301 -57.667 -17.5 -81s-26.834 -43.166 -45.501 -59.499s-39.167 -28.833 -61.5 -37.5s-44.5 -13 -66.5 -13l30 38c41.333 0 78.666 -7.66699 111.999 -23
s59.666 -37.5 78.999 -66.5s29 -64.167 29 -105.5c0 -44 -10.333 -81.5 -31 -112.5s-49.167 -54.667 -85.5 -71s-77.833 -24.5 -124.5 -24.5z" />
    <glyph glyph-name="agrave" unicode="&#xe0;" horiz-adv-x="598" 
d="M420 0l0.000976562 111.999l-5 21v191c0 40.667 -11.833 72.167 -35.5 94.5s-59.167 33.5 -106.5 33.5c-31.333 0 -62 -5.16699 -92 -15.5s-55.333 -24.166 -76 -41.499l-40 72c27.333 22 60.166 38.833 98.499 50.5s78.5 17.5 120.5 17.5
c72.667 0 128.667 -17.667 168 -53s59 -89.333 59 -162v-320h-91zM246.001 -6.00098c-39.333 0 -73.834 6.66602 -103.501 19.999s-52.5 31.833 -68.5 55.5s-24 50.5 -24 80.5c0 28.667 6.83301 54.667 20.5 78s36 42 67 56s72.833 21 125.5 21h168v-69h-164
c-48 0 -80.333 -8 -97 -24s-25 -35.333 -25 -58c0 -26 10.333 -46.833 31 -62.5s49.334 -23.5 86.001 -23.5c36 0 67.5 8 94.5 24s46.5 39.333 58.5 70l19 -66c-12.667 -31.333 -35 -56.166 -67 -74.499s-72.333 -27.5 -121 -27.5zM276 606.998l-168 130h122l136 -130h-90z
" />
    <glyph glyph-name="aacute" unicode="&#xe1;" horiz-adv-x="598" 
d="M420 0l0.000976562 111.999l-5 21v191c0 40.667 -11.833 72.167 -35.5 94.5s-59.167 33.5 -106.5 33.5c-31.333 0 -62 -5.16699 -92 -15.5s-55.333 -24.166 -76 -41.499l-40 72c27.333 22 60.166 38.833 98.499 50.5s78.5 17.5 120.5 17.5
c72.667 0 128.667 -17.667 168 -53s59 -89.333 59 -162v-320h-91zM246.001 -6.00098c-39.333 0 -73.834 6.66602 -103.501 19.999s-52.5 31.833 -68.5 55.5s-24 50.5 -24 80.5c0 28.667 6.83301 54.667 20.5 78s36 42 67 56s72.833 21 125.5 21h168v-69h-164
c-48 0 -80.333 -8 -97 -24s-25 -35.333 -25 -58c0 -26 10.333 -46.833 31 -62.5s49.334 -23.5 86.001 -23.5c36 0 67.5 8 94.5 24s46.5 39.333 58.5 70l19 -66c-12.667 -31.333 -35 -56.166 -67 -74.499s-72.333 -27.5 -121 -27.5zM216 606.998l136 130h122l-168 -130h-90z
" />
    <glyph glyph-name="acircumflex" unicode="&#xe2;" horiz-adv-x="598" 
d="M420 0l0.000976562 111.999l-5 21v191c0 40.667 -11.833 72.167 -35.5 94.5s-59.167 33.5 -106.5 33.5c-31.333 0 -62 -5.16699 -92 -15.5s-55.333 -24.166 -76 -41.499l-40 72c27.333 22 60.166 38.833 98.499 50.5s78.5 17.5 120.5 17.5
c72.667 0 128.667 -17.667 168 -53s59 -89.333 59 -162v-320h-91zM246.001 -6.00098c-39.333 0 -73.834 6.66602 -103.501 19.999s-52.5 31.833 -68.5 55.5s-24 50.5 -24 80.5c0 28.667 6.83301 54.667 20.5 78s36 42 67 56s72.833 21 125.5 21h168v-69h-164
c-48 0 -80.333 -8 -97 -24s-25 -35.333 -25 -58c0 -26 10.333 -46.833 31 -62.5s49.334 -23.5 86.001 -23.5c36 0 67.5 8 94.5 24s46.5 39.333 58.5 70l19 -66c-12.667 -31.333 -35 -56.166 -67 -74.499s-72.333 -27.5 -121 -27.5zM112 606.998l133 130h92l133 -130h-87
l-132 110h80l-132 -110h-87z" />
    <glyph glyph-name="atilde" unicode="&#xe3;" horiz-adv-x="598" 
d="M420 0l0.000976562 111.999l-5 21v191c0 40.667 -11.833 72.167 -35.5 94.5s-59.167 33.5 -106.5 33.5c-31.333 0 -62 -5.16699 -92 -15.5s-55.333 -24.166 -76 -41.499l-40 72c27.333 22 60.166 38.833 98.499 50.5s78.5 17.5 120.5 17.5
c72.667 0 128.667 -17.667 168 -53s59 -89.333 59 -162v-320h-91zM246.001 -6.00098c-39.333 0 -73.834 6.66602 -103.501 19.999s-52.5 31.833 -68.5 55.5s-24 50.5 -24 80.5c0 28.667 6.83301 54.667 20.5 78s36 42 67 56s72.833 21 125.5 21h168v-69h-164
c-48 0 -80.333 -8 -97 -24s-25 -35.333 -25 -58c0 -26 10.333 -46.833 31 -62.5s49.334 -23.5 86.001 -23.5c36 0 67.5 8 94.5 24s46.5 39.333 58.5 70l19 -66c-12.667 -31.333 -35 -56.166 -67 -74.499s-72.333 -27.5 -121 -27.5zM361 609.998
c-16 0 -30.165 3.33203 -42.498 9.99902s-23.5 14.5 -33.5 23.5s-19.667 16.833 -29 23.5s-18.666 10 -27.999 10c-14.667 0 -26.5 -5.5 -35.5 -16.5s-14.167 -26.167 -15.5 -45.5h-54c1.33301 37.333 10.666 67 27.999 89s40.666 33 69.999 33c16 0 30.333 -3.5 43 -10.5
s24 -15 34 -24s19.5 -16.833 28.5 -23.5s18.167 -10 27.5 -10c14.667 0 26.667 5.33301 36 16s14.333 25.334 15 44.001h54c-0.666992 -35.333 -9.83398 -64 -27.501 -86s-41.167 -33 -70.5 -33z" />
    <glyph glyph-name="adieresis" unicode="&#xe4;" horiz-adv-x="598" 
d="M420 0l0.000976562 111.999l-5 21v191c0 40.667 -11.833 72.167 -35.5 94.5s-59.167 33.5 -106.5 33.5c-31.333 0 -62 -5.16699 -92 -15.5s-55.333 -24.166 -76 -41.499l-40 72c27.333 22 60.166 38.833 98.499 50.5s78.5 17.5 120.5 17.5
c72.667 0 128.667 -17.667 168 -53s59 -89.333 59 -162v-320h-91zM246.001 -6.00098c-39.333 0 -73.834 6.66602 -103.501 19.999s-52.5 31.833 -68.5 55.5s-24 50.5 -24 80.5c0 28.667 6.83301 54.667 20.5 78s36 42 67 56s72.833 21 125.5 21h168v-69h-164
c-48 0 -80.333 -8 -97 -24s-25 -35.333 -25 -58c0 -26 10.333 -46.833 31 -62.5s49.334 -23.5 86.001 -23.5c36 0 67.5 8 94.5 24s46.5 39.333 58.5 70l19 -66c-12.667 -31.333 -35 -56.166 -67 -74.499s-72.333 -27.5 -121 -27.5zM384 623.998c-14 0 -26 4.83301 -36 14.5
s-15 21.834 -15 36.501c0 15.333 5 27.833 15 37.5s22 14.5 36 14.5s26 -4.83301 36 -14.5s15 -22.167 15 -37.5c0 -14.667 -5 -26.834 -15 -36.501s-22 -14.5 -36 -14.5zM198 623.998c-14 0 -26 4.83301 -36 14.5s-15 21.834 -15 36.501c0 15.333 5 27.833 15 37.5
s22 14.5 36 14.5s26 -4.83301 36 -14.5s15 -22.167 15 -37.5c0 -14.667 -5 -26.834 -15 -36.501s-22 -14.5 -36 -14.5z" />
    <glyph glyph-name="aring" unicode="&#xe5;" horiz-adv-x="598" 
d="M420 0l0.000976562 111.999l-5 21v191c0 40.667 -11.833 72.167 -35.5 94.5s-59.167 33.5 -106.5 33.5c-31.333 0 -62 -5.16699 -92 -15.5s-55.333 -24.166 -76 -41.499l-40 72c27.333 22 60.166 38.833 98.499 50.5s78.5 17.5 120.5 17.5
c72.667 0 128.667 -17.667 168 -53s59 -89.333 59 -162v-320h-91zM246.001 -6.00098c-39.333 0 -73.834 6.66602 -103.501 19.999s-52.5 31.833 -68.5 55.5s-24 50.5 -24 80.5c0 28.667 6.83301 54.667 20.5 78s36 42 67 56s72.833 21 125.5 21h168v-69h-164
c-48 0 -80.333 -8 -97 -24s-25 -35.333 -25 -58c0 -26 10.333 -46.833 31 -62.5s49.334 -23.5 86.001 -23.5c36 0 67.5 8 94.5 24s46.5 39.333 58.5 70l19 -66c-12.667 -31.333 -35 -56.166 -67 -74.499s-72.333 -27.5 -121 -27.5zM290 593.998
c-20.667 0 -39.334 5 -56.001 15s-29.834 23 -39.501 39s-14.5 34 -14.5 54s4.83301 38.333 14.5 55s22.834 30 39.501 40s35.334 15 56.001 15c21.333 0 40.333 -5 57 -15s29.834 -23.333 39.501 -40s14.5 -35 14.5 -55s-4.83301 -38 -14.5 -54s-22.834 -29 -39.501 -39
s-35.667 -15 -57 -15zM290 635.998c19.333 0 35.166 6.33301 47.499 19s18.5 28.334 18.5 47.001c0 19.333 -6.16699 35.333 -18.5 48s-28.166 19 -47.499 19c-18.667 0 -34.167 -6.16699 -46.5 -18.5s-18.5 -28.5 -18.5 -48.5c0 -18.667 6 -34.334 18 -47.001
s27.667 -19 47 -19z" />
    <glyph glyph-name="ae" unicode="&#xe6;" horiz-adv-x="989" 
d="M256 -6c-64.667 0 -115.163 14.8291 -151.496 44.4961s-54.5 68.167 -54.5 115.5c0 26.667 6.83301 51.334 20.5 74.001s36 41 67 55s72.833 21 125.5 21h167v-69h-163c-47.333 0 -79.5 -7.83301 -96.5 -23.5s-25.5 -34.167 -25.5 -55.5
c0 -27.333 10.5 -48.833 31.5 -64.5s50.167 -23.5 87.5 -23.5c47.333 0 84.333 12.167 111 36.5s40 56.5 40 96.5v123c0 40.667 -11.833 72.167 -35.5 94.5s-58.834 33.5 -105.501 33.5c-32 0 -63 -5.16699 -93 -15.5s-55.333 -24.166 -76 -41.499l-40 72
c27.333 22 60.166 38.833 98.499 50.5s78.166 17.5 119.499 17.5c61.333 0 110 -12.167 146 -36.5s59 -60.166 69 -107.499l-46 6c20.667 42.667 51.167 76.334 91.5 101.001s86.833 37 139.5 37c38 0 73.167 -6.5 105.5 -19.5s60.333 -31.5 84 -55.5s42 -52.333 55 -85
s19.5 -68.334 19.5 -107.001c0 -6.66699 -0.166992 -12.667 -0.5 -18s-1.16602 -10.333 -2.49902 -15h-452v69h402l-40 -26c0 38 -8 70 -24 96s-37.167 45.833 -63.5 59.5s-54.5 20.5 -84.5 20.5c-28.667 0 -56.167 -6.83301 -82.5 -20.5s-47.666 -33.667 -63.999 -60
s-24.5 -58.833 -24.5 -97.5v-16c0 -35.333 8 -66.833 24 -94.5s38.5 -49.167 67.5 -64.5s62.833 -23 101.5 -23c31.333 0 59.666 5.33301 84.999 16s48 26.667 68 48l54 -62c-24.667 -28.667 -54.834 -50.167 -90.501 -64.5s-75.5 -21.5 -119.5 -21.5
c-40.667 0 -79 6.33301 -115 19s-67.333 32.334 -94 59.001s-47.334 61 -62.001 103l62 -2c-8 -44.667 -24.167 -80.167 -48.5 -106.5s-53 -45 -86 -56s-66.833 -16.5 -101.5 -16.5z" />
    <glyph glyph-name="ccedilla" unicode="&#xe7;" horiz-adv-x="571" 
d="M322 -6c-54 0 -102.167 11.666 -144.5 34.999s-75.5 55.333 -99.5 96s-36 87.334 -36 140.001s12 99.334 36 140.001s57.167 72.5 99.5 95.5s90.5 34.5 144.5 34.5c48 0 90.833 -9.5 128.5 -28.5s66.834 -47.167 87.501 -84.5l-73 -47
c-17.333 26 -38.5 45.167 -63.5 57.5s-51.833 18.5 -80.5 18.5c-34.667 0 -65.667 -7.66699 -93 -23s-49 -36.833 -65 -64.5s-24 -60.5 -24 -98.5s8 -71 24 -99s37.667 -49.667 65 -65s58.333 -23 93 -23c28.667 0 55.5 6.16699 80.5 18.5s46.167 31.5 63.5 57.5l73 -46
c-20.667 -36.667 -49.834 -64.834 -87.501 -84.501s-80.5 -29.5 -128.5 -29.5zM275 -224.001c-17.333 0 -33.333 1.83301 -48 5.5s-28.334 9.16699 -41.001 16.5l21 49c10.667 -6 21.5 -10.333 32.5 -13s22.833 -4 35.5 -4c19.333 0 33.5 3.5 42.5 10.5
s13.5 16.833 13.5 29.5c0 12 -4.5 21.5 -13.5 28.5s-23.5 10.5 -43.5 10.5h-27l25 98h55l-15 -57c28.667 -2.66699 50.334 -11.667 65.001 -27s22 -34 22 -56c0 -28 -11.333 -50.167 -34 -66.5s-52.667 -24.5 -90 -24.5z" />
    <glyph glyph-name="egrave" unicode="&#xe8;" horiz-adv-x="612" 
d="M327 -6c-56.667 0 -106.496 11.665 -149.496 34.998s-76.333 55.333 -100 96s-35.5 87.334 -35.5 140.001s11.5 99.334 34.5 140.001s54.667 72.5 95 95.5s85.833 34.5 136.5 34.5c51.333 0 96.666 -11.333 135.999 -34s70.166 -54.5 92.499 -95.5
s33.5 -88.833 33.5 -143.5c0 -4 -0.166992 -8.66699 -0.5 -14s-0.833008 -10.333 -1.5 -15h-451v69h401l-39 -24c0.666992 34 -6.33301 64.333 -21 91s-34.834 47.5 -60.501 62.5s-55.5 22.5 -89.5 22.5c-33.333 0 -63 -7.5 -89 -22.5s-46.333 -36 -61 -63
s-22 -57.833 -22 -92.5v-16c0 -35.333 8.16699 -66.833 24.5 -94.5s39.166 -49.167 68.499 -64.5s63 -23 101 -23c31.333 0 59.833 5.33301 85.5 16s48.167 26.667 67.5 48l53 -62c-24 -28 -53.833 -49.333 -89.5 -64s-75.5 -22 -119.5 -22zM292.004 606.998l-168 130h122
l136 -130h-90z" />
    <glyph glyph-name="eacute" unicode="&#xe9;" horiz-adv-x="612" 
d="M327 -6c-56.667 0 -106.496 11.665 -149.496 34.998s-76.333 55.333 -100 96s-35.5 87.334 -35.5 140.001s11.5 99.334 34.5 140.001s54.667 72.5 95 95.5s85.833 34.5 136.5 34.5c51.333 0 96.666 -11.333 135.999 -34s70.166 -54.5 92.499 -95.5
s33.5 -88.833 33.5 -143.5c0 -4 -0.166992 -8.66699 -0.5 -14s-0.833008 -10.333 -1.5 -15h-451v69h401l-39 -24c0.666992 34 -6.33301 64.333 -21 91s-34.834 47.5 -60.501 62.5s-55.5 22.5 -89.5 22.5c-33.333 0 -63 -7.5 -89 -22.5s-46.333 -36 -61 -63
s-22 -57.833 -22 -92.5v-16c0 -35.333 8.16699 -66.833 24.5 -94.5s39.166 -49.167 68.499 -64.5s63 -23 101 -23c31.333 0 59.833 5.33301 85.5 16s48.167 26.667 67.5 48l53 -62c-24 -28 -53.833 -49.333 -89.5 -64s-75.5 -22 -119.5 -22zM232.004 606.998l136 130h122
l-168 -130h-90z" />
    <glyph glyph-name="ecircumflex" unicode="&#xea;" horiz-adv-x="612" 
d="M327 -6c-56.667 0 -106.496 11.665 -149.496 34.998s-76.333 55.333 -100 96s-35.5 87.334 -35.5 140.001s11.5 99.334 34.5 140.001s54.667 72.5 95 95.5s85.833 34.5 136.5 34.5c51.333 0 96.666 -11.333 135.999 -34s70.166 -54.5 92.499 -95.5
s33.5 -88.833 33.5 -143.5c0 -4 -0.166992 -8.66699 -0.5 -14s-0.833008 -10.333 -1.5 -15h-451v69h401l-39 -24c0.666992 34 -6.33301 64.333 -21 91s-34.834 47.5 -60.501 62.5s-55.5 22.5 -89.5 22.5c-33.333 0 -63 -7.5 -89 -22.5s-46.333 -36 -61 -63
s-22 -57.833 -22 -92.5v-16c0 -35.333 8.16699 -66.833 24.5 -94.5s39.166 -49.167 68.499 -64.5s63 -23 101 -23c31.333 0 59.833 5.33301 85.5 16s48.167 26.667 67.5 48l53 -62c-24 -28 -53.833 -49.333 -89.5 -64s-75.5 -22 -119.5 -22zM128.004 606.998l133 130h92
l133 -130h-87l-132 110h80l-132 -110h-87z" />
    <glyph glyph-name="edieresis" unicode="&#xeb;" horiz-adv-x="612" 
d="M327 -6c-56.667 0 -106.496 11.665 -149.496 34.998s-76.333 55.333 -100 96s-35.5 87.334 -35.5 140.001s11.5 99.334 34.5 140.001s54.667 72.5 95 95.5s85.833 34.5 136.5 34.5c51.333 0 96.666 -11.333 135.999 -34s70.166 -54.5 92.499 -95.5
s33.5 -88.833 33.5 -143.5c0 -4 -0.166992 -8.66699 -0.5 -14s-0.833008 -10.333 -1.5 -15h-451v69h401l-39 -24c0.666992 34 -6.33301 64.333 -21 91s-34.834 47.5 -60.501 62.5s-55.5 22.5 -89.5 22.5c-33.333 0 -63 -7.5 -89 -22.5s-46.333 -36 -61 -63
s-22 -57.833 -22 -92.5v-16c0 -35.333 8.16699 -66.833 24.5 -94.5s39.166 -49.167 68.499 -64.5s63 -23 101 -23c31.333 0 59.833 5.33301 85.5 16s48.167 26.667 67.5 48l53 -62c-24 -28 -53.833 -49.333 -89.5 -64s-75.5 -22 -119.5 -22zM400.004 623.998
c-14 0 -26 4.83301 -36 14.5s-15 21.834 -15 36.501c0 15.333 5 27.833 15 37.5s22 14.5 36 14.5s26 -4.83301 36 -14.5s15 -22.167 15 -37.5c0 -14.667 -5 -26.834 -15 -36.501s-22 -14.5 -36 -14.5zM214.004 623.998c-14 0 -26 4.83301 -36 14.5s-15 21.834 -15 36.501
c0 15.333 5 27.833 15 37.5s22 14.5 36 14.5s26 -4.83301 36 -14.5s15 -22.167 15 -37.5c0 -14.667 -5 -26.834 -15 -36.501s-22 -14.5 -36 -14.5z" />
    <glyph glyph-name="igrave" unicode="&#xec;" horiz-adv-x="279" 
d="M91 0v530h96v-530h-96zM124 607l-168 130h122l136 -130h-90z" />
    <glyph glyph-name="iacute" unicode="&#xed;" horiz-adv-x="279" 
d="M91 0v530h96v-530h-96zM64 607l136 130h122l-168 -130h-90z" />
    <glyph glyph-name="icircumflex" unicode="&#xee;" horiz-adv-x="279" 
d="M91 0v530h96v-530h-96zM-15 607l109 130h90l109 -130h-82l-107 110h70l-107 -110h-82z" />
    <glyph glyph-name="idieresis" unicode="&#xef;" horiz-adv-x="279" 
d="M91 0v530h96v-530h-96zM210 625c-14 0 -25.667 4.83301 -35 14.5s-14 21.5 -14 35.5c0 14.667 4.66699 26.834 14 36.501s21 14.5 35 14.5s25.833 -4.83301 35.5 -14.5s14.5 -21.834 14.5 -36.501c0 -14 -4.83301 -25.833 -14.5 -35.5s-21.5 -14.5 -35.5 -14.5zM68 625
c-14 0 -25.833 4.83301 -35.5 14.5s-14.5 21.5 -14.5 35.5c0 14.667 4.83301 26.834 14.5 36.501s21.5 14.5 35.5 14.5s25.667 -4.83301 35 -14.5s14 -21.834 14 -36.501c0 -14 -4.66699 -25.833 -14 -35.5s-21 -14.5 -35 -14.5z" />
    <glyph glyph-name="eth" unicode="&#xf0;" horiz-adv-x="640" 
d="M294 -8c-47.333 0 -90.001 9.17383 -128.001 27.5068s-68.167 44.166 -90.5 77.499s-33.5 73 -33.5 119c0 45.333 11.167 84.666 33.5 117.999s52.666 59.166 90.999 77.499s81.833 27.5 130.5 27.5c38.667 0 73.667 -6.83301 105 -20.5s57.833 -33.334 79.5 -59.001
s36.5 -57.167 44.5 -94.5l-37 -14c4.66699 18.667 7.83398 38 9.50098 58s2.5 39 2.5 57c0 62 -10.167 113.667 -30.5 155s-49.166 72.333 -86.499 93s-81.666 31 -132.999 31c-28.667 0 -55.167 -2.16699 -79.5 -6.5s-46.166 -9.83301 -65.499 -16.5l-16 82
c21.333 6.66699 45.666 12 72.999 16s56.666 6 87.999 6c70 0 130.833 -14.333 182.5 -43s92 -71.334 121 -128.001s43.5 -126.667 43.5 -210c0 -72.667 -12 -135.334 -36 -188.001s-58.333 -93.334 -103 -122.001s-99.667 -43 -165 -43zM300.999 73.0068
c36.667 0 67.834 6.83008 93.501 20.4971s45.167 31.334 58.5 53.001s20 44.834 20 69.501c0 26.667 -7.16699 50.834 -21.5 72.501s-33.833 38.667 -58.5 51s-53.334 18.5 -86.001 18.5c-52 0 -93 -13 -123 -39s-45 -60.333 -45 -103c0 -28.667 6.83301 -53.667 20.5 -75
s32.667 -38 57 -50s52.5 -18 84.5 -18zM153.999 480.004l-26 63l411 166l26 -64z" />
    <glyph glyph-name="ntilde" unicode="&#xf1;" horiz-adv-x="681" 
d="M374 535c43.333 0 81.5 -8.33301 114.5 -25s58.833 -42 77.5 -76s28 -77 28 -129v-305h-96v294c0 51.333 -12.5 90 -37.5 116s-60.167 39 -105.5 39c-34 0 -63.667 -6.66699 -89 -20s-44.833 -33 -58.5 -59s-20.5 -58.333 -20.5 -97v-273h-96v530h92v-143l-15 38
c17.333 34.667 44 61.667 80 81s78 29 126 29zM413 610c-16 0 -30.165 3.33203 -42.498 9.99902s-23.5 14.5 -33.5 23.5s-19.667 16.833 -29 23.5s-18.666 10 -27.999 10c-14.667 0 -26.5 -5.5 -35.5 -16.5s-14.167 -26.167 -15.5 -45.5h-54
c1.33301 37.333 10.666 67 27.999 89s40.666 33 69.999 33c16 0 30.333 -3.5 43 -10.5s24 -15 34 -24s19.5 -16.833 28.5 -23.5s18.167 -10 27.5 -10c14.667 0 26.667 5.33301 36 16s14.333 25.334 15 44.001h54c-0.666992 -35.333 -9.83398 -64 -27.501 -86
s-41.167 -33 -70.5 -33z" />
    <glyph glyph-name="ograve" unicode="&#xf2;" horiz-adv-x="635" 
d="M318 -6c-53.333 0 -100.666 11.666 -141.999 34.999s-74 55.5 -98 96.5s-36 87.5 -36 139.5c0 52.667 12 99.334 36 140.001s56.667 72.5 98 95.5s88.666 34.5 141.999 34.5c52.667 0 99.834 -11.5 141.501 -34.5s74.334 -54.667 98.001 -95s35.5 -87.166 35.5 -140.499
c0 -52.667 -11.833 -99.334 -35.5 -140.001s-56.334 -72.667 -98.001 -96s-88.834 -35 -141.501 -35zM318 77.999c34 0 64.5 7.66699 91.5 23s48.167 37.166 63.5 65.499s23 61.166 23 98.499c0 38 -7.66699 70.833 -23 98.5s-36.5 49.167 -63.5 64.5s-57.5 23 -91.5 23
s-64.333 -7.66699 -91 -23s-48 -36.833 -64 -64.5s-24 -60.5 -24 -98.5c0 -37.333 8 -70.166 24 -98.499s37.333 -50.166 64 -65.499s57 -23 91 -23zM302 606.999l-168 130h122l136 -130h-90z" />
    <glyph glyph-name="oacute" unicode="&#xf3;" horiz-adv-x="635" 
d="M318 -6c-53.333 0 -100.666 11.666 -141.999 34.999s-74 55.5 -98 96.5s-36 87.5 -36 139.5c0 52.667 12 99.334 36 140.001s56.667 72.5 98 95.5s88.666 34.5 141.999 34.5c52.667 0 99.834 -11.5 141.501 -34.5s74.334 -54.667 98.001 -95s35.5 -87.166 35.5 -140.499
c0 -52.667 -11.833 -99.334 -35.5 -140.001s-56.334 -72.667 -98.001 -96s-88.834 -35 -141.501 -35zM318 77.999c34 0 64.5 7.66699 91.5 23s48.167 37.166 63.5 65.499s23 61.166 23 98.499c0 38 -7.66699 70.833 -23 98.5s-36.5 49.167 -63.5 64.5s-57.5 23 -91.5 23
s-64.333 -7.66699 -91 -23s-48 -36.833 -64 -64.5s-24 -60.5 -24 -98.5c0 -37.333 8 -70.166 24 -98.499s37.333 -50.166 64 -65.499s57 -23 91 -23zM242 606.999l136 130h122l-168 -130h-90z" />
    <glyph glyph-name="ocircumflex" unicode="&#xf4;" horiz-adv-x="635" 
d="M318 -6c-53.333 0 -100.666 11.666 -141.999 34.999s-74 55.5 -98 96.5s-36 87.5 -36 139.5c0 52.667 12 99.334 36 140.001s56.667 72.5 98 95.5s88.666 34.5 141.999 34.5c52.667 0 99.834 -11.5 141.501 -34.5s74.334 -54.667 98.001 -95s35.5 -87.166 35.5 -140.499
c0 -52.667 -11.833 -99.334 -35.5 -140.001s-56.334 -72.667 -98.001 -96s-88.834 -35 -141.501 -35zM318 77.999c34 0 64.5 7.66699 91.5 23s48.167 37.166 63.5 65.499s23 61.166 23 98.499c0 38 -7.66699 70.833 -23 98.5s-36.5 49.167 -63.5 64.5s-57.5 23 -91.5 23
s-64.333 -7.66699 -91 -23s-48 -36.833 -64 -64.5s-24 -60.5 -24 -98.5c0 -37.333 8 -70.166 24 -98.499s37.333 -50.166 64 -65.499s57 -23 91 -23zM138 606.999l133 130h92l133 -130h-87l-132 110h80l-132 -110h-87z" />
    <glyph glyph-name="otilde" unicode="&#xf5;" horiz-adv-x="635" 
d="M318 -6c-53.333 0 -100.666 11.666 -141.999 34.999s-74 55.5 -98 96.5s-36 87.5 -36 139.5c0 52.667 12 99.334 36 140.001s56.667 72.5 98 95.5s88.666 34.5 141.999 34.5c52.667 0 99.834 -11.5 141.501 -34.5s74.334 -54.667 98.001 -95s35.5 -87.166 35.5 -140.499
c0 -52.667 -11.833 -99.334 -35.5 -140.001s-56.334 -72.667 -98.001 -96s-88.834 -35 -141.501 -35zM318 77.999c34 0 64.5 7.66699 91.5 23s48.167 37.166 63.5 65.499s23 61.166 23 98.499c0 38 -7.66699 70.833 -23 98.5s-36.5 49.167 -63.5 64.5s-57.5 23 -91.5 23
s-64.333 -7.66699 -91 -23s-48 -36.833 -64 -64.5s-24 -60.5 -24 -98.5c0 -37.333 8 -70.166 24 -98.499s37.333 -50.166 64 -65.499s57 -23 91 -23zM387 609.999c-16 0 -30.165 3.33203 -42.498 9.99902s-23.5 14.5 -33.5 23.5s-19.667 16.833 -29 23.5
s-18.666 10 -27.999 10c-14.667 0 -26.5 -5.5 -35.5 -16.5s-14.167 -26.167 -15.5 -45.5h-54c1.33301 37.333 10.666 67 27.999 89s40.666 33 69.999 33c16 0 30.333 -3.5 43 -10.5s24 -15 34 -24s19.5 -16.833 28.5 -23.5s18.167 -10 27.5 -10
c14.667 0 26.667 5.33301 36 16s14.333 25.334 15 44.001h54c-0.666992 -35.333 -9.83398 -64 -27.501 -86s-41.167 -33 -70.5 -33z" />
    <glyph glyph-name="odieresis" unicode="&#xf6;" horiz-adv-x="635" 
d="M318 -6c-53.333 0 -100.666 11.666 -141.999 34.999s-74 55.5 -98 96.5s-36 87.5 -36 139.5c0 52.667 12 99.334 36 140.001s56.667 72.5 98 95.5s88.666 34.5 141.999 34.5c52.667 0 99.834 -11.5 141.501 -34.5s74.334 -54.667 98.001 -95s35.5 -87.166 35.5 -140.499
c0 -52.667 -11.833 -99.334 -35.5 -140.001s-56.334 -72.667 -98.001 -96s-88.834 -35 -141.501 -35zM318 77.999c34 0 64.5 7.66699 91.5 23s48.167 37.166 63.5 65.499s23 61.166 23 98.499c0 38 -7.66699 70.833 -23 98.5s-36.5 49.167 -63.5 64.5s-57.5 23 -91.5 23
s-64.333 -7.66699 -91 -23s-48 -36.833 -64 -64.5s-24 -60.5 -24 -98.5c0 -37.333 8 -70.166 24 -98.499s37.333 -50.166 64 -65.499s57 -23 91 -23zM410 623.999c-14 0 -26 4.83301 -36 14.5s-15 21.834 -15 36.501c0 15.333 5 27.833 15 37.5s22 14.5 36 14.5
s26 -4.83301 36 -14.5s15 -22.167 15 -37.5c0 -14.667 -5 -26.834 -15 -36.501s-22 -14.5 -36 -14.5zM224 623.999c-14 0 -26 4.83301 -36 14.5s-15 21.834 -15 36.501c0 15.333 5 27.833 15 37.5s22 14.5 36 14.5s26 -4.83301 36 -14.5s15 -22.167 15 -37.5
c0 -14.667 -5 -26.834 -15 -36.501s-22 -14.5 -36 -14.5z" />
    <glyph glyph-name="divide" unicode="&#xf7;" horiz-adv-x="582" 
d="M67 310v79h448v-79h-448zM291 93c-16 0 -29.5 5.83301 -40.5 17.5s-16.5 26.167 -16.5 43.5s5.5 31.5 16.5 42.5s24.5 16.5 40.5 16.5s29.667 -5.5 41 -16.5s17 -25.167 17 -42.5s-5.66699 -31.833 -17 -43.5s-25 -17.5 -41 -17.5zM291 487
c-16 0 -29.5 5.83301 -40.5 17.5s-16.5 25.834 -16.5 42.501c0 17.333 5.5 31.666 16.5 42.999s24.5 17 40.5 17s29.667 -5.66699 41 -17s17 -25.666 17 -42.999c0 -16.667 -5.66699 -30.834 -17 -42.501s-25 -17.5 -41 -17.5z" />
    <glyph glyph-name="oslash" unicode="&#xf8;" horiz-adv-x="635" 
d="M318 -6c-53.333 0 -100.666 11.666 -141.999 34.999s-74 55.5 -98 96.5s-36 87.5 -36 139.5c0 52.667 12 99.334 36 140.001s56.667 72.5 98 95.5s88.666 34.5 141.999 34.5c52.667 0 99.834 -11.5 141.501 -34.5s74.334 -54.667 98.001 -95s35.5 -87.166 35.5 -140.499
c0 -52.667 -11.833 -99.334 -35.5 -140.001s-56.334 -72.667 -98.001 -96s-88.834 -35 -141.501 -35zM318 77.999c34 0 64.5 7.66699 91.5 23s48.167 37.166 63.5 65.499s23 61.166 23 98.499c0 38 -7.66699 70.833 -23 98.5s-36.5 49.167 -63.5 64.5s-57.5 23 -91.5 23
s-64.333 -7.66699 -91 -23s-48 -36.833 -64 -64.5s-24 -60.5 -24 -98.5c0 -37.333 8 -70.166 24 -98.499s37.333 -50.166 64 -65.499s57 -23 91 -23zM66 -71.001l441 669h59l-440 -669h-60z" />
    <glyph glyph-name="ugrave" unicode="&#xf9;" horiz-adv-x="677" 
d="M314 -6c-45.333 0 -85.167 8.33301 -119.5 25s-61 42.167 -80 76.5s-28.5 77.5 -28.5 129.5v305h96v-294c0 -52 12.5 -91 37.5 -117s60.167 -39 105.5 -39c33.333 0 62.333 6.83301 87 20.5s43.667 33.667 57 60s20 58.166 20 95.499v274h96v-530h-91v143l15 -38
c-17.333 -35.333 -43.333 -62.666 -78 -81.999s-73.667 -29 -117 -29zM320.999 607l-168 130h122l136 -130h-90z" />
    <glyph glyph-name="uacute" unicode="&#xfa;" horiz-adv-x="677" 
d="M314 -6c-45.333 0 -85.167 8.33301 -119.5 25s-61 42.167 -80 76.5s-28.5 77.5 -28.5 129.5v305h96v-294c0 -52 12.5 -91 37.5 -117s60.167 -39 105.5 -39c33.333 0 62.333 6.83301 87 20.5s43.667 33.667 57 60s20 58.166 20 95.499v274h96v-530h-91v143l15 -38
c-17.333 -35.333 -43.333 -62.666 -78 -81.999s-73.667 -29 -117 -29zM260.999 607l136 130h122l-168 -130h-90z" />
    <glyph glyph-name="ucircumflex" unicode="&#xfb;" horiz-adv-x="677" 
d="M314 -6c-45.333 0 -85.167 8.33301 -119.5 25s-61 42.167 -80 76.5s-28.5 77.5 -28.5 129.5v305h96v-294c0 -52 12.5 -91 37.5 -117s60.167 -39 105.5 -39c33.333 0 62.333 6.83301 87 20.5s43.667 33.667 57 60s20 58.166 20 95.499v274h96v-530h-91v143l15 -38
c-17.333 -35.333 -43.333 -62.666 -78 -81.999s-73.667 -29 -117 -29zM156.999 607l133 130h92l133 -130h-87l-132 110h80l-132 -110h-87z" />
    <glyph glyph-name="udieresis" unicode="&#xfc;" horiz-adv-x="677" 
d="M314 -6c-45.333 0 -85.167 8.33301 -119.5 25s-61 42.167 -80 76.5s-28.5 77.5 -28.5 129.5v305h96v-294c0 -52 12.5 -91 37.5 -117s60.167 -39 105.5 -39c33.333 0 62.333 6.83301 87 20.5s43.667 33.667 57 60s20 58.166 20 95.499v274h96v-530h-91v143l15 -38
c-17.333 -35.333 -43.333 -62.666 -78 -81.999s-73.667 -29 -117 -29zM428.999 624c-14 0 -26 4.83301 -36 14.5s-15 21.834 -15 36.501c0 15.333 5 27.833 15 37.5s22 14.5 36 14.5s26 -4.83301 36 -14.5s15 -22.167 15 -37.5c0 -14.667 -5 -26.834 -15 -36.501
s-22 -14.5 -36 -14.5zM242.999 624c-14 0 -26 4.83301 -36 14.5s-15 21.834 -15 36.501c0 15.333 5 27.833 15 37.5s22 14.5 36 14.5s26 -4.83301 36 -14.5s15 -22.167 15 -37.5c0 -14.667 -5 -26.834 -15 -36.501s-22 -14.5 -36 -14.5z" />
    <glyph glyph-name="yacute" unicode="&#xfd;" horiz-adv-x="559" 
d="M114 -200c-25.333 0 -49.998 4.16699 -73.998 12.5s-44.667 20.5 -62 36.5l41 72c13.333 -12.667 28 -22.334 44 -29.001s33 -10 51 -10c23.333 0 42.666 6 57.999 18s29.666 33.333 42.999 64l33 73l10 12l208 481h94l-257 -583
c-15.333 -37.333 -32.5 -66.666 -51.5 -87.999s-39.833 -36.5 -62.5 -45.5s-47.667 -13.5 -75 -13.5zM240.002 -17l-242 547h100l206 -472zM191.002 607l136 130h122l-168 -130h-90z" />
    <glyph glyph-name="thorn" unicode="&#xfe;" horiz-adv-x="682" 
d="M372 -6c-44 0 -84.166 10.168 -120.499 30.501s-65.333 50.5 -87 90.5s-32.5 90 -32.5 150s10.5 110 31.5 150s49.667 70 86 90s77.166 30 122.499 30c52 0 98 -11.333 138 -34s71.667 -54.167 95 -94.5s35 -87.5 35 -141.5s-11.667 -101.333 -35 -142
s-55 -72.334 -95 -95.001s-86 -34 -138 -34zM91.001 -193.999v936h96v-355l-10 -123l10 -123v-335h-96zM364.001 78.001c34 0 64.5 7.66699 91.5 23s48.333 37.166 64 65.499s23.5 61.166 23.5 98.499c0 38 -7.83301 70.833 -23.5 98.5s-37 49.167 -64 64.5
s-57.5 23 -91.5 23c-33.333 0 -63.5 -7.66699 -90.5 -23s-48.333 -36.833 -64 -64.5s-23.5 -60.5 -23.5 -98.5c0 -37.333 7.83301 -70.166 23.5 -98.499s37 -50.166 64 -65.499s57.167 -23 90.5 -23z" />
    <glyph glyph-name="ydieresis" unicode="&#xff;" horiz-adv-x="559" 
d="M114 -200c-25.333 0 -49.998 4.16699 -73.998 12.5s-44.667 20.5 -62 36.5l41 72c13.333 -12.667 28 -22.334 44 -29.001s33 -10 51 -10c23.333 0 42.666 6 57.999 18s29.666 33.333 42.999 64l33 73l10 12l208 481h94l-257 -583
c-15.333 -37.333 -32.5 -66.666 -51.5 -87.999s-39.833 -36.5 -62.5 -45.5s-47.667 -13.5 -75 -13.5zM240.002 -17l-242 547h100l206 -472zM359.002 624c-14 0 -26 4.83301 -36 14.5s-15 21.834 -15 36.501c0 15.333 5 27.833 15 37.5s22 14.5 36 14.5s26 -4.83301 36 -14.5
s15 -22.167 15 -37.5c0 -14.667 -5 -26.834 -15 -36.501s-22 -14.5 -36 -14.5zM173.002 624c-14 0 -26 4.83301 -36 14.5s-15 21.834 -15 36.501c0 15.333 5 27.833 15 37.5s22 14.5 36 14.5s26 -4.83301 36 -14.5s15 -22.167 15 -37.5c0 -14.667 -5 -26.834 -15 -36.501
s-22 -14.5 -36 -14.5z" />
    <glyph glyph-name="Amacron" unicode="&#x100;" horiz-adv-x="732" 
d="M-1 0l317 700h99l318 -700h-105l-283 644h40l-283 -644h-103zM134 175l27 80h394l29 -80h-450zM203 792v60h326v-60h-326z" />
    <glyph glyph-name="amacron" unicode="&#x101;" horiz-adv-x="598" 
d="M420 0l0.000976562 111.999l-5 21v191c0 40.667 -11.833 72.167 -35.5 94.5s-59.167 33.5 -106.5 33.5c-31.333 0 -62 -5.16699 -92 -15.5s-55.333 -24.166 -76 -41.499l-40 72c27.333 22 60.166 38.833 98.499 50.5s78.5 17.5 120.5 17.5
c72.667 0 128.667 -17.667 168 -53s59 -89.333 59 -162v-320h-91zM246.001 -6.00098c-39.333 0 -73.834 6.66602 -103.501 19.999s-52.5 31.833 -68.5 55.5s-24 50.5 -24 80.5c0 28.667 6.83301 54.667 20.5 78s36 42 67 56s72.833 21 125.5 21h168v-69h-164
c-48 0 -80.333 -8 -97 -24s-25 -35.333 -25 -58c0 -26 10.333 -46.833 31 -62.5s49.334 -23.5 86.001 -23.5c36 0 67.5 8 94.5 24s46.5 39.333 58.5 70l19 -66c-12.667 -31.333 -35 -56.166 -67 -74.499s-72.333 -27.5 -121 -27.5zM128 641.998v60h326v-60h-326z" />
    <glyph glyph-name="Abreve" unicode="&#x102;" horiz-adv-x="732" 
d="M-1 0l317 700h99l318 -700h-105l-283 644h40l-283 -644h-103zM134 175l27 80h394l29 -80h-450zM366 751c-45.333 0 -83.333 12.167 -114 36.5s-46.667 57.5 -48 99.5h65c1.33301 -24.667 11.333 -44.167 30 -58.5s41 -21.5 67 -21.5s48.5 7.16699 67.5 21.5
s28.833 33.833 29.5 58.5h65c-1.33301 -42 -17.333 -75.167 -48 -99.5s-68.667 -36.5 -114 -36.5z" />
    <glyph glyph-name="abreve" unicode="&#x103;" horiz-adv-x="598" 
d="M420 0l0.000976562 111.999l-5 21v191c0 40.667 -11.833 72.167 -35.5 94.5s-59.167 33.5 -106.5 33.5c-31.333 0 -62 -5.16699 -92 -15.5s-55.333 -24.166 -76 -41.499l-40 72c27.333 22 60.166 38.833 98.499 50.5s78.5 17.5 120.5 17.5
c72.667 0 128.667 -17.667 168 -53s59 -89.333 59 -162v-320h-91zM246.001 -6.00098c-39.333 0 -73.834 6.66602 -103.501 19.999s-52.5 31.833 -68.5 55.5s-24 50.5 -24 80.5c0 28.667 6.83301 54.667 20.5 78s36 42 67 56s72.833 21 125.5 21h168v-69h-164
c-48 0 -80.333 -8 -97 -24s-25 -35.333 -25 -58c0 -26 10.333 -46.833 31 -62.5s49.334 -23.5 86.001 -23.5c36 0 67.5 8 94.5 24s46.5 39.333 58.5 70l19 -66c-12.667 -31.333 -35 -56.166 -67 -74.499s-72.333 -27.5 -121 -27.5zM291 600.998
c-45.333 0 -83.333 12.167 -114 36.5s-46.667 57.5 -48 99.5h65c1.33301 -24.667 11.333 -44.167 30 -58.5s41 -21.5 67 -21.5s48.5 7.16699 67.5 21.5s28.833 33.833 29.5 58.5h65c-1.33301 -42 -17.333 -75.167 -48 -99.5s-68.667 -36.5 -114 -36.5z" />
    <glyph glyph-name="Aogonek" unicode="&#x104;" horiz-adv-x="732" 
d="M-1 0l317 700h99l318 -700h-105l-283 644h40l-283 -644h-103zM134 175l27 80h394l29 -80h-450zM665 -224c-37.333 0 -66.667 9.33301 -88 28s-32 43 -32 73c0 18 4.5 36 13.5 54s24.167 35.667 45.5 53s49.333 33.333 84 48l45 -32
c-29.333 -13.333 -52.666 -26.333 -69.999 -39s-29.833 -25.334 -37.5 -38.001s-11.5 -25.667 -11.5 -39c0 -16.667 5.83301 -29.5 17.5 -38.5s26.167 -13.5 43.5 -13.5c11.333 0 22.5 1.66699 33.5 5s20.5 7.33301 28.5 12l18 -49
c-12 -7.33301 -25.833 -13.166 -41.5 -17.499s-31.834 -6.5 -48.501 -6.5z" />
    <glyph glyph-name="aogonek" unicode="&#x105;" horiz-adv-x="598" 
d="M420 0l0.000976562 111.999l-5 21v191c0 40.667 -11.833 72.167 -35.5 94.5s-59.167 33.5 -106.5 33.5c-31.333 0 -62 -5.16699 -92 -15.5s-55.333 -24.166 -76 -41.499l-40 72c27.333 22 60.166 38.833 98.499 50.5s78.5 17.5 120.5 17.5
c72.667 0 128.667 -17.667 168 -53s59 -89.333 59 -162v-320h-91zM246.001 -6.00098c-39.333 0 -73.834 6.66602 -103.501 19.999s-52.5 31.833 -68.5 55.5s-24 50.5 -24 80.5c0 28.667 6.83301 54.667 20.5 78s36 42 67 56s72.833 21 125.5 21h168v-69h-164
c-48 0 -80.333 -8 -97 -24s-25 -35.333 -25 -58c0 -26 10.333 -46.833 31 -62.5s49.334 -23.5 86.001 -23.5c36 0 67.5 8 94.5 24s46.5 39.333 58.5 70l19 -66c-12.667 -31.333 -35 -56.166 -67 -74.499s-72.333 -27.5 -121 -27.5zM443 -224.002
c-37.333 0 -66.667 9.33301 -88 28s-32 43 -32 73c0 18 4.5 36 13.5 54s24.167 35.667 45.5 53s49.333 33.333 84 48l45 -32c-29.333 -13.333 -52.666 -26.333 -69.999 -39s-29.833 -25.334 -37.5 -38.001s-11.5 -25.667 -11.5 -39c0 -16.667 5.83301 -29.5 17.5 -38.5
s26.167 -13.5 43.5 -13.5c11.333 0 22.5 1.66699 33.5 5s20.5 7.33301 28.5 12l18 -49c-12 -7.33301 -25.833 -13.166 -41.5 -17.499s-31.834 -6.5 -48.501 -6.5z" />
    <glyph glyph-name="Cacute" unicode="&#x106;" horiz-adv-x="723" 
d="M418 -8c-53.333 0 -102.499 8.83398 -147.499 26.501s-84 42.667 -117 75s-58.833 70.166 -77.5 113.499s-28 91 -28 143s9.33301 99.667 28 143s44.667 81.166 78 113.499s72.5 57.333 117.5 75s94.167 26.5 147.5 26.5c54 0 103.833 -9.16699 149.5 -27.5
s84.5 -45.5 116.5 -81.5l-65 -63c-26.667 28 -56.667 48.833 -90 62.5s-69 20.5 -107 20.5c-39.333 0 -75.833 -6.66699 -109.5 -20s-62.834 -32 -87.501 -56s-43.834 -52.5 -57.501 -85.5s-20.5 -68.833 -20.5 -107.5s6.83301 -74.5 20.5 -107.5s32.834 -61.5 57.501 -85.5
s53.834 -42.667 87.501 -56s70.167 -20 109.5 -20c38 0 73.667 6.83301 107 20.5s63.333 34.834 90 63.501l65 -63c-32 -36 -70.833 -63.333 -116.5 -82s-95.834 -28 -150.501 -28zM336.001 757.001l136 130h122l-168 -130h-90z" />
    <glyph glyph-name="cacute" unicode="&#x107;" horiz-adv-x="571" 
d="M322 -6c-54 0 -102.167 11.666 -144.5 34.999s-75.5 55.333 -99.5 96s-36 87.334 -36 140.001s12 99.334 36 140.001s57.167 72.5 99.5 95.5s90.5 34.5 144.5 34.5c48 0 90.833 -9.5 128.5 -28.5s66.834 -47.167 87.501 -84.5l-73 -47
c-17.333 26 -38.5 45.167 -63.5 57.5s-51.833 18.5 -80.5 18.5c-34.667 0 -65.667 -7.66699 -93 -23s-49 -36.833 -65 -64.5s-24 -60.5 -24 -98.5s8 -71 24 -99s37.667 -49.667 65 -65s58.333 -23 93 -23c28.667 0 55.5 6.16699 80.5 18.5s46.167 31.5 63.5 57.5l73 -46
c-20.667 -36.667 -49.834 -64.834 -87.501 -84.501s-80.5 -29.5 -128.5 -29.5zM228 606.999l136 130h122l-168 -130h-90z" />
    <glyph glyph-name="Ccircumflex" unicode="&#x108;" horiz-adv-x="723" 
d="M418 -8c-53.333 0 -102.499 8.83398 -147.499 26.501s-84 42.667 -117 75s-58.833 70.166 -77.5 113.499s-28 91 -28 143s9.33301 99.667 28 143s44.667 81.166 78 113.499s72.5 57.333 117.5 75s94.167 26.5 147.5 26.5c54 0 103.833 -9.16699 149.5 -27.5
s84.5 -45.5 116.5 -81.5l-65 -63c-26.667 28 -56.667 48.833 -90 62.5s-69 20.5 -107 20.5c-39.333 0 -75.833 -6.66699 -109.5 -20s-62.834 -32 -87.501 -56s-43.834 -52.5 -57.501 -85.5s-20.5 -68.833 -20.5 -107.5s6.83301 -74.5 20.5 -107.5s32.834 -61.5 57.501 -85.5
s53.834 -42.667 87.501 -56s70.167 -20 109.5 -20c38 0 73.667 6.83301 107 20.5s63.333 34.834 90 63.501l65 -63c-32 -36 -70.833 -63.333 -116.5 -82s-95.834 -28 -150.501 -28zM232.001 757.001l133 130h92l133 -130h-87l-132 110h80l-132 -110h-87z" />
    <glyph glyph-name="ccircumflex" unicode="&#x109;" horiz-adv-x="571" 
d="M322 -6c-54 0 -102.167 11.666 -144.5 34.999s-75.5 55.333 -99.5 96s-36 87.334 -36 140.001s12 99.334 36 140.001s57.167 72.5 99.5 95.5s90.5 34.5 144.5 34.5c48 0 90.833 -9.5 128.5 -28.5s66.834 -47.167 87.501 -84.5l-73 -47
c-17.333 26 -38.5 45.167 -63.5 57.5s-51.833 18.5 -80.5 18.5c-34.667 0 -65.667 -7.66699 -93 -23s-49 -36.833 -65 -64.5s-24 -60.5 -24 -98.5s8 -71 24 -99s37.667 -49.667 65 -65s58.333 -23 93 -23c28.667 0 55.5 6.16699 80.5 18.5s46.167 31.5 63.5 57.5l73 -46
c-20.667 -36.667 -49.834 -64.834 -87.501 -84.501s-80.5 -29.5 -128.5 -29.5zM124 606.999l133 130h92l133 -130h-87l-132 110h80l-132 -110h-87z" />
    <glyph glyph-name="Cdotaccent" unicode="&#x10a;" horiz-adv-x="723" 
d="M418 -8c-53.333 0 -102.499 8.83398 -147.499 26.501s-84 42.667 -117 75s-58.833 70.166 -77.5 113.499s-28 91 -28 143s9.33301 99.667 28 143s44.667 81.166 78 113.499s72.5 57.333 117.5 75s94.167 26.5 147.5 26.5c54 0 103.833 -9.16699 149.5 -27.5
s84.5 -45.5 116.5 -81.5l-65 -63c-26.667 28 -56.667 48.833 -90 62.5s-69 20.5 -107 20.5c-39.333 0 -75.833 -6.66699 -109.5 -20s-62.834 -32 -87.501 -56s-43.834 -52.5 -57.501 -85.5s-20.5 -68.833 -20.5 -107.5s6.83301 -74.5 20.5 -107.5s32.834 -61.5 57.501 -85.5
s53.834 -42.667 87.501 -56s70.167 -20 109.5 -20c38 0 73.667 6.83301 107 20.5s63.333 34.834 90 63.501l65 -63c-32 -36 -70.833 -63.333 -116.5 -82s-95.834 -28 -150.501 -28zM411.001 775.001c-16.667 0 -30.667 5.66699 -42 17s-17 25.333 -17 42
s5.66699 30.667 17 42s25.333 17 42 17s30.667 -5.66699 42 -17s17 -25.333 17 -42s-5.66699 -30.667 -17 -42s-25.333 -17 -42 -17z" />
    <glyph glyph-name="cdotaccent" unicode="&#x10b;" horiz-adv-x="571" 
d="M322 -6c-54 0 -102.167 11.666 -144.5 34.999s-75.5 55.333 -99.5 96s-36 87.334 -36 140.001s12 99.334 36 140.001s57.167 72.5 99.5 95.5s90.5 34.5 144.5 34.5c48 0 90.833 -9.5 128.5 -28.5s66.834 -47.167 87.501 -84.5l-73 -47
c-17.333 26 -38.5 45.167 -63.5 57.5s-51.833 18.5 -80.5 18.5c-34.667 0 -65.667 -7.66699 -93 -23s-49 -36.833 -65 -64.5s-24 -60.5 -24 -98.5s8 -71 24 -99s37.667 -49.667 65 -65s58.333 -23 93 -23c28.667 0 55.5 6.16699 80.5 18.5s46.167 31.5 63.5 57.5l73 -46
c-20.667 -36.667 -49.834 -64.834 -87.501 -84.501s-80.5 -29.5 -128.5 -29.5zM303 624.999c-16.667 0 -30.667 5.66699 -42 17s-17 25.333 -17 42s5.66699 30.667 17 42s25.333 17 42 17s30.667 -5.66699 42 -17s17 -25.333 17 -42s-5.66699 -30.667 -17 -42
s-25.333 -17 -42 -17z" />
    <glyph glyph-name="Ccaron" unicode="&#x10c;" horiz-adv-x="723" 
d="M418 -8c-53.333 0 -102.499 8.83398 -147.499 26.501s-84 42.667 -117 75s-58.833 70.166 -77.5 113.499s-28 91 -28 143s9.33301 99.667 28 143s44.667 81.166 78 113.499s72.5 57.333 117.5 75s94.167 26.5 147.5 26.5c54 0 103.833 -9.16699 149.5 -27.5
s84.5 -45.5 116.5 -81.5l-65 -63c-26.667 28 -56.667 48.833 -90 62.5s-69 20.5 -107 20.5c-39.333 0 -75.833 -6.66699 -109.5 -20s-62.834 -32 -87.501 -56s-43.834 -52.5 -57.501 -85.5s-20.5 -68.833 -20.5 -107.5s6.83301 -74.5 20.5 -107.5s32.834 -61.5 57.501 -85.5
s53.834 -42.667 87.501 -56s70.167 -20 109.5 -20c38 0 73.667 6.83301 107 20.5s63.333 34.834 90 63.501l65 -63c-32 -36 -70.833 -63.333 -116.5 -82s-95.834 -28 -150.501 -28zM365.001 757.001l-133 130h87l132 -109h-80l132 109h87l-133 -130h-92z" />
    <glyph glyph-name="ccaron" unicode="&#x10d;" horiz-adv-x="571" 
d="M322 -6c-54 0 -102.167 11.666 -144.5 34.999s-75.5 55.333 -99.5 96s-36 87.334 -36 140.001s12 99.334 36 140.001s57.167 72.5 99.5 95.5s90.5 34.5 144.5 34.5c48 0 90.833 -9.5 128.5 -28.5s66.834 -47.167 87.501 -84.5l-73 -47
c-17.333 26 -38.5 45.167 -63.5 57.5s-51.833 18.5 -80.5 18.5c-34.667 0 -65.667 -7.66699 -93 -23s-49 -36.833 -65 -64.5s-24 -60.5 -24 -98.5s8 -71 24 -99s37.667 -49.667 65 -65s58.333 -23 93 -23c28.667 0 55.5 6.16699 80.5 18.5s46.167 31.5 63.5 57.5l73 -46
c-20.667 -36.667 -49.834 -64.834 -87.501 -84.501s-80.5 -29.5 -128.5 -29.5zM257 606.999l-133 130h87l132 -109h-80l132 109h87l-133 -130h-92z" />
    <glyph glyph-name="Dcaron" unicode="&#x10e;" horiz-adv-x="826" 
d="M105 0v700h295c74.667 0 140.5 -14.667 197.5 -44s101.333 -70.333 133 -123s47.5 -113.667 47.5 -183s-15.833 -130.333 -47.5 -183s-76 -93.667 -133 -123s-122.833 -44 -197.5 -44h-295zM205 87h189c58 0 108.167 11 150.5 33s75.166 52.833 98.499 92.5
s35 85.5 35 137.5c0 52.667 -11.667 98.667 -35 138s-56.166 70 -98.499 92s-92.5 33 -150.5 33h-189v-526zM333 756l-133 130h87l132 -109h-80l132 109h87l-133 -130h-92z" />
    <glyph glyph-name="dcaron" unicode="&#x10f;" horiz-adv-x="682" 
d="M310 -6c-51.333 0 -97.166 11.332 -137.499 33.999s-72.166 54.334 -95.499 95.001s-35 88 -35 142s11.667 101.167 35 141.5s55.166 71.833 95.499 94.5s86.166 34 137.499 34c44.667 0 85 -10 121 -30s64.833 -50 86.5 -90s32.5 -90 32.5 -150s-10.5 -110 -31.5 -150
s-49.5 -70.167 -85.5 -90.5s-77 -30.5 -123 -30.5zM318 77.999c33.333 0 63.5 7.66699 90.5 23s48.333 37.166 64 65.499s23.5 61.166 23.5 98.499c0 38 -7.83301 70.833 -23.5 98.5s-37 49.167 -64 64.5s-57.167 23 -90.5 23c-34 0 -64.333 -7.66699 -91 -23
s-48 -36.833 -64 -64.5s-24 -60.5 -24 -98.5c0 -37.333 8 -70.166 24 -98.499s37.333 -50.166 64 -65.499s57 -23 91 -23zM499 -0.000976562v143l6 123l-10 123v353h96v-742h-92zM680 581.999v193h79l-12 -193h-67z" />
    <glyph glyph-name="Dcroat" unicode="&#x110;" horiz-adv-x="834" 
d="M113 0v700h295c74.667 0 140.5 -14.667 197.5 -44s101.333 -70.333 133 -123s47.5 -113.667 47.5 -183s-15.833 -130.333 -47.5 -183s-76 -93.667 -133 -123s-122.833 -44 -197.5 -44h-295zM213 87h189c58 0 108.167 11 150.5 33s75.166 52.833 98.499 92.5
s35 85.5 35 137.5c0 52.667 -11.667 98.667 -35 138s-56.166 70 -98.499 92s-92.5 33 -150.5 33h-189v-526zM10 317v79h400v-79h-400z" />
    <glyph glyph-name="dcroat" unicode="&#x111;" horiz-adv-x="682" 
d="M310 -6c-51.333 0 -97.166 11.332 -137.499 33.999s-72.166 54.334 -95.499 95.001s-35 88 -35 142s11.667 101.167 35 141.5s55.166 71.833 95.499 94.5s86.166 34 137.499 34c44.667 0 85 -10 121 -30s64.833 -50 86.5 -90s32.5 -90 32.5 -150s-10.5 -110 -31.5 -150
s-49.5 -70.167 -85.5 -90.5s-77 -30.5 -123 -30.5zM318 77.999c33.333 0 63.5 7.66699 90.5 23s48.333 37.166 64 65.499s23.5 61.166 23.5 98.499c0 38 -7.83301 70.833 -23.5 98.5s-37 49.167 -64 64.5s-57.167 23 -90.5 23c-34 0 -64.333 -7.66699 -91 -23
s-48 -36.833 -64 -64.5s-24 -60.5 -24 -98.5c0 -37.333 8 -70.166 24 -98.499s37.333 -50.166 64 -65.499s57 -23 91 -23zM499 -0.000976562v143l6 123l-10 123v353h96v-742h-92zM286 600.999v68h396v-68h-396z" />
    <glyph glyph-name="Emacron" unicode="&#x112;" horiz-adv-x="670" 
d="M196 398h360v-85h-360v85zM205 87h408v-87h-508v700h494v-87h-394v-526zM190 792v60h326v-60h-326z" />
    <glyph glyph-name="emacron" unicode="&#x113;" horiz-adv-x="612" 
d="M327 -6c-56.667 0 -106.496 11.665 -149.496 34.998s-76.333 55.333 -100 96s-35.5 87.334 -35.5 140.001s11.5 99.334 34.5 140.001s54.667 72.5 95 95.5s85.833 34.5 136.5 34.5c51.333 0 96.666 -11.333 135.999 -34s70.166 -54.5 92.499 -95.5
s33.5 -88.833 33.5 -143.5c0 -4 -0.166992 -8.66699 -0.5 -14s-0.833008 -10.333 -1.5 -15h-451v69h401l-39 -24c0.666992 34 -6.33301 64.333 -21 91s-34.834 47.5 -60.501 62.5s-55.5 22.5 -89.5 22.5c-33.333 0 -63 -7.5 -89 -22.5s-46.333 -36 -61 -63
s-22 -57.833 -22 -92.5v-16c0 -35.333 8.16699 -66.833 24.5 -94.5s39.166 -49.167 68.499 -64.5s63 -23 101 -23c31.333 0 59.833 5.33301 85.5 16s48.167 26.667 67.5 48l53 -62c-24 -28 -53.833 -49.333 -89.5 -64s-75.5 -22 -119.5 -22zM144.004 641.998v60h326v-60
h-326z" />
    <glyph glyph-name="Ebreve" unicode="&#x114;" horiz-adv-x="670" 
d="M196 398h360v-85h-360v85zM205 87h408v-87h-508v700h494v-87h-394v-526zM353 751c-45.333 0 -83.333 12.167 -114 36.5s-46.667 57.5 -48 99.5h65c1.33301 -24.667 11.333 -44.167 30 -58.5s41 -21.5 67 -21.5s48.5 7.16699 67.5 21.5s28.833 33.833 29.5 58.5h65
c-1.33301 -42 -17.333 -75.167 -48 -99.5s-68.667 -36.5 -114 -36.5z" />
    <glyph glyph-name="ebreve" unicode="&#x115;" horiz-adv-x="612" 
d="M327 -6c-56.667 0 -106.496 11.665 -149.496 34.998s-76.333 55.333 -100 96s-35.5 87.334 -35.5 140.001s11.5 99.334 34.5 140.001s54.667 72.5 95 95.5s85.833 34.5 136.5 34.5c51.333 0 96.666 -11.333 135.999 -34s70.166 -54.5 92.499 -95.5
s33.5 -88.833 33.5 -143.5c0 -4 -0.166992 -8.66699 -0.5 -14s-0.833008 -10.333 -1.5 -15h-451v69h401l-39 -24c0.666992 34 -6.33301 64.333 -21 91s-34.834 47.5 -60.501 62.5s-55.5 22.5 -89.5 22.5c-33.333 0 -63 -7.5 -89 -22.5s-46.333 -36 -61 -63
s-22 -57.833 -22 -92.5v-16c0 -35.333 8.16699 -66.833 24.5 -94.5s39.166 -49.167 68.499 -64.5s63 -23 101 -23c31.333 0 59.833 5.33301 85.5 16s48.167 26.667 67.5 48l53 -62c-24 -28 -53.833 -49.333 -89.5 -64s-75.5 -22 -119.5 -22zM307.004 600.998
c-45.333 0 -83.333 12.167 -114 36.5s-46.667 57.5 -48 99.5h65c1.33301 -24.667 11.333 -44.167 30 -58.5s41 -21.5 67 -21.5s48.5 7.16699 67.5 21.5s28.833 33.833 29.5 58.5h65c-1.33301 -42 -17.333 -75.167 -48 -99.5s-68.667 -36.5 -114 -36.5z" />
    <glyph glyph-name="Edotaccent" unicode="&#x116;" horiz-adv-x="670" 
d="M196 398h360v-85h-360v85zM205 87h408v-87h-508v700h494v-87h-394v-526zM353 775c-16.667 0 -30.667 5.66699 -42 17s-17 25.333 -17 42s5.66699 30.667 17 42s25.333 17 42 17s30.667 -5.66699 42 -17s17 -25.333 17 -42s-5.66699 -30.667 -17 -42s-25.333 -17 -42 -17z
" />
    <glyph glyph-name="edotaccent" unicode="&#x117;" horiz-adv-x="612" 
d="M327 -6c-56.667 0 -106.496 11.665 -149.496 34.998s-76.333 55.333 -100 96s-35.5 87.334 -35.5 140.001s11.5 99.334 34.5 140.001s54.667 72.5 95 95.5s85.833 34.5 136.5 34.5c51.333 0 96.666 -11.333 135.999 -34s70.166 -54.5 92.499 -95.5
s33.5 -88.833 33.5 -143.5c0 -4 -0.166992 -8.66699 -0.5 -14s-0.833008 -10.333 -1.5 -15h-451v69h401l-39 -24c0.666992 34 -6.33301 64.333 -21 91s-34.834 47.5 -60.501 62.5s-55.5 22.5 -89.5 22.5c-33.333 0 -63 -7.5 -89 -22.5s-46.333 -36 -61 -63
s-22 -57.833 -22 -92.5v-16c0 -35.333 8.16699 -66.833 24.5 -94.5s39.166 -49.167 68.499 -64.5s63 -23 101 -23c31.333 0 59.833 5.33301 85.5 16s48.167 26.667 67.5 48l53 -62c-24 -28 -53.833 -49.333 -89.5 -64s-75.5 -22 -119.5 -22zM307.004 624.998
c-16.667 0 -30.667 5.66699 -42 17s-17 25.333 -17 42s5.66699 30.667 17 42s25.333 17 42 17s30.667 -5.66699 42 -17s17 -25.333 17 -42s-5.66699 -30.667 -17 -42s-25.333 -17 -42 -17z" />
    <glyph glyph-name="Eogonek" unicode="&#x118;" horiz-adv-x="670" 
d="M196 398h360v-85h-360v85zM205 87h408v-87h-508v700h494v-87h-394v-526zM545 -224c-37.333 0 -66.667 9.33301 -88 28s-32 43 -32 73c0 18 4.5 36 13.5 54s24.167 35.667 45.5 53s49.333 33.333 84 48l45 -32c-29.333 -13.333 -52.666 -26.333 -69.999 -39
s-29.833 -25.334 -37.5 -38.001s-11.5 -25.667 -11.5 -39c0 -16.667 5.83301 -29.5 17.5 -38.5s26.167 -13.5 43.5 -13.5c11.333 0 22.5 1.66699 33.5 5s20.5 7.33301 28.5 12l18 -49c-12 -7.33301 -25.833 -13.166 -41.5 -17.499s-31.834 -6.5 -48.501 -6.5z" />
    <glyph glyph-name="eogonek" unicode="&#x119;" horiz-adv-x="612" 
d="M436 -224c-36.667 0 -65.8301 9.66602 -87.4971 28.999s-32.5 44.666 -32.5 75.999c0 22.667 6.33301 46.834 19 72.501s33.334 49.5 62.001 71.5l34 -14c-15.333 -5.33301 -31.833 -9.5 -49.5 -12.5s-35.834 -4.5 -54.501 -4.5c-56.667 0 -106.5 11.667 -149.5 35
s-76.333 55.333 -100 96s-35.5 87.334 -35.5 140.001s11.5 99.334 34.5 140.001s54.667 72.5 95 95.5s85.833 34.5 136.5 34.5c51.333 0 96.666 -11.333 135.999 -34s70.166 -54.5 92.499 -95.5s33.5 -88.833 33.5 -143.5c0 -4 -0.166992 -8.66699 -0.5 -14
s-0.833008 -10.333 -1.5 -15h-451v69h401l-39 -24c0.666992 34 -6.33301 64.333 -21 91s-34.834 47.5 -60.501 62.5s-55.5 22.5 -89.5 22.5c-33.333 0 -63 -7.5 -89 -22.5s-46.333 -36 -61 -63s-22 -57.833 -22 -92.5v-16c0 -35.333 8.16699 -66.833 24.5 -94.5
s39.166 -49.167 68.499 -64.5s63 -23 101 -23c31.333 0 59.833 5.33301 85.5 16s48.167 26.667 67.5 48l53 -62c-5.33301 -6.66699 -11.333 -12.667 -18 -18s-13.667 -11.333 -21 -18c-29.333 -24.667 -52.166 -46.334 -68.499 -65.001s-27.833 -35.334 -34.5 -50.001
s-10 -28.667 -10 -42c0 -18.667 5.83301 -32.5 17.5 -41.5s26.5 -13.5 44.5 -13.5c10.667 0 21.5 1.66699 32.5 5s20.5 7.33301 28.5 12l19 -49c-12.667 -7.33301 -26.667 -13.166 -42 -17.499s-31.333 -6.5 -48 -6.5z" />
    <glyph glyph-name="Ecaron" unicode="&#x11a;" horiz-adv-x="670" 
d="M196 398h360v-85h-360v85zM205 87h408v-87h-508v700h494v-87h-394v-526zM307 757l-133 130h87l132 -109h-80l132 109h87l-133 -130h-92z" />
    <glyph glyph-name="ecaron" unicode="&#x11b;" horiz-adv-x="612" 
d="M327 -6c-56.667 0 -106.496 11.665 -149.496 34.998s-76.333 55.333 -100 96s-35.5 87.334 -35.5 140.001s11.5 99.334 34.5 140.001s54.667 72.5 95 95.5s85.833 34.5 136.5 34.5c51.333 0 96.666 -11.333 135.999 -34s70.166 -54.5 92.499 -95.5
s33.5 -88.833 33.5 -143.5c0 -4 -0.166992 -8.66699 -0.5 -14s-0.833008 -10.333 -1.5 -15h-451v69h401l-39 -24c0.666992 34 -6.33301 64.333 -21 91s-34.834 47.5 -60.501 62.5s-55.5 22.5 -89.5 22.5c-33.333 0 -63 -7.5 -89 -22.5s-46.333 -36 -61 -63
s-22 -57.833 -22 -92.5v-16c0 -35.333 8.16699 -66.833 24.5 -94.5s39.166 -49.167 68.499 -64.5s63 -23 101 -23c31.333 0 59.833 5.33301 85.5 16s48.167 26.667 67.5 48l53 -62c-24 -28 -53.833 -49.333 -89.5 -64s-75.5 -22 -119.5 -22zM261.004 606.998l-133 130h87
l132 -109h-80l132 109h87l-133 -130h-92z" />
    <glyph glyph-name="Gcircumflex" unicode="&#x11c;" horiz-adv-x="772" 
d="M421 -8c-54 0 -103.667 8.83398 -149 26.501s-84.666 42.667 -117.999 75s-59.333 70.166 -78 113.499s-28 91 -28 143s9.33301 99.667 28 143s44.834 81.166 78.501 113.499s73.167 57.333 118.5 75s95.333 26.5 150 26.5c55.333 0 106 -9 152 -27s85 -45 117 -81
l-62 -62c-28.667 28 -59.834 48.5 -93.501 61.5s-70.167 19.5 -109.5 19.5c-40 0 -77.167 -6.66699 -111.5 -20s-64 -32 -89 -56s-44.333 -52.5 -58 -85.5s-20.5 -68.833 -20.5 -107.5c0 -38 6.83301 -73.5 20.5 -106.5s33 -61.667 58 -86s54.5 -43.166 88.5 -56.499
s71 -20 111 -20c37.333 0 73.166 5.83301 107.499 17.5s66.166 31.167 95.499 58.5l57 -76c-34.667 -29.333 -75.167 -51.5 -121.5 -66.5s-94.166 -22.5 -143.499 -22.5zM590 94.001v260h96v-273zM231 757.001l133 130h92l133 -130h-87l-132 110h80l-132 -110h-87z" />
    <glyph glyph-name="gcircumflex" unicode="&#x11d;" horiz-adv-x="690" 
d="M323 -200c-48.667 0 -95.832 6.83203 -141.499 20.499s-82.834 33.167 -111.501 58.5l46 74c24.667 -21.333 55 -38.166 91 -50.499s73.667 -18.5 113 -18.5c62.667 0 108.667 14.667 138 44s44 74 44 134v112l10 105l-5 106v145h91v-458
c0 -93.333 -23.333 -162 -70 -206s-115 -66 -205 -66zM311.002 21.999c-51.333 0 -97.166 10.833 -137.499 32.5s-72.333 51.834 -96 90.501s-35.5 83.334 -35.5 134.001c0 51.333 11.833 96.166 35.5 134.499s55.667 68.166 96 89.499s86.166 32 137.499 32
c45.333 0 86.666 -9.16699 123.999 -27.5s67.166 -46.5 89.499 -84.5s33.5 -86 33.5 -144c0 -57.333 -11.167 -105 -33.5 -143s-52.166 -66.5 -89.499 -85.5s-78.666 -28.5 -123.999 -28.5zM322.002 105.999c35.333 0 66.666 7.33301 93.999 22s48.833 35 64.5 61
s23.5 56 23.5 90s-7.83301 64 -23.5 90s-37.167 46.167 -64.5 60.5s-58.666 21.5 -93.999 21.5s-66.833 -7.16699 -94.5 -21.5s-49.334 -34.5 -65.001 -60.5s-23.5 -56 -23.5 -90s7.83301 -64 23.5 -90s37.334 -46.333 65.001 -61s59.167 -22 94.5 -22zM150.002 606.999
l133 130h92l133 -130h-87l-132 110h80l-132 -110h-87z" />
    <glyph glyph-name="Gbreve" unicode="&#x11e;" horiz-adv-x="772" 
d="M421 -8c-54 0 -103.667 8.83398 -149 26.501s-84.666 42.667 -117.999 75s-59.333 70.166 -78 113.499s-28 91 -28 143s9.33301 99.667 28 143s44.834 81.166 78.501 113.499s73.167 57.333 118.5 75s95.333 26.5 150 26.5c55.333 0 106 -9 152 -27s85 -45 117 -81
l-62 -62c-28.667 28 -59.834 48.5 -93.501 61.5s-70.167 19.5 -109.5 19.5c-40 0 -77.167 -6.66699 -111.5 -20s-64 -32 -89 -56s-44.333 -52.5 -58 -85.5s-20.5 -68.833 -20.5 -107.5c0 -38 6.83301 -73.5 20.5 -106.5s33 -61.667 58 -86s54.5 -43.166 88.5 -56.499
s71 -20 111 -20c37.333 0 73.166 5.83301 107.499 17.5s66.166 31.167 95.499 58.5l57 -76c-34.667 -29.333 -75.167 -51.5 -121.5 -66.5s-94.166 -22.5 -143.499 -22.5zM590 94.001v260h96v-273zM410 751.001c-45.333 0 -83.333 12.167 -114 36.5s-46.667 57.5 -48 99.5h65
c1.33301 -24.667 11.333 -44.167 30 -58.5s41 -21.5 67 -21.5s48.5 7.16699 67.5 21.5s28.833 33.833 29.5 58.5h65c-1.33301 -42 -17.333 -75.167 -48 -99.5s-68.667 -36.5 -114 -36.5z" />
    <glyph glyph-name="gbreve" unicode="&#x11f;" horiz-adv-x="690" 
d="M323 -200c-48.667 0 -95.832 6.83203 -141.499 20.499s-82.834 33.167 -111.501 58.5l46 74c24.667 -21.333 55 -38.166 91 -50.499s73.667 -18.5 113 -18.5c62.667 0 108.667 14.667 138 44s44 74 44 134v112l10 105l-5 106v145h91v-458
c0 -93.333 -23.333 -162 -70 -206s-115 -66 -205 -66zM311.002 21.999c-51.333 0 -97.166 10.833 -137.499 32.5s-72.333 51.834 -96 90.501s-35.5 83.334 -35.5 134.001c0 51.333 11.833 96.166 35.5 134.499s55.667 68.166 96 89.499s86.166 32 137.499 32
c45.333 0 86.666 -9.16699 123.999 -27.5s67.166 -46.5 89.499 -84.5s33.5 -86 33.5 -144c0 -57.333 -11.167 -105 -33.5 -143s-52.166 -66.5 -89.499 -85.5s-78.666 -28.5 -123.999 -28.5zM322.002 105.999c35.333 0 66.666 7.33301 93.999 22s48.833 35 64.5 61
s23.5 56 23.5 90s-7.83301 64 -23.5 90s-37.167 46.167 -64.5 60.5s-58.666 21.5 -93.999 21.5s-66.833 -7.16699 -94.5 -21.5s-49.334 -34.5 -65.001 -60.5s-23.5 -56 -23.5 -90s7.83301 -64 23.5 -90s37.334 -46.333 65.001 -61s59.167 -22 94.5 -22zM329.002 600.999
c-45.333 0 -83.333 12.167 -114 36.5s-46.667 57.5 -48 99.5h65c1.33301 -24.667 11.333 -44.167 30 -58.5s41 -21.5 67 -21.5s48.5 7.16699 67.5 21.5s28.833 33.833 29.5 58.5h65c-1.33301 -42 -17.333 -75.167 -48 -99.5s-68.667 -36.5 -114 -36.5z" />
    <glyph glyph-name="Gdotaccent" unicode="&#x120;" horiz-adv-x="772" 
d="M421 -8c-54 0 -103.667 8.83398 -149 26.501s-84.666 42.667 -117.999 75s-59.333 70.166 -78 113.499s-28 91 -28 143s9.33301 99.667 28 143s44.834 81.166 78.501 113.499s73.167 57.333 118.5 75s95.333 26.5 150 26.5c55.333 0 106 -9 152 -27s85 -45 117 -81
l-62 -62c-28.667 28 -59.834 48.5 -93.501 61.5s-70.167 19.5 -109.5 19.5c-40 0 -77.167 -6.66699 -111.5 -20s-64 -32 -89 -56s-44.333 -52.5 -58 -85.5s-20.5 -68.833 -20.5 -107.5c0 -38 6.83301 -73.5 20.5 -106.5s33 -61.667 58 -86s54.5 -43.166 88.5 -56.499
s71 -20 111 -20c37.333 0 73.166 5.83301 107.499 17.5s66.166 31.167 95.499 58.5l57 -76c-34.667 -29.333 -75.167 -51.5 -121.5 -66.5s-94.166 -22.5 -143.499 -22.5zM590 94.001v260h96v-273zM410 775.001c-16.667 0 -30.667 5.66699 -42 17s-17 25.333 -17 42
s5.66699 30.667 17 42s25.333 17 42 17s30.667 -5.66699 42 -17s17 -25.333 17 -42s-5.66699 -30.667 -17 -42s-25.333 -17 -42 -17z" />
    <glyph glyph-name="gdotaccent" unicode="&#x121;" horiz-adv-x="690" 
d="M323 -200c-48.667 0 -95.832 6.83203 -141.499 20.499s-82.834 33.167 -111.501 58.5l46 74c24.667 -21.333 55 -38.166 91 -50.499s73.667 -18.5 113 -18.5c62.667 0 108.667 14.667 138 44s44 74 44 134v112l10 105l-5 106v145h91v-458
c0 -93.333 -23.333 -162 -70 -206s-115 -66 -205 -66zM311.002 21.999c-51.333 0 -97.166 10.833 -137.499 32.5s-72.333 51.834 -96 90.501s-35.5 83.334 -35.5 134.001c0 51.333 11.833 96.166 35.5 134.499s55.667 68.166 96 89.499s86.166 32 137.499 32
c45.333 0 86.666 -9.16699 123.999 -27.5s67.166 -46.5 89.499 -84.5s33.5 -86 33.5 -144c0 -57.333 -11.167 -105 -33.5 -143s-52.166 -66.5 -89.499 -85.5s-78.666 -28.5 -123.999 -28.5zM322.002 105.999c35.333 0 66.666 7.33301 93.999 22s48.833 35 64.5 61
s23.5 56 23.5 90s-7.83301 64 -23.5 90s-37.167 46.167 -64.5 60.5s-58.666 21.5 -93.999 21.5s-66.833 -7.16699 -94.5 -21.5s-49.334 -34.5 -65.001 -60.5s-23.5 -56 -23.5 -90s7.83301 -64 23.5 -90s37.334 -46.333 65.001 -61s59.167 -22 94.5 -22zM329.002 624.999
c-16.667 0 -30.667 5.66699 -42 17s-17 25.333 -17 42s5.66699 30.667 17 42s25.333 17 42 17s30.667 -5.66699 42 -17s17 -25.333 17 -42s-5.66699 -30.667 -17 -42s-25.333 -17 -42 -17z" />
    <glyph glyph-name="uni0122" unicode="&#x122;" horiz-adv-x="772" 
d="M421 -8c-54 0 -103.667 8.83398 -149 26.501s-84.666 42.667 -117.999 75s-59.333 70.166 -78 113.499s-28 91 -28 143s9.33301 99.667 28 143s44.834 81.166 78.501 113.499s73.167 57.333 118.5 75s95.333 26.5 150 26.5c55.333 0 106 -9 152 -27s85 -45 117 -81
l-62 -62c-28.667 28 -59.834 48.5 -93.501 61.5s-70.167 19.5 -109.5 19.5c-40 0 -77.167 -6.66699 -111.5 -20s-64 -32 -89 -56s-44.333 -52.5 -58 -85.5s-20.5 -68.833 -20.5 -107.5c0 -38 6.83301 -73.5 20.5 -106.5s33 -61.667 58 -86s54.5 -43.166 88.5 -56.499
s71 -20 111 -20c37.333 0 73.166 5.83301 107.499 17.5s66.166 31.167 95.499 58.5l57 -76c-34.667 -29.333 -75.167 -51.5 -121.5 -66.5s-94.166 -22.5 -143.499 -22.5zM590 94.001v260h96v-273zM363 -262.999l33.001 114.002l9 -36c-16 0 -28.5 4.16699 -37.5 12.5
s-13.5 19.166 -13.5 32.499s4.66699 24.333 14 33s21.666 13 36.999 13c16 0 28.5 -4.5 37.5 -13.5s13.5 -19.833 13.5 -32.5c0 -6.66699 -0.833008 -14.334 -2.5 -23.001s-5.16699 -18 -10.5 -28l-30 -72h-50z" />
    <glyph glyph-name="uni0123" unicode="&#x123;" horiz-adv-x="690" 
d="M323 -200c-48.667 0 -95.832 6.83203 -141.499 20.499s-82.834 33.167 -111.501 58.5l46 74c24.667 -21.333 55 -38.166 91 -50.499s73.667 -18.5 113 -18.5c62.667 0 108.667 14.667 138 44s44 74 44 134v112l10 105l-5 106v145h91v-458
c0 -93.333 -23.333 -162 -70 -206s-115 -66 -205 -66zM311.002 21.999c-51.333 0 -97.166 10.833 -137.499 32.5s-72.333 51.834 -96 90.501s-35.5 83.334 -35.5 134.001c0 51.333 11.833 96.166 35.5 134.499s55.667 68.166 96 89.499s86.166 32 137.499 32
c45.333 0 86.666 -9.16699 123.999 -27.5s67.166 -46.5 89.499 -84.5s33.5 -86 33.5 -144c0 -57.333 -11.167 -105 -33.5 -143s-52.166 -66.5 -89.499 -85.5s-78.666 -28.5 -123.999 -28.5zM322.002 105.999c35.333 0 66.666 7.33301 93.999 22s48.833 35 64.5 61
s23.5 56 23.5 90s-7.83301 64 -23.5 90s-37.167 46.167 -64.5 60.5s-58.666 21.5 -93.999 21.5s-66.833 -7.16699 -94.5 -21.5s-49.334 -34.5 -65.001 -60.5s-23.5 -56 -23.5 -90s7.83301 -64 23.5 -90s37.334 -46.333 65.001 -61s59.167 -22 94.5 -22zM329.002 600.999
c-18 0 -31.832 4.5 -41.499 13.5s-14.5 19.833 -14.5 32.5c0 6.66699 1.16699 14 3.5 22s6.16602 17.333 11.499 28l37 94h55l-39 -135l-12 36c17.333 0 31 -4 41 -12s15 -19 15 -33c0 -13.333 -4.83301 -24.333 -14.5 -33s-23.5 -13 -41.5 -13z" />
    <glyph glyph-name="Hcircumflex" unicode="&#x124;" horiz-adv-x="812" 
d="M607 700h100v-700h-100v700zM205 0h-100v700h100v-700zM616 312h-421v87h421v-87zM226 757l133 130h92l133 -130h-87l-132 110h80l-132 -110h-87z" />
    <glyph glyph-name="hcircumflex" unicode="&#x125;" horiz-adv-x="681" 
d="M374 535c43.333 0 81.5 -8.33301 114.5 -25s58.833 -42 77.5 -76s28 -77 28 -129v-305h-96v294c0 51.333 -12.5 90 -37.5 116s-60.167 39 -105.5 39c-34 0 -63.667 -6.66699 -89 -20s-44.833 -33 -58.5 -59s-20.5 -58.333 -20.5 -97v-273h-96v742h96v-355l-19 38
c17.333 34.667 44 61.667 80 81s78 29 126 29zM-40 799l133 130h92l133 -130h-87l-132 110h80l-132 -110h-87z" />
    <glyph glyph-name="Hbar" unicode="&#x126;" horiz-adv-x="827" 
d="M615 700h100v-700h-100v700zM213 0h-100v700h100v-700zM624 312h-421v87h421v-87zM9 514v79h807v-79h-807z" />
    <glyph glyph-name="hbar" unicode="&#x127;" horiz-adv-x="681" 
d="M374 535c43.333 0 81.5 -8.33301 114.5 -25s58.833 -42 77.5 -76s28 -77 28 -129v-305h-96v294c0 51.333 -12.5 90 -37.5 116s-60.167 39 -105.5 39c-34 0 -63.667 -6.66699 -89 -20s-44.833 -33 -58.5 -59s-20.5 -58.333 -20.5 -97v-273h-96v742h96v-355l-19 38
c17.333 34.667 44 61.667 80 81s78 29 126 29zM0 601v68h396v-68h-396z" />
    <glyph glyph-name="Itilde" unicode="&#x128;" horiz-adv-x="310" 
d="M105 0v700h100v-700h-100zM225 760c-16 0 -30.165 3.33203 -42.498 9.99902s-23.5 14.5 -33.5 23.5s-19.667 16.833 -29 23.5s-18.666 10 -27.999 10c-14.667 0 -26.5 -5.5 -35.5 -16.5s-14.167 -26.167 -15.5 -45.5h-54c1.33301 37.333 10.666 67 27.999 89
s40.666 33 69.999 33c16 0 30.333 -3.5 43 -10.5s24 -15 34 -24s19.5 -16.833 28.5 -23.5s18.167 -10 27.5 -10c14.667 0 26.667 5.33301 36 16s14.333 25.334 15 44.001h54c-0.666992 -35.333 -9.83398 -64 -27.501 -86s-41.167 -33 -70.5 -33z" />
    <glyph glyph-name="itilde" unicode="&#x129;" horiz-adv-x="279" 
d="M91 0v530h96v-530h-96zM199 610c-14.667 0 -27.501 3.33398 -38.501 10.001s-20.833 14.5 -29.5 23.5s-16.667 16.833 -24 23.5s-15 10 -23 10c-11.333 0 -19.833 -5.5 -25.5 -16.5s-8.5 -26.167 -8.5 -45.5h-54c0 39.333 7.33301 69.5 22 90.5s35 31.5 61 31.5
c15.333 0 28.333 -3.5 39 -10.5s20.334 -14.833 29.001 -23.5s16.667 -16.334 24 -23.001s15 -10 23 -10c11.333 0 19.833 5.33301 25.5 16s8.5 25 8.5 43h54c0 -37.333 -7.33301 -66.5 -22 -87.5s-35 -31.5 -61 -31.5z" />
    <glyph glyph-name="Imacron" unicode="&#x12a;" horiz-adv-x="310" 
d="M105 0v700h100v-700h-100zM22 792v60h266v-60h-266z" />
    <glyph glyph-name="imacron" unicode="&#x12b;" horiz-adv-x="279" 
d="M91 0v530h96v-530h-96zM6 642v60h266v-60h-266z" />
    <glyph glyph-name="Ibreve" unicode="&#x12c;" horiz-adv-x="310" 
d="M105 0v700h100v-700h-100zM155 751c-45.333 0 -83.333 12.167 -114 36.5s-46.667 57.5 -48 99.5h65c1.33301 -24.667 11.333 -44.167 30 -58.5s41 -21.5 67 -21.5s48.5 7.16699 67.5 21.5s28.833 33.833 29.5 58.5h65c-1.33301 -42 -17.333 -75.167 -48 -99.5
s-68.667 -36.5 -114 -36.5z" />
    <glyph glyph-name="ibreve" unicode="&#x12d;" horiz-adv-x="279" 
d="M91 0v530h96v-530h-96zM139 601c-39.333 0 -71.998 12.167 -97.998 36.5s-39 57.5 -39 99.5h62c0 -24.667 6.66699 -44.167 20 -58.5s31.666 -21.5 54.999 -21.5s41.666 7.16699 54.999 21.5s20 33.833 20 58.5h62c0 -42 -13 -75.167 -39 -99.5s-58.667 -36.5 -98 -36.5z
" />
    <glyph glyph-name="Iogonek" unicode="&#x12e;" horiz-adv-x="310" 
d="M105 0v700h100v-700h-100zM178 -224c-30 0 -54.167 8.83301 -72.5 26.5s-27.5 41.167 -27.5 70.5c0 26 7 52.5 21 79.5s37.667 53.167 71 78.5l35 -31c-24.667 -24 -40.667 -45.5 -48 -64.5s-11 -36.167 -11 -51.5c0 -16 4.33301 -28.667 13 -38s19 -14 31 -14
c6 0 11.833 1 17.5 3s11.167 5 16.5 9l17 -48c-16 -13.333 -37 -20 -63 -20z" />
    <glyph glyph-name="iogonek" unicode="&#x12f;" horiz-adv-x="279" 
d="M91 0v530h96v-530h-96zM139 632c-18.667 0 -34.167 6 -46.5 18s-18.5 26.667 -18.5 44c0 18 6.16699 33 18.5 45s27.833 18 46.5 18s34.167 -5.83301 46.5 -17.5s18.5 -26.167 18.5 -43.5c0 -18 -6 -33.167 -18 -45.5s-27.667 -18.5 -47 -18.5zM160 -224
c-30 0 -54.167 8.83301 -72.5 26.5s-27.5 41.167 -27.5 70.5c0 26 7 52.5 21 79.5s37.667 53.167 71 78.5l35 -31c-24.667 -24 -40.667 -45.5 -48 -64.5s-11 -36.167 -11 -51.5c0 -16 4.33301 -28.667 13 -38s19 -14 31 -14c6 0 11.833 1 17.5 3s11.167 5 16.5 9l17 -48
c-16 -13.333 -37 -20 -63 -20z" />
    <glyph glyph-name="Idotaccent" unicode="&#x130;" horiz-adv-x="310" 
d="M105 0v700h100v-700h-100zM155 775c-16.667 0 -30.667 5.66699 -42 17s-17 25.333 -17 42s5.66699 30.667 17 42s25.333 17 42 17s30.667 -5.66699 42 -17s17 -25.333 17 -42s-5.66699 -30.667 -17 -42s-25.333 -17 -42 -17z" />
    <glyph glyph-name="dotlessi" unicode="&#x131;" horiz-adv-x="279" 
d="M91 0v530h96v-530h-96z" />
    <glyph glyph-name="IJ" unicode="&#x132;" horiz-adv-x="720" 
d="M327 -8c-47.333 0 -91.498 6.50098 -132.498 19.501s-76.833 30.167 -107.5 51.5l39 80c28.667 -20 60.5 -35.333 95.5 -46s70.833 -16 107.5 -16c61.333 0 108.666 18 141.999 54s50 91.667 50 167v398h100v-393c0 -69.333 -12.333 -127.333 -37 -174
s-58.834 -81.834 -102.501 -105.501s-95.167 -35.5 -154.5 -35.5zM99.002 309.001v391h100v-391h-100z" />
    <glyph glyph-name="ij" unicode="&#x133;" horiz-adv-x="562" 
d="M91 0v530h96v-530h-96zM139 632c-18.667 0 -34.167 6 -46.5 18s-18.5 26.667 -18.5 44c0 18 6.16699 33 18.5 45s27.833 18 46.5 18s34.167 -5.83301 46.5 -17.5s18.5 -26.167 18.5 -43.5c0 -18 -6 -33.167 -18 -45.5s-27.667 -18.5 -47 -18.5zM302 -200
c-22 0 -43.167 2.66602 -63.5 7.99902s-37.5 13.333 -51.5 24l31 74c20 -16.667 46 -25 78 -25c25.333 0 44.833 7.83301 58.5 23.5s20.5 38.834 20.5 69.501v556h96v-554c0 -54 -14.5 -96.833 -43.5 -128.5s-70.833 -47.5 -125.5 -47.5zM423 631.999
c-18.667 0 -34.167 6 -46.5 18s-18.5 26.667 -18.5 44c0 18 6.16699 33 18.5 45s27.833 18 46.5 18s34.167 -5.83301 46.5 -17.5s18.5 -26.167 18.5 -43.5c0 -18 -6 -33.167 -18 -45.5s-27.667 -18.5 -47 -18.5z" />
    <glyph glyph-name="Jcircumflex" unicode="&#x134;" horiz-adv-x="513" 
d="M195 -8c-41.333 0 -79.998 8.66699 -115.998 26s-65.333 42.333 -88 75l58 68c19.333 -26.667 41.166 -47.167 65.499 -61.5s51.166 -21.5 80.499 -21.5c80 0 120 47.333 120 142v393h-253v87h352v-475c0 -78 -18.5 -136.333 -55.5 -175s-91.5 -58 -163.5 -58z
M60.002 757l133 130h92l133 -130h-87l-132 110h80l-132 -110h-87z" />
    <glyph glyph-name="jcircumflex" unicode="&#x135;" horiz-adv-x="284" 
d="M23 -200c-22 0 -43.167 2.66602 -63.5 7.99902s-37.5 13.333 -51.5 24l31 74c20 -16.667 46 -25 78 -25c25.333 0 44.833 7.83301 58.5 23.5s20.5 38.834 20.5 69.501v556h96v-554c0 -54 -14.5 -96.833 -43.5 -128.5s-70.833 -47.5 -125.5 -47.5zM-10 606.999l109 130h90
l109 -130h-82l-107 110h70l-107 -110h-82z" />
    <glyph glyph-name="uni0136" unicode="&#x136;" horiz-adv-x="719" 
d="M193 169l-5 122l397 409h114l-307 -324l-56 -62zM105 0v700h100v-700h-100zM601 0l-287 334l67 74l337 -408h-117zM333 -263l33.001 114.002l9 -36c-16 0 -28.5 4.16699 -37.5 12.5s-13.5 19.166 -13.5 32.499s4.66699 24.333 14 33s21.666 13 36.999 13
c16 0 28.5 -4.5 37.5 -13.5s13.5 -19.833 13.5 -32.5c0 -6.66699 -0.833008 -14.334 -2.5 -23.001s-5.16699 -18 -10.5 -28l-30 -72h-50z" />
    <glyph glyph-name="uni0137" unicode="&#x137;" horiz-adv-x="616" 
d="M169 128l2 123l305 279h116l-234 -230l-52 -44zM91 0v742h96v-742h-96zM496 0l-208 258l62 77l264 -335h-118zM271 -263l33.001 114.002l9 -36c-16 0 -28.5 4.16699 -37.5 12.5s-13.5 19.166 -13.5 32.499s4.66699 24.333 14 33s21.666 13 36.999 13
c16 0 28.5 -4.5 37.5 -13.5s13.5 -19.833 13.5 -32.5c0 -6.66699 -0.833008 -14.334 -2.5 -23.001s-5.16699 -18 -10.5 -28l-30 -72h-50z" />
    <glyph glyph-name="kgreenlandic" unicode="&#x138;" horiz-adv-x="606" 
d="M169 128l2 123l305 279h116l-234 -230l-52 -44zM91 0v530h96v-530h-96zM496 0l-208 258l62 77l264 -335h-118z" />
    <glyph glyph-name="Lacute" unicode="&#x139;" horiz-adv-x="594" 
d="M105 0v700h100v-613h379v-87h-479zM80 757l136 130h122l-168 -130h-90z" />
    <glyph glyph-name="lacute" unicode="&#x13a;" horiz-adv-x="279" 
d="M91 0v742h96v-742h-96zM64 819l136 130h122l-168 -130h-90z" />
    <glyph glyph-name="uni013B" unicode="&#x13b;" horiz-adv-x="594" 
d="M105 0v700h100v-613h379v-87h-479zM314 -263l33.001 114.002l9 -36c-16 0 -28.5 4.16699 -37.5 12.5s-13.5 19.166 -13.5 32.499s4.66699 24.333 14 33s21.666 13 36.999 13c16 0 28.5 -4.5 37.5 -13.5s13.5 -19.833 13.5 -32.5
c0 -6.66699 -0.833008 -14.334 -2.5 -23.001s-5.16699 -18 -10.5 -28l-30 -72h-50z" />
    <glyph glyph-name="uni013C" unicode="&#x13c;" horiz-adv-x="279" 
d="M91 0v742h96v-742h-96zM97 -263l33.001 114.002l9 -36c-16 0 -28.5 4.16699 -37.5 12.5s-13.5 19.166 -13.5 32.499s4.66699 24.333 14 33s21.666 13 36.999 13c16 0 28.5 -4.5 37.5 -13.5s13.5 -19.833 13.5 -32.5c0 -6.66699 -0.833008 -14.334 -2.5 -23.001
s-5.16699 -18 -10.5 -28l-30 -72h-50z" />
    <glyph glyph-name="Lcaron" unicode="&#x13d;" horiz-adv-x="594" 
d="M105 0v700h100v-613h379v-87h-479zM438 540v193h79l-12 -193h-67z" />
    <glyph glyph-name="lcaron" unicode="&#x13e;" horiz-adv-x="279" 
d="M91 0v742h96v-742h-96zM276 582v193h79l-12 -193h-67z" />
    <glyph glyph-name="Ldot" unicode="&#x13f;" horiz-adv-x="594" 
d="M105 0v700h100v-613h379v-87h-479zM452 331c-16.667 0 -31 5.83301 -43 17.5s-18 26.5 -18 44.5s6 32.833 18 44.5s26.333 17.5 43 17.5s30.834 -5.83301 42.501 -17.5s17.5 -26.5 17.5 -44.5s-5.83301 -32.833 -17.5 -44.5s-25.834 -17.5 -42.501 -17.5z" />
    <glyph glyph-name="ldot" unicode="&#x140;" horiz-adv-x="345" 
d="M91 0v742h96v-742h-96zM312 301c-16.667 0 -30.5 5.5 -41.5 16.5s-16.5 24.5 -16.5 40.5c0 15.333 5.5 28.666 16.5 39.999s24.833 17 41.5 17c16 0 29.5 -5.66699 40.5 -17s16.5 -24.666 16.5 -39.999c0 -16 -5.5 -29.5 -16.5 -40.5s-24.5 -16.5 -40.5 -16.5z" />
    <glyph glyph-name="Lslash" unicode="&#x141;" horiz-adv-x="601" 
d="M113 0v700h100v-613h379v-87h-479zM52 247l-44 56l316 240l44 -56z" />
    <glyph glyph-name="lslash" unicode="&#x142;" horiz-adv-x="294" 
d="M99 0v742h96v-742h-96zM36 229l-43 57l265 202l43 -58z" />
    <glyph glyph-name="Nacute" unicode="&#x143;" horiz-adv-x="812" 
d="M105 0v700h82l463 -575h-43v575h100v-700h-82l-463 575h43v-575h-100zM330 757l136 130h122l-168 -130h-90z" />
    <glyph glyph-name="nacute" unicode="&#x144;" horiz-adv-x="681" 
d="M374 535c43.333 0 81.5 -8.33301 114.5 -25s58.833 -42 77.5 -76s28 -77 28 -129v-305h-96v294c0 51.333 -12.5 90 -37.5 116s-60.167 39 -105.5 39c-34 0 -63.667 -6.66699 -89 -20s-44.833 -33 -58.5 -59s-20.5 -58.333 -20.5 -97v-273h-96v530h92v-143l-15 38
c17.333 34.667 44 61.667 80 81s78 29 126 29zM268 607l136 130h122l-168 -130h-90z" />
    <glyph glyph-name="uni0145" unicode="&#x145;" horiz-adv-x="812" 
d="M105 0v700h82l463 -575h-43v575h100v-700h-82l-463 575h43v-575h-100zM363 -263l33.001 114.002l9 -36c-16 0 -28.5 4.16699 -37.5 12.5s-13.5 19.166 -13.5 32.499s4.66699 24.333 14 33s21.666 13 36.999 13c16 0 28.5 -4.5 37.5 -13.5s13.5 -19.833 13.5 -32.5
c0 -6.66699 -0.833008 -14.334 -2.5 -23.001s-5.16699 -18 -10.5 -28l-30 -72h-50z" />
    <glyph glyph-name="uni0146" unicode="&#x146;" horiz-adv-x="681" 
d="M374 535c43.333 0 81.5 -8.33301 114.5 -25s58.833 -42 77.5 -76s28 -77 28 -129v-305h-96v294c0 51.333 -12.5 90 -37.5 116s-60.167 39 -105.5 39c-34 0 -63.667 -6.66699 -89 -20s-44.833 -33 -58.5 -59s-20.5 -58.333 -20.5 -97v-273h-96v530h92v-143l-15 38
c17.333 34.667 44 61.667 80 81s78 29 126 29zM301 -263l33.001 114.002l9 -36c-16 0 -28.5 4.16699 -37.5 12.5s-13.5 19.166 -13.5 32.499s4.66699 24.333 14 33s21.666 13 36.999 13c16 0 28.5 -4.5 37.5 -13.5s13.5 -19.833 13.5 -32.5
c0 -6.66699 -0.833008 -14.334 -2.5 -23.001s-5.16699 -18 -10.5 -28l-30 -72h-50z" />
    <glyph glyph-name="Ncaron" unicode="&#x147;" horiz-adv-x="812" 
d="M105 0v700h82l463 -575h-43v575h100v-700h-82l-463 575h43v-575h-100zM359 757l-133 130h87l132 -109h-80l132 109h87l-133 -130h-92z" />
    <glyph glyph-name="ncaron" unicode="&#x148;" horiz-adv-x="681" 
d="M374 535c43.333 0 81.5 -8.33301 114.5 -25s58.833 -42 77.5 -76s28 -77 28 -129v-305h-96v294c0 51.333 -12.5 90 -37.5 116s-60.167 39 -105.5 39c-34 0 -63.667 -6.66699 -89 -20s-44.833 -33 -58.5 -59s-20.5 -58.333 -20.5 -97v-273h-96v530h92v-143l-15 38
c17.333 34.667 44 61.667 80 81s78 29 126 29zM297 607l-133 130h87l132 -109h-80l132 109h87l-133 -130h-92z" />
    <glyph glyph-name="napostrophe" unicode="&#x149;" horiz-adv-x="728" 
d="M7 469l50 203l13 -58c-19.333 0 -35.5 6 -48.5 18s-19.5 28 -19.5 48c0 20.667 6.5 37.167 19.5 49.5s28.833 18.5 47.5 18.5c19.333 0 35 -6.5 47 -19.5s18 -29.167 18 -48.5c0 -6 -0.333008 -12.167 -1 -18.5s-2.16699 -13.5 -4.5 -21.5s-5.83301 -18.333 -10.5 -31
l-48 -140h-63zM421 535c43.333 0 81.5 -8.33301 114.5 -25s58.833 -42 77.5 -76s28 -77 28 -129v-305h-96v294c0 51.333 -12.5 90 -37.5 116s-60.167 39 -105.5 39c-34 0 -63.667 -6.66699 -89 -20s-44.833 -33 -58.5 -59s-20.5 -58.333 -20.5 -97v-273h-96v530h92v-143
l-15 38c17.333 34.667 44 61.667 80 81s78 29 126 29z" />
    <glyph glyph-name="Eng" unicode="&#x14a;" horiz-adv-x="812" 
d="M105 0v700h82l463 -575l-25 -125l-463 575h43v-575h-100zM490 -200c-35.333 0 -68.667 6.83301 -100 20.5s-58 33.167 -80 58.5l49 72c16 -20 35 -35.833 57 -47.5s46.667 -17.5 74 -17.5c78 0 117 47.667 117 143v671h100v-658c0 -82 -18.333 -142.833 -55 -182.5
s-90.667 -59.5 -162 -59.5z" />
    <glyph glyph-name="eng" unicode="&#x14b;" horiz-adv-x="681" 
d="M374 535c43.333 0 81.5 -8.33398 114.5 -25.001s58.833 -42 77.5 -76s28 -77 28 -129v-329c0 -54 -14.5 -96.833 -43.5 -128.5s-70.833 -47.5 -125.5 -47.5c-22 0 -43.167 2.66699 -63.5 8s-37.5 13.333 -51.5 24l31 74c20 -16.667 46 -25 78 -25
c25.333 0 44.833 7.83301 58.5 23.5s20.5 38.834 20.5 69.501v320c0 51.333 -12.5 90 -37.5 116s-60.167 39 -105.5 39c-34 0 -63.667 -6.66699 -89 -20s-44.833 -33 -58.5 -59s-20.5 -58.333 -20.5 -97v-273h-96v530h92v-143l-15 38c17.333 34.667 44 61.667 80 81
s78 29 126 29z" />
    <glyph glyph-name="Omacron" unicode="&#x14c;" horiz-adv-x="840" 
d="M421 -8c-53.333 0 -102.832 9.00195 -148.499 27.002s-85.167 43.167 -118.5 75.5s-59.333 70.166 -78 113.499s-28 90.666 -28 141.999s9.33301 98.666 28 141.999s44.667 81.166 78 113.499s72.666 57.5 117.999 75.5s95 27 149 27
c53.333 0 102.5 -8.83301 147.5 -26.5s84.333 -42.667 118 -75s59.667 -70.166 78 -113.499s27.5 -91 27.5 -143s-9.16699 -99.667 -27.5 -143s-44.333 -81.166 -78 -113.499s-73 -57.333 -118 -75s-94.167 -26.5 -147.5 -26.5zM421.001 81.002
c38.667 0 74.5 6.66699 107.5 20s61.667 32.166 86 56.499s43.333 52.833 57 85.5s20.5 68.334 20.5 107.001s-6.83301 74.334 -20.5 107.001s-32.667 61.167 -57 85.5s-53 43.166 -86 56.499s-68.833 20 -107.5 20c-39.333 0 -75.5 -6.66699 -108.5 -20
s-61.833 -32.166 -86.5 -56.499s-43.834 -52.833 -57.501 -85.5s-20.5 -68.334 -20.5 -107.001s6.83301 -74.334 20.5 -107.001s32.834 -61.167 57.501 -85.5s53.5 -43.166 86.5 -56.499s69.167 -20 108.5 -20zM258.001 792.002v60h326v-60h-326z" />
    <glyph glyph-name="omacron" unicode="&#x14d;" horiz-adv-x="635" 
d="M318 -6c-53.333 0 -100.666 11.666 -141.999 34.999s-74 55.5 -98 96.5s-36 87.5 -36 139.5c0 52.667 12 99.334 36 140.001s56.667 72.5 98 95.5s88.666 34.5 141.999 34.5c52.667 0 99.834 -11.5 141.501 -34.5s74.334 -54.667 98.001 -95s35.5 -87.166 35.5 -140.499
c0 -52.667 -11.833 -99.334 -35.5 -140.001s-56.334 -72.667 -98.001 -96s-88.834 -35 -141.501 -35zM318 77.999c34 0 64.5 7.66699 91.5 23s48.167 37.166 63.5 65.499s23 61.166 23 98.499c0 38 -7.66699 70.833 -23 98.5s-36.5 49.167 -63.5 64.5s-57.5 23 -91.5 23
s-64.333 -7.66699 -91 -23s-48 -36.833 -64 -64.5s-24 -60.5 -24 -98.5c0 -37.333 8 -70.166 24 -98.499s37.333 -50.166 64 -65.499s57 -23 91 -23zM154 641.999v60h326v-60h-326z" />
    <glyph glyph-name="Obreve" unicode="&#x14e;" horiz-adv-x="840" 
d="M421 -8c-53.333 0 -102.832 9.00195 -148.499 27.002s-85.167 43.167 -118.5 75.5s-59.333 70.166 -78 113.499s-28 90.666 -28 141.999s9.33301 98.666 28 141.999s44.667 81.166 78 113.499s72.666 57.5 117.999 75.5s95 27 149 27
c53.333 0 102.5 -8.83301 147.5 -26.5s84.333 -42.667 118 -75s59.667 -70.166 78 -113.499s27.5 -91 27.5 -143s-9.16699 -99.667 -27.5 -143s-44.333 -81.166 -78 -113.499s-73 -57.333 -118 -75s-94.167 -26.5 -147.5 -26.5zM421.001 81.002
c38.667 0 74.5 6.66699 107.5 20s61.667 32.166 86 56.499s43.333 52.833 57 85.5s20.5 68.334 20.5 107.001s-6.83301 74.334 -20.5 107.001s-32.667 61.167 -57 85.5s-53 43.166 -86 56.499s-68.833 20 -107.5 20c-39.333 0 -75.5 -6.66699 -108.5 -20
s-61.833 -32.166 -86.5 -56.499s-43.834 -52.833 -57.501 -85.5s-20.5 -68.334 -20.5 -107.001s6.83301 -74.334 20.5 -107.001s32.834 -61.167 57.501 -85.5s53.5 -43.166 86.5 -56.499s69.167 -20 108.5 -20zM421.001 751.002c-45.333 0 -83.333 12.167 -114 36.5
s-46.667 57.5 -48 99.5h65c1.33301 -24.667 11.333 -44.167 30 -58.5s41 -21.5 67 -21.5s48.5 7.16699 67.5 21.5s28.833 33.833 29.5 58.5h65c-1.33301 -42 -17.333 -75.167 -48 -99.5s-68.667 -36.5 -114 -36.5z" />
    <glyph glyph-name="obreve" unicode="&#x14f;" horiz-adv-x="635" 
d="M318 -6c-53.333 0 -100.666 11.666 -141.999 34.999s-74 55.5 -98 96.5s-36 87.5 -36 139.5c0 52.667 12 99.334 36 140.001s56.667 72.5 98 95.5s88.666 34.5 141.999 34.5c52.667 0 99.834 -11.5 141.501 -34.5s74.334 -54.667 98.001 -95s35.5 -87.166 35.5 -140.499
c0 -52.667 -11.833 -99.334 -35.5 -140.001s-56.334 -72.667 -98.001 -96s-88.834 -35 -141.501 -35zM318 77.999c34 0 64.5 7.66699 91.5 23s48.167 37.166 63.5 65.499s23 61.166 23 98.499c0 38 -7.66699 70.833 -23 98.5s-36.5 49.167 -63.5 64.5s-57.5 23 -91.5 23
s-64.333 -7.66699 -91 -23s-48 -36.833 -64 -64.5s-24 -60.5 -24 -98.5c0 -37.333 8 -70.166 24 -98.499s37.333 -50.166 64 -65.499s57 -23 91 -23zM317 600.999c-45.333 0 -83.333 12.167 -114 36.5s-46.667 57.5 -48 99.5h65c1.33301 -24.667 11.333 -44.167 30 -58.5
s41 -21.5 67 -21.5s48.5 7.16699 67.5 21.5s28.833 33.833 29.5 58.5h65c-1.33301 -42 -17.333 -75.167 -48 -99.5s-68.667 -36.5 -114 -36.5z" />
    <glyph glyph-name="Ohungarumlaut" unicode="&#x150;" horiz-adv-x="840" 
d="M421 -8c-53.333 0 -102.832 9.00195 -148.499 27.002s-85.167 43.167 -118.5 75.5s-59.333 70.166 -78 113.499s-28 90.666 -28 141.999s9.33301 98.666 28 141.999s44.667 81.166 78 113.499s72.666 57.5 117.999 75.5s95 27 149 27
c53.333 0 102.5 -8.83301 147.5 -26.5s84.333 -42.667 118 -75s59.667 -70.166 78 -113.499s27.5 -91 27.5 -143s-9.16699 -99.667 -27.5 -143s-44.333 -81.166 -78 -113.499s-73 -57.333 -118 -75s-94.167 -26.5 -147.5 -26.5zM421.001 81.002
c38.667 0 74.5 6.66699 107.5 20s61.667 32.166 86 56.499s43.333 52.833 57 85.5s20.5 68.334 20.5 107.001s-6.83301 74.334 -20.5 107.001s-32.667 61.167 -57 85.5s-53 43.166 -86 56.499s-68.833 20 -107.5 20c-39.333 0 -75.5 -6.66699 -108.5 -20
s-61.833 -32.166 -86.5 -56.499s-43.834 -52.833 -57.501 -85.5s-20.5 -68.334 -20.5 -107.001s6.83301 -74.334 20.5 -107.001s32.834 -61.167 57.501 -85.5s53.5 -43.166 86.5 -56.499s69.167 -20 108.5 -20zM468.001 757.002l89 130h101l-109 -130h-81zM293.001 757.002
l90 130h102l-111 -130h-81z" />
    <glyph glyph-name="ohungarumlaut" unicode="&#x151;" horiz-adv-x="635" 
d="M318 -6c-53.333 0 -100.666 11.666 -141.999 34.999s-74 55.5 -98 96.5s-36 87.5 -36 139.5c0 52.667 12 99.334 36 140.001s56.667 72.5 98 95.5s88.666 34.5 141.999 34.5c52.667 0 99.834 -11.5 141.501 -34.5s74.334 -54.667 98.001 -95s35.5 -87.166 35.5 -140.499
c0 -52.667 -11.833 -99.334 -35.5 -140.001s-56.334 -72.667 -98.001 -96s-88.834 -35 -141.501 -35zM318 77.999c34 0 64.5 7.66699 91.5 23s48.167 37.166 63.5 65.499s23 61.166 23 98.499c0 38 -7.66699 70.833 -23 98.5s-36.5 49.167 -63.5 64.5s-57.5 23 -91.5 23
s-64.333 -7.66699 -91 -23s-48 -36.833 -64 -64.5s-24 -60.5 -24 -98.5c0 -37.333 8 -70.166 24 -98.499s37.333 -50.166 64 -65.499s57 -23 91 -23zM364 606.999l89 130h101l-109 -130h-81zM189 606.999l90 130h102l-111 -130h-81z" />
    <glyph glyph-name="OE" unicode="&#x152;" horiz-adv-x="1126" 
d="M426 0c-74.667 0 -140.334 14.6699 -197.001 44.0029s-101 70.166 -133 122.499s-48 113.166 -48 182.499s16 130.5 48 183.5s76.333 94.167 133 123.5s122.334 44 197.001 44h160v-87h-155c-56.667 0 -106.334 -11 -149.001 -33s-75.667 -52.833 -99 -92.5
s-35 -85.834 -35 -138.501c0 -52 11.667 -97.667 35 -137s56.333 -70 99 -92s92.334 -33 149.001 -33h155v-87h-160zM652 398.003h360v-85h-360v85zM660 87.0029h409v-87h-508v700h494v-87h-395v-526z" />
    <glyph glyph-name="oe" unicode="&#x153;" horiz-adv-x="1067" 
d="M318 -6c-53.333 0 -100.666 11.667 -141.999 35s-74 55.333 -98 96s-36 87.334 -36 140.001s12 99.334 36 140.001s56.667 72.5 98 95.5s88.666 34.5 141.999 34.5c52.667 0 99 -11.5 139 -34.5s71.167 -54.833 93.5 -95.5s33.5 -87.334 33.5 -140.001
s-11.167 -99.334 -33.5 -140.001s-53.5 -72.667 -93.5 -96s-86.333 -35 -139 -35zM318 78c34 0 64.5 7.66699 91.5 23s48.167 37.166 63.5 65.499s23 61.166 23 98.499c0 38 -7.66699 70.833 -23 98.5s-36.5 49.167 -63.5 64.5s-57.5 23 -91.5 23s-64.333 -7.66699 -91 -23
s-48 -36.833 -64 -64.5s-24 -60.5 -24 -98.5c0 -37.333 8 -70.166 24 -98.499s37.333 -50.166 64 -65.499s57 -23 91 -23zM781 -6c-56 0 -104.997 11.665 -146.997 34.998s-74.333 55.333 -97 96s-34 87.334 -34 140.001s11 99.334 33 140.001s52.5 72.5 91.5 95.5
s83.833 34.5 134.5 34.5c51.333 0 96.666 -11.333 135.999 -34s70.166 -54.5 92.499 -95.5s33.5 -88.833 33.5 -143.5v-14c0 -5.33301 -0.333008 -10.333 -1 -15h-451v69h400l-38 -24c0.666992 34 -6.5 64.333 -21.5 91s-35.333 47.5 -61 62.5s-55.5 22.5 -89.5 22.5
c-33.333 0 -62.833 -7.5 -88.5 -22.5s-45.834 -36 -60.501 -63s-22 -57.833 -22 -92.5v-16c0 -35.333 8 -66.833 24 -94.5s38.667 -49.167 68 -64.5s63 -23 101 -23c31.333 0 60 5.33301 86 16s48.333 26.667 67 48l53 -62c-24 -28 -53.667 -49.333 -89 -64
s-75.333 -22 -120 -22z" />
    <glyph glyph-name="Racute" unicode="&#x154;" horiz-adv-x="727" 
d="M105 0v700h273c61.333 0 113.666 -9.66699 156.999 -29s76.666 -47.333 99.999 -84s35 -80.334 35 -131.001s-11.667 -94.167 -35 -130.5s-56.666 -64.166 -99.999 -83.499s-95.666 -29 -156.999 -29h-218l45 46v-259h-100zM573 0l-178 254h107l180 -254h-109zM205 249
l-45 49h215c64 0 112.5 13.833 145.5 41.5s49.5 66.5 49.5 116.5s-16.5 88.667 -49.5 116s-81.5 41 -145.5 41h-215l45 50v-414zM296 757l136 130h122l-168 -130h-90z" />
    <glyph glyph-name="racute" unicode="&#x155;" horiz-adv-x="410" 
d="M91 0l-0.00195312 530h92v-144l-9 36c14.667 36.667 39.334 64.667 74.001 84s77.334 29 128.001 29v-93c-4 0.666992 -7.83301 1 -11.5 1h-10.5c-51.333 0 -92 -15.333 -122 -46s-45 -75 -45 -133v-264h-96zM158.998 607l136 130h122l-168 -130h-90z" />
    <glyph glyph-name="uni0156" unicode="&#x156;" horiz-adv-x="727" 
d="M105 0v700h273c61.333 0 113.666 -9.66699 156.999 -29s76.666 -47.333 99.999 -84s35 -80.334 35 -131.001s-11.667 -94.167 -35 -130.5s-56.666 -64.166 -99.999 -83.499s-95.666 -29 -156.999 -29h-218l45 46v-259h-100zM573 0l-178 254h107l180 -254h-109zM205 249
l-45 49h215c64 0 112.5 13.833 145.5 41.5s49.5 66.5 49.5 116.5s-16.5 88.667 -49.5 116s-81.5 41 -145.5 41h-215l45 50v-414zM329 -263l33.001 114.002l9 -36c-16 0 -28.5 4.16699 -37.5 12.5s-13.5 19.166 -13.5 32.499s4.66699 24.333 14 33s21.666 13 36.999 13
c16 0 28.5 -4.5 37.5 -13.5s13.5 -19.833 13.5 -32.5c0 -6.66699 -0.833008 -14.334 -2.5 -23.001s-5.16699 -18 -10.5 -28l-30 -72h-50z" />
    <glyph glyph-name="uni0157" unicode="&#x157;" horiz-adv-x="410" 
d="M91 0l-0.00195312 530h92v-144l-9 36c14.667 36.667 39.334 64.667 74.001 84s77.334 29 128.001 29v-93c-4 0.666992 -7.83301 1 -11.5 1h-10.5c-51.333 0 -92 -15.333 -122 -46s-45 -75 -45 -133v-264h-96zM96.998 -263l33.001 114.002l9 -36
c-16 0 -28.5 4.16699 -37.5 12.5s-13.5 19.166 -13.5 32.499s4.66699 24.333 14 33s21.666 13 36.999 13c16 0 28.5 -4.5 37.5 -13.5s13.5 -19.833 13.5 -32.5c0 -6.66699 -0.833008 -14.334 -2.5 -23.001s-5.16699 -18 -10.5 -28l-30 -72h-50z" />
    <glyph glyph-name="Rcaron" unicode="&#x158;" horiz-adv-x="727" 
d="M105 0v700h273c61.333 0 113.666 -9.66699 156.999 -29s76.666 -47.333 99.999 -84s35 -80.334 35 -131.001s-11.667 -94.167 -35 -130.5s-56.666 -64.166 -99.999 -83.499s-95.666 -29 -156.999 -29h-218l45 46v-259h-100zM573 0l-178 254h107l180 -254h-109zM205 249
l-45 49h215c64 0 112.5 13.833 145.5 41.5s49.5 66.5 49.5 116.5s-16.5 88.667 -49.5 116s-81.5 41 -145.5 41h-215l45 50v-414zM325 757l-133 130h87l132 -109h-80l132 109h87l-133 -130h-92z" />
    <glyph glyph-name="rcaron" unicode="&#x159;" horiz-adv-x="410" 
d="M91 0l-0.00195312 530h92v-144l-9 36c14.667 36.667 39.334 64.667 74.001 84s77.334 29 128.001 29v-93c-4 0.666992 -7.83301 1 -11.5 1h-10.5c-51.333 0 -92 -15.333 -122 -46s-45 -75 -45 -133v-264h-96zM187.998 607l-133 130h87l132 -109h-80l132 109h87l-133 -130
h-92z" />
    <glyph glyph-name="Sacute" unicode="&#x15a;" horiz-adv-x="621" 
d="M309 -8c-53.333 0 -104.337 8.16895 -153.004 24.502s-87 37.5 -115 63.5l37 78c26.667 -23.333 60.667 -42.666 102 -57.999s84.333 -23 129 -23c40.667 0 73.667 4.66699 99 14s44 22.166 56 38.499s18 34.833 18 55.5c0 24 -7.83301 43.333 -23.5 58
s-36 26.5 -61 35.5s-52.5 16.833 -82.5 23.5s-60.167 14.5 -90.5 23.5s-58 20.5 -83 34.5s-45.167 32.833 -60.5 56.5s-23 54.167 -23 91.5c0 36 9.5 69.167 28.5 99.5s48.333 54.666 88 72.999s90.167 27.5 151.5 27.5c40.667 0 81 -5.33301 121 -16s74.667 -26 104 -46
l-33 -80c-30 20 -61.667 34.5 -95 43.5s-65.666 13.5 -96.999 13.5c-39.333 0 -71.666 -5 -96.999 -15s-43.833 -23.333 -55.5 -40s-17.5 -35.334 -17.5 -56.001c0 -24.667 7.83301 -44.334 23.5 -59.001s36 -26.334 61 -35.001s52.5 -16.5 82.5 -23.5
s60.167 -14.833 90.5 -23.5s58 -20 83 -34s45.167 -32.667 60.5 -56s23 -53.333 23 -90c0 -35.333 -9.66699 -68.166 -29 -98.499s-49.166 -54.666 -89.499 -72.999s-91.166 -27.5 -152.499 -27.5zM246.996 757.002l136 130h122l-168 -130h-90z" />
    <glyph glyph-name="sacute" unicode="&#x15b;" horiz-adv-x="501" 
d="M243 -6c-44 0 -85.835 5.99805 -125.502 17.998s-70.834 26.667 -93.501 44l40 76c22.667 -15.333 50.667 -28.333 84 -39s67.333 -16 102 -16c44.667 0 76.834 6.33301 96.501 19s29.5 30.334 29.5 53.001c0 16.667 -6 29.667 -18 39s-27.833 16.333 -47.5 21
s-41.5 8.83398 -65.5 12.501s-48 8.33398 -72 14.001s-46 13.667 -66 24s-36 24.666 -48 42.999s-18 42.833 -18 73.5c0 32 9 60 27 84s43.5 42.5 76.5 55.5s72.167 19.5 117.5 19.5c34.667 0 69.834 -4.16699 105.501 -12.5s64.834 -20.166 87.501 -35.499l-41 -76
c-24 16 -49 27 -75 33s-52 9 -78 9c-42 0 -73.333 -6.83301 -94 -20.5s-31 -31.167 -31 -52.5c0 -18 6.16699 -31.833 18.5 -41.5s28.333 -17.167 48 -22.5s41.5 -9.83301 65.5 -13.5s48 -8.33398 72 -14.001s45.833 -13.5 65.5 -23.5s35.667 -24 48 -42s18.5 -42 18.5 -72
c0 -32 -9.33301 -59.667 -28 -83s-45 -41.5 -79 -54.5s-74.667 -19.5 -122 -19.5zM172.998 606.998l136 130h122l-168 -130h-90z" />
    <glyph glyph-name="Scircumflex" unicode="&#x15c;" horiz-adv-x="621" 
d="M309 -8c-53.333 0 -104.337 8.16895 -153.004 24.502s-87 37.5 -115 63.5l37 78c26.667 -23.333 60.667 -42.666 102 -57.999s84.333 -23 129 -23c40.667 0 73.667 4.66699 99 14s44 22.166 56 38.499s18 34.833 18 55.5c0 24 -7.83301 43.333 -23.5 58
s-36 26.5 -61 35.5s-52.5 16.833 -82.5 23.5s-60.167 14.5 -90.5 23.5s-58 20.5 -83 34.5s-45.167 32.833 -60.5 56.5s-23 54.167 -23 91.5c0 36 9.5 69.167 28.5 99.5s48.333 54.666 88 72.999s90.167 27.5 151.5 27.5c40.667 0 81 -5.33301 121 -16s74.667 -26 104 -46
l-33 -80c-30 20 -61.667 34.5 -95 43.5s-65.666 13.5 -96.999 13.5c-39.333 0 -71.666 -5 -96.999 -15s-43.833 -23.333 -55.5 -40s-17.5 -35.334 -17.5 -56.001c0 -24.667 7.83301 -44.334 23.5 -59.001s36 -26.334 61 -35.001s52.5 -16.5 82.5 -23.5
s60.167 -14.833 90.5 -23.5s58 -20 83 -34s45.167 -32.667 60.5 -56s23 -53.333 23 -90c0 -35.333 -9.66699 -68.166 -29 -98.499s-49.166 -54.666 -89.499 -72.999s-91.166 -27.5 -152.499 -27.5zM142.996 757.002l133 130h92l133 -130h-87l-132 110h80l-132 -110h-87z" />
    <glyph glyph-name="scircumflex" unicode="&#x15d;" horiz-adv-x="501" 
d="M243 -6c-44 0 -85.835 5.99805 -125.502 17.998s-70.834 26.667 -93.501 44l40 76c22.667 -15.333 50.667 -28.333 84 -39s67.333 -16 102 -16c44.667 0 76.834 6.33301 96.501 19s29.5 30.334 29.5 53.001c0 16.667 -6 29.667 -18 39s-27.833 16.333 -47.5 21
s-41.5 8.83398 -65.5 12.501s-48 8.33398 -72 14.001s-46 13.667 -66 24s-36 24.666 -48 42.999s-18 42.833 -18 73.5c0 32 9 60 27 84s43.5 42.5 76.5 55.5s72.167 19.5 117.5 19.5c34.667 0 69.834 -4.16699 105.501 -12.5s64.834 -20.166 87.501 -35.499l-41 -76
c-24 16 -49 27 -75 33s-52 9 -78 9c-42 0 -73.333 -6.83301 -94 -20.5s-31 -31.167 -31 -52.5c0 -18 6.16699 -31.833 18.5 -41.5s28.333 -17.167 48 -22.5s41.5 -9.83301 65.5 -13.5s48 -8.33398 72 -14.001s45.833 -13.5 65.5 -23.5s35.667 -24 48 -42s18.5 -42 18.5 -72
c0 -32 -9.33301 -59.667 -28 -83s-45 -41.5 -79 -54.5s-74.667 -19.5 -122 -19.5zM68.998 606.998l133 130h92l133 -130h-87l-132 110h80l-132 -110h-87z" />
    <glyph glyph-name="Scedilla" unicode="&#x15e;" horiz-adv-x="621" 
d="M309 -8c-53.333 0 -104.337 8.16895 -153.004 24.502s-87 37.5 -115 63.5l37 78c26.667 -23.333 60.667 -42.666 102 -57.999s84.333 -23 129 -23c40.667 0 73.667 4.66699 99 14s44 22.166 56 38.499s18 34.833 18 55.5c0 24 -7.83301 43.333 -23.5 58
s-36 26.5 -61 35.5s-52.5 16.833 -82.5 23.5s-60.167 14.5 -90.5 23.5s-58 20.5 -83 34.5s-45.167 32.833 -60.5 56.5s-23 54.167 -23 91.5c0 36 9.5 69.167 28.5 99.5s48.333 54.666 88 72.999s90.167 27.5 151.5 27.5c40.667 0 81 -5.33301 121 -16s74.667 -26 104 -46
l-33 -80c-30 20 -61.667 34.5 -95 43.5s-65.666 13.5 -96.999 13.5c-39.333 0 -71.666 -5 -96.999 -15s-43.833 -23.333 -55.5 -40s-17.5 -35.334 -17.5 -56.001c0 -24.667 7.83301 -44.334 23.5 -59.001s36 -26.334 61 -35.001s52.5 -16.5 82.5 -23.5
s60.167 -14.833 90.5 -23.5s58 -20 83 -34s45.167 -32.667 60.5 -56s23 -53.333 23 -90c0 -35.333 -9.66699 -68.166 -29 -98.499s-49.166 -54.666 -89.499 -72.999s-91.166 -27.5 -152.499 -27.5zM296.996 -223.998c-17.333 0 -33.333 1.83301 -48 5.5
s-28.334 9.16699 -41.001 16.5l21 49c10.667 -6 21.5 -10.333 32.5 -13s22.833 -4 35.5 -4c19.333 0 33.5 3.5 42.5 10.5s13.5 16.833 13.5 29.5c0 12 -4.5 21.5 -13.5 28.5s-23.5 10.5 -43.5 10.5h-27l25 98h55l-15 -57c28.667 -2.66699 50.334 -11.667 65.001 -27
s22 -34 22 -56c0 -28 -11.333 -50.167 -34 -66.5s-52.667 -24.5 -90 -24.5z" />
    <glyph glyph-name="scedilla" unicode="&#x15f;" horiz-adv-x="501" 
d="M243 -6c-44 0 -85.835 5.99805 -125.502 17.998s-70.834 26.667 -93.501 44l40 76c22.667 -15.333 50.667 -28.333 84 -39s67.333 -16 102 -16c44.667 0 76.834 6.33301 96.501 19s29.5 30.334 29.5 53.001c0 16.667 -6 29.667 -18 39s-27.833 16.333 -47.5 21
s-41.5 8.83398 -65.5 12.501s-48 8.33398 -72 14.001s-46 13.667 -66 24s-36 24.666 -48 42.999s-18 42.833 -18 73.5c0 32 9 60 27 84s43.5 42.5 76.5 55.5s72.167 19.5 117.5 19.5c34.667 0 69.834 -4.16699 105.501 -12.5s64.834 -20.166 87.501 -35.499l-41 -76
c-24 16 -49 27 -75 33s-52 9 -78 9c-42 0 -73.333 -6.83301 -94 -20.5s-31 -31.167 -31 -52.5c0 -18 6.16699 -31.833 18.5 -41.5s28.333 -17.167 48 -22.5s41.5 -9.83301 65.5 -13.5s48 -8.33398 72 -14.001s45.833 -13.5 65.5 -23.5s35.667 -24 48 -42s18.5 -42 18.5 -72
c0 -32 -9.33301 -59.667 -28 -83s-45 -41.5 -79 -54.5s-74.667 -19.5 -122 -19.5zM222.998 -224.002c-17.333 0 -33.333 1.83301 -48 5.5s-28.334 9.16699 -41.001 16.5l21 49c10.667 -6 21.5 -10.333 32.5 -13s22.833 -4 35.5 -4c19.333 0 33.5 3.5 42.5 10.5
s13.5 16.833 13.5 29.5c0 12 -4.5 21.5 -13.5 28.5s-23.5 10.5 -43.5 10.5h-27l25 98h55l-15 -57c28.667 -2.66699 50.334 -11.667 65.001 -27s22 -34 22 -56c0 -28 -11.333 -50.167 -34 -66.5s-52.667 -24.5 -90 -24.5z" />
    <glyph glyph-name="Scaron" unicode="&#x160;" horiz-adv-x="621" 
d="M309 -8c-53.333 0 -104.337 8.16895 -153.004 24.502s-87 37.5 -115 63.5l37 78c26.667 -23.333 60.667 -42.666 102 -57.999s84.333 -23 129 -23c40.667 0 73.667 4.66699 99 14s44 22.166 56 38.499s18 34.833 18 55.5c0 24 -7.83301 43.333 -23.5 58
s-36 26.5 -61 35.5s-52.5 16.833 -82.5 23.5s-60.167 14.5 -90.5 23.5s-58 20.5 -83 34.5s-45.167 32.833 -60.5 56.5s-23 54.167 -23 91.5c0 36 9.5 69.167 28.5 99.5s48.333 54.666 88 72.999s90.167 27.5 151.5 27.5c40.667 0 81 -5.33301 121 -16s74.667 -26 104 -46
l-33 -80c-30 20 -61.667 34.5 -95 43.5s-65.666 13.5 -96.999 13.5c-39.333 0 -71.666 -5 -96.999 -15s-43.833 -23.333 -55.5 -40s-17.5 -35.334 -17.5 -56.001c0 -24.667 7.83301 -44.334 23.5 -59.001s36 -26.334 61 -35.001s52.5 -16.5 82.5 -23.5
s60.167 -14.833 90.5 -23.5s58 -20 83 -34s45.167 -32.667 60.5 -56s23 -53.333 23 -90c0 -35.333 -9.66699 -68.166 -29 -98.499s-49.166 -54.666 -89.499 -72.999s-91.166 -27.5 -152.499 -27.5zM275.996 757.002l-133 130h87l132 -109h-80l132 109h87l-133 -130h-92z" />
    <glyph glyph-name="scaron" unicode="&#x161;" horiz-adv-x="501" 
d="M243 -6c-44 0 -85.835 5.99805 -125.502 17.998s-70.834 26.667 -93.501 44l40 76c22.667 -15.333 50.667 -28.333 84 -39s67.333 -16 102 -16c44.667 0 76.834 6.33301 96.501 19s29.5 30.334 29.5 53.001c0 16.667 -6 29.667 -18 39s-27.833 16.333 -47.5 21
s-41.5 8.83398 -65.5 12.501s-48 8.33398 -72 14.001s-46 13.667 -66 24s-36 24.666 -48 42.999s-18 42.833 -18 73.5c0 32 9 60 27 84s43.5 42.5 76.5 55.5s72.167 19.5 117.5 19.5c34.667 0 69.834 -4.16699 105.501 -12.5s64.834 -20.166 87.501 -35.499l-41 -76
c-24 16 -49 27 -75 33s-52 9 -78 9c-42 0 -73.333 -6.83301 -94 -20.5s-31 -31.167 -31 -52.5c0 -18 6.16699 -31.833 18.5 -41.5s28.333 -17.167 48 -22.5s41.5 -9.83301 65.5 -13.5s48 -8.33398 72 -14.001s45.833 -13.5 65.5 -23.5s35.667 -24 48 -42s18.5 -42 18.5 -72
c0 -32 -9.33301 -59.667 -28 -83s-45 -41.5 -79 -54.5s-74.667 -19.5 -122 -19.5zM201.998 606.998l-133 130h87l132 -109h-80l132 109h87l-133 -130h-92z" />
    <glyph glyph-name="uni0162" unicode="&#x162;" horiz-adv-x="587" 
d="M244 0v613h-240v87h579v-87h-240v-613h-99zM268 -224c-17.333 0 -33.333 1.83301 -48 5.5s-28.334 9.16699 -41.001 16.5l21 49c10.667 -6 21.5 -10.333 32.5 -13s22.833 -4 35.5 -4c19.333 0 33.5 3.5 42.5 10.5s13.5 16.833 13.5 29.5c0 12 -4.5 21.5 -13.5 28.5
s-23.5 10.5 -43.5 10.5h-27l25 98h55l-15 -57c28.667 -2.66699 50.334 -11.667 65.001 -27s22 -34 22 -56c0 -28 -11.333 -50.167 -34 -66.5s-52.667 -24.5 -90 -24.5z" />
    <glyph glyph-name="uni0163" unicode="&#x163;" horiz-adv-x="414" 
d="M273 -6c-53.333 0 -94.667 14.333 -124 43s-44 69.667 -44 123v486h96v-482c0 -28.667 7.16699 -50.667 21.5 -66s34.833 -23 61.5 -23c30 0 55 8.33301 75 25l30 -69c-14.667 -12.667 -32.167 -22 -52.5 -28s-41.5 -9 -63.5 -9zM14.999 451v79h338v-79h-338z
M227.999 -224c-17.333 0 -33.333 1.83301 -48 5.5s-28.334 9.16699 -41.001 16.5l21 49c10.667 -6 21.5 -10.333 32.5 -13s22.833 -4 35.5 -4c19.333 0 33.5 3.5 42.5 10.5s13.5 16.833 13.5 29.5c0 12 -4.5 21.5 -13.5 28.5s-23.5 10.5 -43.5 10.5h-27l25 98h55l-15 -57
c28.667 -2.66699 50.334 -11.667 65.001 -27s22 -34 22 -56c0 -28 -11.333 -50.167 -34 -66.5s-52.667 -24.5 -90 -24.5z" />
    <glyph glyph-name="Tcaron" unicode="&#x164;" horiz-adv-x="587" 
d="M244 0v613h-240v87h579v-87h-240v-613h-99zM247 757l-133 130h87l132 -109h-80l132 109h87l-133 -130h-92z" />
    <glyph glyph-name="tcaron" unicode="&#x165;" horiz-adv-x="414" 
d="M273 -6c-53.333 0 -94.667 14.333 -124 43s-44 69.667 -44 123v486h96v-482c0 -28.667 7.16699 -50.667 21.5 -66s34.833 -23 61.5 -23c30 0 55 8.33301 75 25l30 -69c-14.667 -12.667 -32.167 -22 -52.5 -28s-41.5 -9 -63.5 -9zM14.999 451v79h338v-79h-338z
M284.999 596v169h76l-11 -169h-65z" />
    <glyph glyph-name="Tbar" unicode="&#x166;" horiz-adv-x="587" 
d="M244 0v613h-240v87h579v-87h-240v-613h-99zM93 300v79h400v-79h-400z" />
    <glyph glyph-name="tbar" unicode="&#x167;" horiz-adv-x="424" 
d="M278 -6c-53.333 0 -94.667 14.333 -124 43s-44 69.667 -44 123v486h96v-482c0 -28.667 7.16699 -50.667 21.5 -66s34.833 -23 61.5 -23c30 0 55 8.33301 75 25l30 -69c-14.667 -12.667 -32.167 -22 -52.5 -28s-41.5 -9 -63.5 -9zM19.999 451v79h338v-79h-338zM31.999 255
v67h315v-67h-315z" />
    <glyph glyph-name="Utilde" unicode="&#x168;" horiz-adv-x="791" 
d="M395 -8c-92 0 -164.332 26.333 -216.999 79s-79 129.667 -79 231v398h100v-394c0 -78 17.167 -135 51.5 -171s82.833 -54 145.5 -54c63.333 0 112.166 18 146.499 54s51.5 93 51.5 171v394h97v-398c0 -101.333 -26.167 -178.333 -78.5 -231s-124.833 -79 -217.5 -79z
M466.001 760c-16 0 -30.165 3.33203 -42.498 9.99902s-23.5 14.5 -33.5 23.5s-19.667 16.833 -29 23.5s-18.666 10 -27.999 10c-14.667 0 -26.5 -5.5 -35.5 -16.5s-14.167 -26.167 -15.5 -45.5h-54c1.33301 37.333 10.666 67 27.999 89s40.666 33 69.999 33
c16 0 30.333 -3.5 43 -10.5s24 -15 34 -24s19.5 -16.833 28.5 -23.5s18.167 -10 27.5 -10c14.667 0 26.667 5.33301 36 16s14.333 25.334 15 44.001h54c-0.666992 -35.333 -9.83398 -64 -27.501 -86s-41.167 -33 -70.5 -33z" />
    <glyph glyph-name="utilde" unicode="&#x169;" horiz-adv-x="677" 
d="M314 -6c-45.333 0 -85.167 8.33301 -119.5 25s-61 42.167 -80 76.5s-28.5 77.5 -28.5 129.5v305h96v-294c0 -52 12.5 -91 37.5 -117s60.167 -39 105.5 -39c33.333 0 62.333 6.83301 87 20.5s43.667 33.667 57 60s20 58.166 20 95.499v274h96v-530h-91v143l15 -38
c-17.333 -35.333 -43.333 -62.666 -78 -81.999s-73.667 -29 -117 -29zM405.999 610c-16 0 -30.165 3.33203 -42.498 9.99902s-23.5 14.5 -33.5 23.5s-19.667 16.833 -29 23.5s-18.666 10 -27.999 10c-14.667 0 -26.5 -5.5 -35.5 -16.5s-14.167 -26.167 -15.5 -45.5h-54
c1.33301 37.333 10.666 67 27.999 89s40.666 33 69.999 33c16 0 30.333 -3.5 43 -10.5s24 -15 34 -24s19.5 -16.833 28.5 -23.5s18.167 -10 27.5 -10c14.667 0 26.667 5.33301 36 16s14.333 25.334 15 44.001h54c-0.666992 -35.333 -9.83398 -64 -27.501 -86
s-41.167 -33 -70.5 -33z" />
    <glyph glyph-name="Umacron" unicode="&#x16a;" horiz-adv-x="791" 
d="M395 -8c-92 0 -164.332 26.333 -216.999 79s-79 129.667 -79 231v398h100v-394c0 -78 17.167 -135 51.5 -171s82.833 -54 145.5 -54c63.333 0 112.166 18 146.499 54s51.5 93 51.5 171v394h97v-398c0 -101.333 -26.167 -178.333 -78.5 -231s-124.833 -79 -217.5 -79z
M233.001 792v60h326v-60h-326z" />
    <glyph glyph-name="umacron" unicode="&#x16b;" horiz-adv-x="677" 
d="M314 -6c-45.333 0 -85.167 8.33301 -119.5 25s-61 42.167 -80 76.5s-28.5 77.5 -28.5 129.5v305h96v-294c0 -52 12.5 -91 37.5 -117s60.167 -39 105.5 -39c33.333 0 62.333 6.83301 87 20.5s43.667 33.667 57 60s20 58.166 20 95.499v274h96v-530h-91v143l15 -38
c-17.333 -35.333 -43.333 -62.666 -78 -81.999s-73.667 -29 -117 -29zM172.999 642v60h326v-60h-326z" />
    <glyph glyph-name="Ubreve" unicode="&#x16c;" horiz-adv-x="791" 
d="M395 -8c-92 0 -164.332 26.333 -216.999 79s-79 129.667 -79 231v398h100v-394c0 -78 17.167 -135 51.5 -171s82.833 -54 145.5 -54c63.333 0 112.166 18 146.499 54s51.5 93 51.5 171v394h97v-398c0 -101.333 -26.167 -178.333 -78.5 -231s-124.833 -79 -217.5 -79z
M396.001 751c-45.333 0 -83.333 12.167 -114 36.5s-46.667 57.5 -48 99.5h65c1.33301 -24.667 11.333 -44.167 30 -58.5s41 -21.5 67 -21.5s48.5 7.16699 67.5 21.5s28.833 33.833 29.5 58.5h65c-1.33301 -42 -17.333 -75.167 -48 -99.5s-68.667 -36.5 -114 -36.5z" />
    <glyph glyph-name="ubreve" unicode="&#x16d;" horiz-adv-x="677" 
d="M314 -6c-45.333 0 -85.167 8.33301 -119.5 25s-61 42.167 -80 76.5s-28.5 77.5 -28.5 129.5v305h96v-294c0 -52 12.5 -91 37.5 -117s60.167 -39 105.5 -39c33.333 0 62.333 6.83301 87 20.5s43.667 33.667 57 60s20 58.166 20 95.499v274h96v-530h-91v143l15 -38
c-17.333 -35.333 -43.333 -62.666 -78 -81.999s-73.667 -29 -117 -29zM335.999 601c-45.333 0 -83.333 12.167 -114 36.5s-46.667 57.5 -48 99.5h65c1.33301 -24.667 11.333 -44.167 30 -58.5s41 -21.5 67 -21.5s48.5 7.16699 67.5 21.5s28.833 33.833 29.5 58.5h65
c-1.33301 -42 -17.333 -75.167 -48 -99.5s-68.667 -36.5 -114 -36.5z" />
    <glyph glyph-name="Uring" unicode="&#x16e;" horiz-adv-x="791" 
d="M395 -8c-92 0 -164.332 26.333 -216.999 79s-79 129.667 -79 231v398h100v-394c0 -78 17.167 -135 51.5 -171s82.833 -54 145.5 -54c63.333 0 112.166 18 146.499 54s51.5 93 51.5 171v394h97v-398c0 -101.333 -26.167 -178.333 -78.5 -231s-124.833 -79 -217.5 -79z
M395.001 764c-20.667 0 -39.334 5 -56.001 15s-29.834 23 -39.501 39s-14.5 34 -14.5 54s4.83301 38.333 14.5 55s22.834 30 39.501 40s35.334 15 56.001 15c21.333 0 40.333 -5 57 -15s29.834 -23.333 39.501 -40s14.5 -35 14.5 -55s-4.83301 -38 -14.5 -54
s-22.834 -29 -39.501 -39s-35.667 -15 -57 -15zM395.001 806c19.333 0 35.166 6.33301 47.499 19s18.5 28.334 18.5 47.001c0 19.333 -6.16699 35.333 -18.5 48s-28.166 19 -47.499 19c-18.667 0 -34.167 -6.16699 -46.5 -18.5s-18.5 -28.5 -18.5 -48.5
c0 -18.667 6 -34.334 18 -47.001s27.667 -19 47 -19z" />
    <glyph glyph-name="uring" unicode="&#x16f;" horiz-adv-x="677" 
d="M314 -6c-45.333 0 -85.167 8.33301 -119.5 25s-61 42.167 -80 76.5s-28.5 77.5 -28.5 129.5v305h96v-294c0 -52 12.5 -91 37.5 -117s60.167 -39 105.5 -39c33.333 0 62.333 6.83301 87 20.5s43.667 33.667 57 60s20 58.166 20 95.499v274h96v-530h-91v143l15 -38
c-17.333 -35.333 -43.333 -62.666 -78 -81.999s-73.667 -29 -117 -29zM334.999 594c-20.667 0 -39.334 5 -56.001 15s-29.834 23 -39.501 39s-14.5 34 -14.5 54s4.83301 38.333 14.5 55s22.834 30 39.501 40s35.334 15 56.001 15c21.333 0 40.333 -5 57 -15
s29.834 -23.333 39.501 -40s14.5 -35 14.5 -55s-4.83301 -38 -14.5 -54s-22.834 -29 -39.501 -39s-35.667 -15 -57 -15zM334.999 636c19.333 0 35.166 6.33301 47.499 19s18.5 28.334 18.5 47.001c0 19.333 -6.16699 35.333 -18.5 48s-28.166 19 -47.499 19
c-18.667 0 -34.167 -6.16699 -46.5 -18.5s-18.5 -28.5 -18.5 -48.5c0 -18.667 6 -34.334 18 -47.001s27.667 -19 47 -19z" />
    <glyph glyph-name="Uhungarumlaut" unicode="&#x170;" horiz-adv-x="791" 
d="M395 -8c-92 0 -164.332 26.333 -216.999 79s-79 129.667 -79 231v398h100v-394c0 -78 17.167 -135 51.5 -171s82.833 -54 145.5 -54c63.333 0 112.166 18 146.499 54s51.5 93 51.5 171v394h97v-398c0 -101.333 -26.167 -178.333 -78.5 -231s-124.833 -79 -217.5 -79z
M443.001 757l89 130h101l-109 -130h-81zM268.001 757l90 130h102l-111 -130h-81z" />
    <glyph glyph-name="uhungarumlaut" unicode="&#x171;" horiz-adv-x="677" 
d="M314 -6c-45.333 0 -85.167 8.33301 -119.5 25s-61 42.167 -80 76.5s-28.5 77.5 -28.5 129.5v305h96v-294c0 -52 12.5 -91 37.5 -117s60.167 -39 105.5 -39c33.333 0 62.333 6.83301 87 20.5s43.667 33.667 57 60s20 58.166 20 95.499v274h96v-530h-91v143l15 -38
c-17.333 -35.333 -43.333 -62.666 -78 -81.999s-73.667 -29 -117 -29zM382.999 607l89 130h101l-109 -130h-81zM207.999 607l90 130h102l-111 -130h-81z" />
    <glyph glyph-name="Uogonek" unicode="&#x172;" horiz-adv-x="791" 
d="M594 700h97v-398c0 -81.333 -16.333 -145.666 -49 -192.999s-76.667 -81 -132 -101c-39.333 -14 -69.333 -28.167 -90 -42.5s-34.834 -28.333 -42.501 -42s-11.5 -26.834 -11.5 -39.501c0 -16.667 5.83301 -29.5 17.5 -38.5s26.5 -13.5 44.5 -13.5
c10.667 0 21.5 1.66699 32.5 5s20.5 7.33301 28.5 12l19 -49c-12.667 -7.33301 -26.667 -13.166 -42 -17.499s-31.333 -6.5 -48 -6.5c-37.333 0 -66.666 9.33301 -87.999 28s-32 43 -32 73c0 18 4.5 36.167 13.5 54.5s23.833 36.166 44.5 53.499s49 33 85 47l-3 -38
c-6.66699 -0.666992 -13.667 -1.16699 -21 -1.5s-14.666 -0.5 -21.999 -0.5c-92 0 -164.333 26.333 -217 79s-79 129.667 -79 231v398h100v-394c0 -78 17.167 -135 51.5 -171s82.833 -54 145.5 -54c63.333 0 112.166 18 146.499 54s51.5 93 51.5 171v394z" />
    <glyph glyph-name="uogonek" unicode="&#x173;" horiz-adv-x="677" 
d="M314 -6c-45.333 0 -85.167 8.33301 -119.5 25s-61 42.167 -80 76.5s-28.5 77.5 -28.5 129.5v305h96v-294c0 -52 12.5 -91 37.5 -117s60.167 -39 105.5 -39c33.333 0 62.333 6.83301 87 20.5s43.667 33.667 57 60s20 58.166 20 95.499v274h96v-530h-91v143l15 -38
c-17.333 -35.333 -43.333 -62.666 -78 -81.999s-73.667 -29 -117 -29zM516.999 -224c-37.333 0 -66.667 9.33301 -88 28s-32 43 -32 73c0 18 4.5 36 13.5 54s24.167 35.667 45.5 53s49.333 33.333 84 48l45 -32c-29.333 -13.333 -52.666 -26.333 -69.999 -39
s-29.833 -25.334 -37.5 -38.001s-11.5 -25.667 -11.5 -39c0 -16.667 5.83301 -29.5 17.5 -38.5s26.167 -13.5 43.5 -13.5c11.333 0 22.5 1.66699 33.5 5s20.5 7.33301 28.5 12l18 -49c-12 -7.33301 -25.833 -13.166 -41.5 -17.499s-31.834 -6.5 -48.501 -6.5z" />
    <glyph glyph-name="Wcircumflex" unicode="&#x174;" horiz-adv-x="1126" 
d="M266 0l-234 700h103l215 -646h-52l223 646h92l218 -646h-50l218 646h95l-234 -700h-105l-204 599h27l-205 -599h-107zM385 757l133 130h92l133 -130h-87l-132 110h80l-132 -110h-87z" />
    <glyph glyph-name="wcircumflex" unicode="&#x175;" horiz-adv-x="899" 
d="M203 0l-197 530h91l175 -480h-43l182 480h81l178 -480h-42l179 480h86l-198 -530h-92l-167 438h28l-169 -438h-92zM268 605l133 130h92l133 -130h-87l-132 110h80l-132 -110h-87z" />
    <glyph glyph-name="Ycircumflex" unicode="&#x176;" horiz-adv-x="647" 
d="M274 0v268l23 -62l-301 494h107l253 -417h-58l254 417h99l-300 -494l22 62v-268h-99zM145 757l133 130h92l133 -130h-87l-132 110h80l-132 -110h-87z" />
    <glyph glyph-name="ycircumflex" unicode="&#x177;" horiz-adv-x="559" 
d="M114 -200c-25.333 0 -49.998 4.16699 -73.998 12.5s-44.667 20.5 -62 36.5l41 72c13.333 -12.667 28 -22.334 44 -29.001s33 -10 51 -10c23.333 0 42.666 6 57.999 18s29.666 33.333 42.999 64l33 73l10 12l208 481h94l-257 -583
c-15.333 -37.333 -32.5 -66.666 -51.5 -87.999s-39.833 -36.5 -62.5 -45.5s-47.667 -13.5 -75 -13.5zM240.002 -17l-242 547h100l206 -472zM87.002 607l133 130h92l133 -130h-87l-132 110h80l-132 -110h-87z" />
    <glyph glyph-name="Ydieresis" unicode="&#x178;" horiz-adv-x="647" 
d="M274 0v268l23 -62l-301 494h107l253 -417h-58l254 417h99l-300 -494l22 62v-268h-99zM417 774c-14 0 -26 4.83301 -36 14.5s-15 21.834 -15 36.501c0 15.333 5 27.833 15 37.5s22 14.5 36 14.5s26 -4.83301 36 -14.5s15 -22.167 15 -37.5
c0 -14.667 -5 -26.834 -15 -36.501s-22 -14.5 -36 -14.5zM231 774c-14 0 -26 4.83301 -36 14.5s-15 21.834 -15 36.501c0 15.333 5 27.833 15 37.5s22 14.5 36 14.5s26 -4.83301 36 -14.5s15 -22.167 15 -37.5c0 -14.667 -5 -26.834 -15 -36.501s-22 -14.5 -36 -14.5z" />
    <glyph glyph-name="Zacute" unicode="&#x179;" horiz-adv-x="657" 
d="M43 0v68l471 584l11 -39h-475v87h565v-68l-469 -584l-12 39h494v-87h-585zM261 757l136 130h122l-168 -130h-90z" />
    <glyph glyph-name="zacute" unicode="&#x17a;" horiz-adv-x="521" 
d="M40 0v62l340 422l19 -33h-353v79h430v-63l-340 -421l-22 33h370v-79h-444zM187 607l136 130h122l-168 -130h-90z" />
    <glyph glyph-name="Zdotaccent" unicode="&#x17b;" horiz-adv-x="657" 
d="M43 0v68l471 584l11 -39h-475v87h565v-68l-469 -584l-12 39h494v-87h-585zM336 775c-16.667 0 -30.667 5.66699 -42 17s-17 25.333 -17 42s5.66699 30.667 17 42s25.333 17 42 17s30.667 -5.66699 42 -17s17 -25.333 17 -42s-5.66699 -30.667 -17 -42
s-25.333 -17 -42 -17z" />
    <glyph glyph-name="zdotaccent" unicode="&#x17c;" horiz-adv-x="521" 
d="M40 0v62l340 422l19 -33h-353v79h430v-63l-340 -421l-22 33h370v-79h-444zM262 625c-16.667 0 -30.667 5.66699 -42 17s-17 25.333 -17 42s5.66699 30.667 17 42s25.333 17 42 17s30.667 -5.66699 42 -17s17 -25.333 17 -42s-5.66699 -30.667 -17 -42
s-25.333 -17 -42 -17z" />
    <glyph glyph-name="Zcaron" unicode="&#x17d;" horiz-adv-x="657" 
d="M43 0v68l471 584l11 -39h-475v87h565v-68l-469 -584l-12 39h494v-87h-585zM290 757l-133 130h87l132 -109h-80l132 109h87l-133 -130h-92z" />
    <glyph glyph-name="zcaron" unicode="&#x17e;" horiz-adv-x="521" 
d="M40 0v62l340 422l19 -33h-353v79h430v-63l-340 -421l-22 33h370v-79h-444zM216 607l-133 130h87l132 -109h-80l132 109h87l-133 -130h-92z" />
    <glyph glyph-name="longs" unicode="&#x17f;" horiz-adv-x="306" 
d="M115 0l-0.000976562 577.001c0 52 15.167 93.5 45.5 124.5s73.5 46.5 129.5 46.5c21.333 0 41.333 -2.5 60 -7.5s34.667 -12.833 48 -23.5l-29 -73c-10 8 -21.333 14.167 -34 18.5s-26 6.5 -40 6.5c-27.333 0 -48.166 -7.83301 -62.499 -23.5
s-21.5 -38.834 -21.5 -69.501v-576h-96zM24.999 451.001v79h139v-79h-139z" />
    <glyph glyph-name="uni018F" unicode="&#x18f;" horiz-adv-x="817" 
d="M409 -8c-52 0 -100.002 8.99805 -144.002 26.998s-82.167 43.167 -114.5 75.5s-57.5 70.666 -75.5 114.999s-27 92.5 -27 144.5v28h632v-85h-565l32 53c0 -40.667 6.33301 -77.667 19 -111s30.667 -61.833 54 -85.5s51 -42.167 83 -55.5s67.333 -20 106 -20
s73.834 6.5 105.501 19.5s59 31.333 82 55s40.833 51.834 53.5 84.501s19 68.667 19 108v9c0 38 -6.83301 73.167 -20.5 105.5s-32.667 60.333 -57 84s-52.666 42.167 -84.999 55.5s-67.166 20 -104.499 20c-27.333 0 -54.166 -3 -80.499 -9s-51.333 -15 -75 -27
s-45.167 -27.333 -64.5 -46l-60 69c22 22 47.5 40.5 76.5 55.5s60.833 26.5 95.5 34.5s71 12 109 12c53.333 0 102.166 -8.83301 146.499 -26.5s83 -42.667 116 -75s58.5 -70.166 76.5 -113.499s27 -90.666 27 -141.999s-9 -98.833 -27 -142.5s-43.333 -81.667 -76 -114
s-70.834 -57.5 -114.501 -75.5s-91.167 -27 -142.5 -27z" />
    <glyph glyph-name="florin" unicode="&#x192;" horiz-adv-x="449" 
d="M21 -200c-22.667 0 -43.998 2.83105 -63.998 8.49805s-36.333 13.834 -49 24.501l36 73c19.333 -16.667 43.666 -25 72.999 -25c26 0 47.167 7.83301 63.5 23.5s26.166 38.834 29.499 69.501l75 603c6 52 25.5 93.5 58.5 124.5s76.833 46.5 131.5 46.5
c20.667 0 41 -2.66699 61 -8s36 -13.666 48 -24.999l-37 -73c-8.66699 8 -19 14.167 -31 18.5s-25 6.5 -39 6.5c-28 0 -50.5 -7.83301 -67.5 -23.5s-27.5 -38.834 -31.5 -69.501l-9 -69l-2 -44l-61 -490c-6.66699 -52 -26 -93.5 -58 -124.5s-74.333 -46.5 -127 -46.5z
M77.002 437.998l10 79h338l-9 -79h-339z" />
    <glyph glyph-name="Ohorn" unicode="&#x1a0;" horiz-adv-x="840" 
d="M421 -8c-53.333 0 -102.834 9.00293 -148.501 27.0029s-85.167 43.167 -118.5 75.5s-59.333 70.166 -78 113.499s-28 90.666 -28 141.999c0 52 9.33301 99.667 28 143s44.834 81.166 78.501 113.499s73.5 57.333 119.5 75s96 26.5 150 26.5c40 0 75 -2.33301 105 -7
s59 -7 87 -7c30.667 0 54.167 6 70.5 18s24.5 30.333 24.5 55c0 12 -2 23.167 -6 33.5s-8.66699 19.833 -14 28.5l60 24c8.66699 -12.667 15.5 -26.667 20.5 -42s7.5 -31 7.5 -47c0 -42 -14.5 -74.667 -43.5 -98s-70.167 -35 -123.5 -35
c-19.333 0 -39.833 1.16699 -61.5 3.5s-42.167 4.83301 -61.5 7.5l125 15c35.333 -18 66.333 -42.333 93 -73s47.5 -65.834 62.5 -105.501s22.5 -82.5 22.5 -128.5c0 -52 -9.16699 -99.667 -27.5 -143s-44.333 -81.166 -78 -113.499s-73 -57.333 -118 -75
s-94.167 -26.5 -147.5 -26.5zM420.999 81.0029c38.667 0 74.5 6.83301 107.5 20.5s61.667 32.5 86 56.5s43.333 52.333 57 85s20.5 68.334 20.5 107.001c0 38 -6.83301 73.5 -20.5 106.5s-32.667 61.5 -57 85.5s-53 42.833 -86 56.5s-68.833 20.5 -107.5 20.5
c-39.333 0 -75.5 -6.66699 -108.5 -20s-61.833 -32.166 -86.5 -56.499s-43.834 -52.833 -57.501 -85.5s-20.5 -68.334 -20.5 -107.001c0 -38 6.83301 -73.333 20.5 -106s32.834 -61.334 57.501 -86.001s53.5 -43.667 86.5 -57s69.167 -20 108.5 -20z" />
    <glyph glyph-name="ohorn" unicode="&#x1a1;" horiz-adv-x="635" 
d="M318 -6c-53.333 0 -100.664 11.665 -141.997 34.998s-74 55.333 -98 96s-36 87.334 -36 140.001s12 99.334 36 140.001s56.833 72.5 98.5 95.5s89.167 34.5 142.5 34.5c18 0 33.167 -0.5 45.5 -1.5l36 -3c11.667 -1 24.834 -1.5 39.501 -1.5c26 0 45.167 6.5 57.5 19.5
s18.5 28.833 18.5 47.5c0 12.667 -2 24.167 -6 34.5s-9 19.833 -15 28.5l60 23c8.66699 -12 15.667 -25.667 21 -41s8 -31.333 8 -48c0 -25.333 -6 -47.666 -18 -66.999s-29.167 -34.333 -51.5 -45s-49.5 -16 -81.5 -16c-10.667 0 -21.334 0.5 -32.001 1.5s-22 2.5 -34 4.5
l55 45c51.333 -18.667 92.666 -50.167 123.999 -94.5s47 -96.5 47 -156.5c0 -52.667 -11.833 -99.334 -35.5 -140.001s-56.334 -72.667 -98.001 -96s-88.834 -35 -141.501 -35zM318.002 77.998c33.333 0 63.5 7.66699 90.5 23s48.333 37.166 64 65.499
s23.5 61.166 23.5 98.499c0 38 -7.66699 70.833 -23 98.5s-36.5 49.167 -63.5 64.5s-57.5 23 -91.5 23s-64.333 -7.66699 -91 -23s-48 -36.833 -64 -64.5s-24 -60.5 -24 -98.5c0 -37.333 8 -70.166 24 -98.499s37.333 -50.166 64 -65.499s57 -23 91 -23z" />
    <glyph glyph-name="Uhorn" unicode="&#x1af;" horiz-adv-x="798" 
d="M395 -8c-92 0 -164.332 26.333 -216.999 79s-79 129.667 -79 231v398h100v-394c0 -78 17.167 -135 51.5 -171s82.833 -54 145.5 -54c63.333 0 112.166 18 146.499 54s51.5 93 51.5 171v394h97v-398c0 -101.333 -26.167 -178.333 -78.5 -231s-124.833 -79 -217.5 -79z
M642.001 627v72.9971h18c22 0 38.167 6.16699 48.5 18.5s15.5 27.833 15.5 46.5c0 12.667 -1.83301 24.334 -5.5 35.001s-8.5 20 -14.5 28l61 23c9.33301 -11.333 16.333 -24.666 21 -39.999s7 -31.666 7 -48.999c0 -40 -11.667 -72.5 -35 -97.5s-56 -37.5 -98 -37.5h-18z
" />
    <glyph glyph-name="uhorn" unicode="&#x1b0;" horiz-adv-x="685" 
d="M314 -6c-45.333 0 -85.167 8.33301 -119.5 25s-61 42.167 -80 76.5s-28.5 77.5 -28.5 129.5v305h96v-294c0 -52 12.5 -91 37.5 -117s60.167 -39 105.5 -39c33.333 0 62.333 6.83301 87 20.5s43.667 33.667 57 60s20 58.166 20 95.499v274h96v-530h-91v143l15 -38
c-17.333 -35.333 -43.333 -62.666 -78 -81.999s-73.667 -29 -117 -29zM519.999 457v72.9971h18c22 0 38.167 6.16699 48.5 18.5s15.5 27.833 15.5 46.5c0 12.667 -1.83301 24.334 -5.5 35.001s-8.5 20 -14.5 28l61 23c9.33301 -11.333 16.333 -24.666 21 -39.999
s7 -31.666 7 -48.999c0 -40 -11.667 -72.5 -35 -97.5s-56 -37.5 -98 -37.5h-18z" />
    <glyph glyph-name="uni01B7" unicode="&#x1b7;" horiz-adv-x="623" 
d="M297 -8c-53.333 0 -103.831 7.66699 -151.498 23s-85.834 35.666 -114.501 60.999l37 79c24.667 -22 57 -40.167 97 -54.5s83.333 -21.5 130 -21.5c56.667 0 100.5 11.333 131.5 34s46.5 53.667 46.5 93c0 37.333 -15 67 -45 89s-76.667 33 -140 33h-58v69l226 256l9 -38
h-407v85h483v-68l-225 -255l-43 29h33c60 0 109.667 -8.33301 149 -25s69 -40.167 89 -70.5s30 -65.166 30 -104.499s-10.167 -75.333 -30.5 -108s-50.833 -58.5 -91.5 -77.5s-92.334 -28.5 -155.001 -28.5z" />
    <glyph glyph-name="uni01C4" unicode="&#x1c4;" horiz-adv-x="1454" 
d="M105 0v700h295c74.667 0 140.5 -14.667 197.5 -44s101.333 -70.333 133 -123s47.5 -113.667 47.5 -183s-15.833 -130.333 -47.5 -183s-76 -93.667 -133 -123s-122.833 -44 -197.5 -44h-295zM205 87h189c58 0 108.167 11 150.5 33s75.166 52.833 98.499 92.5
s35 85.5 35 137.5c0 52.667 -11.667 98.667 -35 138s-56.166 70 -98.499 92s-92.5 33 -150.5 33h-189v-526zM835 0v68l471 584l11 -39h-475v87h565v-68l-469 -584l-12 39h494v-87h-585zM1082 757l-133 130h87l132 -109h-80l132 109h87l-133 -130h-92z" />
    <glyph glyph-name="uni01C5" unicode="&#x1c5;" horiz-adv-x="1347" 
d="M105 0v700h295c74.667 0 140.5 -14.667 197.5 -44s101.333 -70.333 133 -123s47.5 -113.667 47.5 -183s-15.833 -130.333 -47.5 -183s-76 -93.667 -133 -123s-122.833 -44 -197.5 -44h-295zM205 87h189c58 0 108.167 11 150.5 33s75.166 52.833 98.499 92.5
s35 85.5 35 137.5c0 52.667 -11.667 98.667 -35 138s-56.166 70 -98.499 92s-92.5 33 -150.5 33h-189v-526zM866 0v62l340 422l19 -33h-353v79h430v-63l-340 -421l-22 33h370v-79h-444zM1042 607l-133 130h87l132 -109h-80l132 109h87l-133 -130h-92z" />
    <glyph glyph-name="uni01C6" unicode="&#x1c6;" horiz-adv-x="1211" 
d="M310 -6c-51.333 0 -97.166 11.332 -137.499 33.999s-72.166 54.334 -95.499 95.001s-35 88 -35 142s11.667 101.167 35 141.5s55.166 71.833 95.499 94.5s86.166 34 137.499 34c44.667 0 85 -10 121 -30s64.833 -50 86.5 -90s32.5 -90 32.5 -150s-10.5 -110 -31.5 -150
s-49.5 -70.167 -85.5 -90.5s-77 -30.5 -123 -30.5zM318 77.999c33.333 0 63.5 7.66699 90.5 23s48.333 37.166 64 65.499s23.5 61.166 23.5 98.499c0 38 -7.83301 70.833 -23.5 98.5s-37 49.167 -64 64.5s-57.167 23 -90.5 23c-34 0 -64.333 -7.66699 -91 -23
s-48 -36.833 -64 -64.5s-24 -60.5 -24 -98.5c0 -37.333 8 -70.166 24 -98.499s37.333 -50.166 64 -65.499s57 -23 91 -23zM499 -0.000976562v143l6 123l-10 123v353h96v-742h-92zM719 -0.000976562v62l340 422l19 -33h-353v79h430v-63l-340 -421l-22 33h370v-79h-444z
M895 606.999l-133 130h87l132 -109h-80l132 109h87l-133 -130h-92z" />
    <glyph glyph-name="uni01C7" unicode="&#x1c7;" horiz-adv-x="1107" 
d="M105 0v700h100v-613h379v-87h-479zM789 -8c-41.333 0 -79.998 8.66699 -115.998 26s-65.333 42.333 -88 75l58 68c19.333 -26.667 41.166 -47.167 65.499 -61.5s51.166 -21.5 80.499 -21.5c80 0 120 47.333 120 142v393h-253v87h352v-475
c0 -78 -18.5 -136.333 -55.5 -175s-91.5 -58 -163.5 -58z" />
    <glyph glyph-name="uni01C8" unicode="&#x1c8;" horiz-adv-x="877" 
d="M105 0v700h100v-613h379v-87h-479zM617 -200c-22 0 -43.167 2.66602 -63.5 7.99902s-37.5 13.333 -51.5 24l31 74c20 -16.667 46 -25 78 -25c25.333 0 44.833 7.83301 58.5 23.5s20.5 38.834 20.5 69.501v556h96v-554c0 -54 -14.5 -96.833 -43.5 -128.5
s-70.833 -47.5 -125.5 -47.5zM738 631.999c-18.667 0 -34.167 6 -46.5 18s-18.5 26.667 -18.5 44c0 18 6.16699 33 18.5 45s27.833 18 46.5 18s34.167 -5.83301 46.5 -17.5s18.5 -26.167 18.5 -43.5c0 -18 -6 -33.167 -18 -45.5s-27.667 -18.5 -47 -18.5z" />
    <glyph glyph-name="uni01C9" unicode="&#x1c9;" horiz-adv-x="562" 
d="M91 0v742h96v-742h-96zM302 -200c-22 0 -43.167 2.66602 -63.5 7.99902s-37.5 13.333 -51.5 24l31 74c20 -16.667 46 -25 78 -25c25.333 0 44.833 7.83301 58.5 23.5s20.5 38.834 20.5 69.501v556h96v-554c0 -54 -14.5 -96.833 -43.5 -128.5s-70.833 -47.5 -125.5 -47.5z
M423 631.999c-18.667 0 -34.167 6 -46.5 18s-18.5 26.667 -18.5 44c0 18 6.16699 33 18.5 45s27.833 18 46.5 18s34.167 -5.83301 46.5 -17.5s18.5 -26.167 18.5 -43.5c0 -18 -6 -33.167 -18 -45.5s-27.667 -18.5 -47 -18.5z" />
    <glyph glyph-name="uni01CA" unicode="&#x1ca;" horiz-adv-x="1325" 
d="M105 0v700h82l463 -575h-43v575h100v-700h-82l-463 575h43v-575h-100zM1007 -8c-41.333 0 -79.998 8.66699 -115.998 26s-65.333 42.333 -88 75l58 68c19.333 -26.667 41.166 -47.167 65.499 -61.5s51.166 -21.5 80.499 -21.5c80 0 120 47.333 120 142v393h-253v87h352
v-475c0 -78 -18.5 -136.333 -55.5 -175s-91.5 -58 -163.5 -58z" />
    <glyph glyph-name="uni01CB" unicode="&#x1cb;" horiz-adv-x="1095" 
d="M105 0v700h82l463 -575h-43v575h100v-700h-82l-463 575h43v-575h-100zM835 -200c-22 0 -43.167 2.66602 -63.5 7.99902s-37.5 13.333 -51.5 24l31 74c20 -16.667 46 -25 78 -25c25.333 0 44.833 7.83301 58.5 23.5s20.5 38.834 20.5 69.501v556h96v-554
c0 -54 -14.5 -96.833 -43.5 -128.5s-70.833 -47.5 -125.5 -47.5zM956 631.999c-18.667 0 -34.167 6 -46.5 18s-18.5 26.667 -18.5 44c0 18 6.16699 33 18.5 45s27.833 18 46.5 18s34.167 -5.83301 46.5 -17.5s18.5 -26.167 18.5 -43.5c0 -18 -6 -33.167 -18 -45.5
s-27.667 -18.5 -47 -18.5z" />
    <glyph glyph-name="uni01CC" unicode="&#x1cc;" horiz-adv-x="964" 
d="M374 535c43.333 0 81.5 -8.33301 114.5 -25s58.833 -42 77.5 -76s28 -77 28 -129v-305h-96v294c0 51.333 -12.5 90 -37.5 116s-60.167 39 -105.5 39c-34 0 -63.667 -6.66699 -89 -20s-44.833 -33 -58.5 -59s-20.5 -58.333 -20.5 -97v-273h-96v530h92v-143l-15 38
c17.333 34.667 44 61.667 80 81s78 29 126 29zM704 -200c-22 0 -43.167 2.66602 -63.5 7.99902s-37.5 13.333 -51.5 24l31 74c20 -16.667 46 -25 78 -25c25.333 0 44.833 7.83301 58.5 23.5s20.5 38.834 20.5 69.501v556h96v-554c0 -54 -14.5 -96.833 -43.5 -128.5
s-70.833 -47.5 -125.5 -47.5zM825 631.999c-18.667 0 -34.167 6 -46.5 18s-18.5 26.667 -18.5 44c0 18 6.16699 33 18.5 45s27.833 18 46.5 18s34.167 -5.83301 46.5 -17.5s18.5 -26.167 18.5 -43.5c0 -18 -6 -33.167 -18 -45.5s-27.667 -18.5 -47 -18.5z" />
    <glyph glyph-name="uni01CD" unicode="&#x1cd;" horiz-adv-x="732" 
d="M-1 0l317 700h99l318 -700h-105l-283 644h40l-283 -644h-103zM134 175l27 80h394l29 -80h-450zM320 757l-133 130h87l132 -109h-80l132 109h87l-133 -130h-92z" />
    <glyph glyph-name="uni01CE" unicode="&#x1ce;" horiz-adv-x="598" 
d="M420 0l0.000976562 111.999l-5 21v191c0 40.667 -11.833 72.167 -35.5 94.5s-59.167 33.5 -106.5 33.5c-31.333 0 -62 -5.16699 -92 -15.5s-55.333 -24.166 -76 -41.499l-40 72c27.333 22 60.166 38.833 98.499 50.5s78.5 17.5 120.5 17.5
c72.667 0 128.667 -17.667 168 -53s59 -89.333 59 -162v-320h-91zM246.001 -6.00098c-39.333 0 -73.834 6.66602 -103.501 19.999s-52.5 31.833 -68.5 55.5s-24 50.5 -24 80.5c0 28.667 6.83301 54.667 20.5 78s36 42 67 56s72.833 21 125.5 21h168v-69h-164
c-48 0 -80.333 -8 -97 -24s-25 -35.333 -25 -58c0 -26 10.333 -46.833 31 -62.5s49.334 -23.5 86.001 -23.5c36 0 67.5 8 94.5 24s46.5 39.333 58.5 70l19 -66c-12.667 -31.333 -35 -56.166 -67 -74.499s-72.333 -27.5 -121 -27.5zM245 606.998l-133 130h87l132 -109h-80
l132 109h87l-133 -130h-92z" />
    <glyph glyph-name="uni01D3" unicode="&#x1d3;" horiz-adv-x="791" 
d="M395 -8c-92 0 -164.332 26.333 -216.999 79s-79 129.667 -79 231v398h100v-394c0 -78 17.167 -135 51.5 -171s82.833 -54 145.5 -54c63.333 0 112.166 18 146.499 54s51.5 93 51.5 171v394h97v-398c0 -101.333 -26.167 -178.333 -78.5 -231s-124.833 -79 -217.5 -79z
M350.001 757l-133 130h87l132 -109h-80l132 109h87l-133 -130h-92z" />
    <glyph glyph-name="uni01D4" unicode="&#x1d4;" horiz-adv-x="677" 
d="M314 -6c-45.333 0 -85.167 8.33301 -119.5 25s-61 42.167 -80 76.5s-28.5 77.5 -28.5 129.5v305h96v-294c0 -52 12.5 -91 37.5 -117s60.167 -39 105.5 -39c33.333 0 62.333 6.83301 87 20.5s43.667 33.667 57 60s20 58.166 20 95.499v274h96v-530h-91v143l15 -38
c-17.333 -35.333 -43.333 -62.666 -78 -81.999s-73.667 -29 -117 -29zM289.999 607l-133 130h87l132 -109h-80l132 109h87l-133 -130h-92z" />
    <glyph glyph-name="uni01E4" unicode="&#x1e4;" horiz-adv-x="807" 
d="M401 198v79h383v-79h-383zM421 -8c-54 0 -103.667 8.83398 -149 26.501s-84.666 42.667 -117.999 75s-59.333 70.166 -78 113.499s-28 91 -28 143s9.33301 99.667 28 143s44.834 81.166 78.501 113.499s73.167 57.333 118.5 75s95.333 26.5 150 26.5
c55.333 0 106 -9 152 -27s85 -45 117 -81l-62 -62c-28.667 28 -59.834 48.5 -93.501 61.5s-70.167 19.5 -109.5 19.5c-40 0 -77.167 -6.66699 -111.5 -20s-64 -32 -89 -56s-44.333 -52.5 -58 -85.5s-20.5 -68.833 -20.5 -107.5c0 -38 6.83301 -73.5 20.5 -106.5
s33 -61.667 58 -86s54.5 -43.166 88.5 -56.499s71 -20 111 -20c37.333 0 73.166 5.83301 107.499 17.5s66.166 31.167 95.499 58.5l57 -76c-34.667 -29.333 -75.167 -51.5 -121.5 -66.5s-94.166 -22.5 -143.499 -22.5zM590 94.001v260h96v-273z" />
    <glyph glyph-name="uni01E5" unicode="&#x1e5;" horiz-adv-x="698" 
d="M323 -200c-48.667 0 -95.832 6.83203 -141.499 20.499s-82.834 33.167 -111.501 58.5l46 74c24.667 -21.333 55 -38.166 91 -50.499s73.667 -18.5 113 -18.5c62.667 0 108.667 14.667 138 44s44 74 44 134v112l10 105l-5 106v145h91v-458
c0 -93.333 -23.333 -162 -70 -206s-115 -66 -205 -66zM284.002 -58.001v65l378 1v-66h-378zM311.002 42.999c-51.333 0 -97.166 10.5 -137.499 31.5s-72.333 50 -96 87s-35.5 79.833 -35.5 128.5s11.833 91.5 35.5 128.5s55.667 65.667 96 86s86.166 30.5 137.499 30.5
c45.333 0 86.666 -9 123.999 -27s67.166 -45 89.499 -81s33.5 -81.667 33.5 -137s-11.167 -101.333 -33.5 -138s-52.166 -64 -89.499 -82s-78.666 -27 -123.999 -27zM322.002 123.999c35.333 0 66.666 7 93.999 21s48.833 33.5 64.5 58.5s23.5 53.833 23.5 86.5
c0 33.333 -7.83301 62.166 -23.5 86.499s-37.167 43.5 -64.5 57.5s-58.666 21 -93.999 21s-66.833 -7 -94.5 -21s-49.334 -33.167 -65.001 -57.5s-23.5 -53.166 -23.5 -86.499c0 -32.667 7.83301 -61.5 23.5 -86.5s37.334 -44.5 65.001 -58.5s59.167 -21 94.5 -21z" />
    <glyph glyph-name="Gcaron" unicode="&#x1e6;" horiz-adv-x="772" 
d="M421 -8c-54 0 -103.667 8.83398 -149 26.501s-84.666 42.667 -117.999 75s-59.333 70.166 -78 113.499s-28 91 -28 143s9.33301 99.667 28 143s44.834 81.166 78.501 113.499s73.167 57.333 118.5 75s95.333 26.5 150 26.5c55.333 0 106 -9 152 -27s85 -45 117 -81
l-62 -62c-28.667 28 -59.834 48.5 -93.501 61.5s-70.167 19.5 -109.5 19.5c-40 0 -77.167 -6.66699 -111.5 -20s-64 -32 -89 -56s-44.333 -52.5 -58 -85.5s-20.5 -68.833 -20.5 -107.5c0 -38 6.83301 -73.5 20.5 -106.5s33 -61.667 58 -86s54.5 -43.166 88.5 -56.499
s71 -20 111 -20c37.333 0 73.166 5.83301 107.499 17.5s66.166 31.167 95.499 58.5l57 -76c-34.667 -29.333 -75.167 -51.5 -121.5 -66.5s-94.166 -22.5 -143.499 -22.5zM590 94.001v260h96v-273zM364 757.001l-133 130h87l132 -109h-80l132 109h87l-133 -130h-92z" />
    <glyph glyph-name="gcaron" unicode="&#x1e7;" horiz-adv-x="690" 
d="M323 -200c-48.667 0 -95.832 6.83203 -141.499 20.499s-82.834 33.167 -111.501 58.5l46 74c24.667 -21.333 55 -38.166 91 -50.499s73.667 -18.5 113 -18.5c62.667 0 108.667 14.667 138 44s44 74 44 134v112l10 105l-5 106v145h91v-458
c0 -93.333 -23.333 -162 -70 -206s-115 -66 -205 -66zM311.002 21.999c-51.333 0 -97.166 10.833 -137.499 32.5s-72.333 51.834 -96 90.501s-35.5 83.334 -35.5 134.001c0 51.333 11.833 96.166 35.5 134.499s55.667 68.166 96 89.499s86.166 32 137.499 32
c45.333 0 86.666 -9.16699 123.999 -27.5s67.166 -46.5 89.499 -84.5s33.5 -86 33.5 -144c0 -57.333 -11.167 -105 -33.5 -143s-52.166 -66.5 -89.499 -85.5s-78.666 -28.5 -123.999 -28.5zM322.002 105.999c35.333 0 66.666 7.33301 93.999 22s48.833 35 64.5 61
s23.5 56 23.5 90s-7.83301 64 -23.5 90s-37.167 46.167 -64.5 60.5s-58.666 21.5 -93.999 21.5s-66.833 -7.16699 -94.5 -21.5s-49.334 -34.5 -65.001 -60.5s-23.5 -56 -23.5 -90s7.83301 -64 23.5 -90s37.334 -46.333 65.001 -61s59.167 -22 94.5 -22zM283.002 606.999
l-133 130h87l132 -109h-80l132 109h87l-133 -130h-92z" />
    <glyph glyph-name="uni01E8" unicode="&#x1e8;" horiz-adv-x="719" 
d="M193 169l-5 122l397 409h114l-307 -324l-56 -62zM105 0v700h100v-700h-100zM601 0l-287 334l67 74l337 -408h-117zM329 757l-133 130h87l132 -109h-80l132 109h87l-133 -130h-92z" />
    <glyph glyph-name="uni01E9" unicode="&#x1e9;" horiz-adv-x="616" 
d="M169 128l2 123l305 279h116l-234 -230l-52 -44zM91 0v742h96v-742h-96zM496 0l-208 258l62 77l264 -335h-118zM93 819l-133 130h87l132 -109h-80l132 109h87l-133 -130h-92z" />
    <glyph glyph-name="uni01EA" unicode="&#x1ea;" horiz-adv-x="840" 
d="M429 -224c-37.333 0 -66.6641 9.33203 -87.9971 27.999s-32 43 -32 73c0 18 4.5 36.167 13.5 54.5s24 36.166 45 53.499s49.167 33 84.5 47l3 -38c-6.66699 -0.666992 -12.834 -1.16699 -18.501 -1.5s-10.834 -0.5 -15.501 -0.5c-54 0 -103.5 8.83301 -148.5 26.5
s-84.333 42.667 -118 75s-59.834 70.166 -78.501 113.499s-28 91 -28 143s9.33301 99.667 28 143s44.834 81.166 78.501 113.499s73 57.333 118 75s94.5 26.5 148.5 26.5c53.333 0 102.5 -8.83301 147.5 -26.5s84.333 -42.667 118 -75s59.667 -70.166 78 -113.499
s27.5 -91 27.5 -143c0 -59.333 -12 -112.666 -36 -159.999s-56.167 -86.666 -96.5 -117.999s-85.5 -53.333 -135.5 -66c-30 -7.33301 -56 -17.333 -78 -30s-39 -26.667 -51 -42s-18 -32 -18 -50c0 -16.667 6 -29.5 18 -38.5s26.667 -13.5 44 -13.5
c10.667 0 21.5 1.66699 32.5 5s20.5 7.33301 28.5 12l19 -49c-12 -7.33301 -25.833 -13.166 -41.5 -17.499s-31.834 -6.5 -48.501 -6.5zM421.002 80.999c38.667 0 74.5 6.66699 107.5 20s61.667 32.166 86 56.499s43.333 52.833 57 85.5s20.5 68.334 20.5 107.001
s-6.83301 74.334 -20.5 107.001s-32.667 61.167 -57 85.5s-53 43.166 -86 56.499s-68.833 20 -107.5 20c-39.333 0 -75.5 -6.66699 -108.5 -20s-61.833 -32.166 -86.5 -56.499s-43.834 -52.833 -57.501 -85.5s-20.5 -68.334 -20.5 -107.001s6.83301 -74.334 20.5 -107.001
s32.834 -61.167 57.501 -85.5s53.5 -43.166 86.5 -56.499s69.167 -20 108.5 -20z" />
    <glyph glyph-name="uni01EB" unicode="&#x1eb;" horiz-adv-x="635" 
d="M347 -224c-37.333 0 -66.6689 9.32812 -88.002 27.9951s-32 42.334 -32 71.001c0 18.667 4.33301 37.334 13 56.001s23.167 36.667 43.5 54s47.833 33 82.5 47l5 -33c-10.667 -2 -20.167 -3.33301 -28.5 -4s-16.5 -1 -24.5 -1c-53.333 0 -100.666 11.667 -141.999 35
s-74 55.333 -98 96s-36 87.334 -36 140.001s12 99.334 36 140.001s56.667 72.5 98 95.5s88.666 34.5 141.999 34.5c52.667 0 99.834 -11.5 141.501 -34.5s74.334 -54.833 98.001 -95.5s35.5 -87.334 35.5 -140.001c0 -58 -14.5 -108.667 -43.5 -152
s-68.167 -75.666 -117.5 -96.999c-37.333 -16.667 -65.833 -32.5 -85.5 -47.5s-33.167 -29.5 -40.5 -43.5s-11 -27.333 -11 -40c0 -17.333 5.83301 -30.5 17.5 -39.5s26.5 -13.5 44.5 -13.5c10.667 0 21.5 1.66699 32.5 5s20.5 7.33301 28.5 12l19 -49
c-12.667 -7.33301 -26.667 -13.166 -42 -17.499s-31.333 -6.5 -48 -6.5zM317.997 77.9951c34 0 64.5 7.66699 91.5 23s48.167 37.166 63.5 65.499s23 61.166 23 98.499c0 38 -7.66699 70.833 -23 98.5s-36.5 49.167 -63.5 64.5s-57.5 23 -91.5 23s-64.333 -7.66699 -91 -23
s-48 -36.833 -64 -64.5s-24 -60.5 -24 -98.5c0 -37.333 8 -70.166 24 -98.499s37.333 -50.166 64 -65.499s57 -23 91 -23z" />
    <glyph glyph-name="uni01EE" unicode="&#x1ee;" horiz-adv-x="623" 
d="M297 -8c-53.333 0 -103.831 7.66699 -151.498 23s-85.834 35.666 -114.501 60.999l37 79c24.667 -22 57 -40.167 97 -54.5s83.333 -21.5 130 -21.5c56.667 0 100.5 11.333 131.5 34s46.5 53.667 46.5 93c0 37.333 -15 67 -45 89s-76.667 33 -140 33h-58v69l226 256l9 -38
h-407v85h483v-68l-225 -255l-43 29h33c60 0 109.667 -8.33301 149 -25s69 -40.167 89 -70.5s30 -65.166 30 -104.499s-10.167 -75.333 -30.5 -108s-50.833 -58.5 -91.5 -77.5s-92.334 -28.5 -155.001 -28.5zM256.002 757l-133 130h87l132 -109h-80l132 109h87l-133 -130h-92
z" />
    <glyph glyph-name="uni01EF" unicode="&#x1ef;" horiz-adv-x="527" 
d="M232 -201c-51.333 0 -99.502 8 -144.502 24s-80.833 37.333 -107.5 64l37 80c22.667 -23.333 52.834 -42.333 90.501 -57s77.834 -22 120.501 -22c54.667 0 96.167 11.667 124.5 35s42.5 55.333 42.5 96c0 39.333 -13.667 70.666 -41 93.999s-70.666 35 -129.999 35h-57
v68l211 265l9 -36h-382v85h459v-69l-212 -266l-43 31h32c84.667 0 148 -19.167 190 -57.5s63 -88.166 63 -149.499c0 -40.667 -9.66699 -77.5 -29 -110.5s-48.333 -59.5 -87 -79.5s-87.334 -30 -146.001 -30zM179.998 607l-133 130h87l132 -109h-80l132 109h87l-133 -130
h-92z" />
    <glyph glyph-name="Aringacute" unicode="&#x1fa;" horiz-adv-x="732" 
d="M-1 0l317 700h99l318 -700h-105l-283 644h40l-283 -644h-103zM134 175l27 80h394l29 -80h-450zM365 764c-20.667 0 -39.334 5 -56.001 15s-29.834 23 -39.501 39s-14.5 34 -14.5 54s4.83301 38.333 14.5 55s22.834 30 39.501 40s35.334 15 56.001 15
c21.333 0 40.333 -5 57 -15s29.834 -23.333 39.501 -40s14.5 -35 14.5 -55s-4.83301 -38 -14.5 -54s-22.834 -29 -39.501 -39s-35.667 -15 -57 -15zM365 806c19.333 0 35.166 6.33301 47.499 19s18.5 28.334 18.5 47.001c0 19.333 -6.16699 35.333 -18.5 48
s-28.166 19 -47.499 19c-18.667 0 -34.167 -6.16699 -46.5 -18.5s-18.5 -28.5 -18.5 -48.5c0 -18.667 6 -34.334 18 -47.001s27.667 -19 47 -19zM447 927l-51 18l107 108l50 -41z" />
    <glyph glyph-name="aringacute" unicode="&#x1fb;" horiz-adv-x="598" 
d="M420 0l0.000976562 111.999l-5 21v191c0 40.667 -11.833 72.167 -35.5 94.5s-59.167 33.5 -106.5 33.5c-31.333 0 -62 -5.16699 -92 -15.5s-55.333 -24.166 -76 -41.499l-40 72c27.333 22 60.166 38.833 98.499 50.5s78.5 17.5 120.5 17.5
c72.667 0 128.667 -17.667 168 -53s59 -89.333 59 -162v-320h-91zM246.001 -6.00098c-39.333 0 -73.834 6.66602 -103.501 19.999s-52.5 31.833 -68.5 55.5s-24 50.5 -24 80.5c0 28.667 6.83301 54.667 20.5 78s36 42 67 56s72.833 21 125.5 21h168v-69h-164
c-48 0 -80.333 -8 -97 -24s-25 -35.333 -25 -58c0 -26 10.333 -46.833 31 -62.5s49.334 -23.5 86.001 -23.5c36 0 67.5 8 94.5 24s46.5 39.333 58.5 70l19 -66c-12.667 -31.333 -35 -56.166 -67 -74.499s-72.333 -27.5 -121 -27.5zM290 593.998
c-20.667 0 -39.334 5 -56.001 15s-29.834 23 -39.501 39s-14.5 34 -14.5 54s4.83301 38.333 14.5 55s22.834 30 39.501 40s35.334 15 56.001 15c21.333 0 40.333 -5 57 -15s29.834 -23.333 39.501 -40s14.5 -35 14.5 -55s-4.83301 -38 -14.5 -54s-22.834 -29 -39.501 -39
s-35.667 -15 -57 -15zM290 635.998c19.333 0 35.166 6.33301 47.499 19s18.5 28.334 18.5 47.001c0 19.333 -6.16699 35.333 -18.5 48s-28.166 19 -47.499 19c-18.667 0 -34.167 -6.16699 -46.5 -18.5s-18.5 -28.5 -18.5 -48.5c0 -18.667 6 -34.334 18 -47.001
s27.667 -19 47 -19zM372 756.998l-51 18l107 108l50 -41z" />
    <glyph glyph-name="AEacute" unicode="&#x1fc;" horiz-adv-x="1047" 
d="M-1 0l417 700h100v-87h-88l61 44l-387 -657h-103zM177 175l6 80h333v-80h-339zM574 398h359v-85h-360zM582 87h409v-87h-508v700h494v-87h-395v-526zM457 757l136 130h122l-168 -130h-90z" />
    <glyph glyph-name="aeacute" unicode="&#x1fd;" horiz-adv-x="989" 
d="M256 -6c-64.667 0 -115.163 14.8291 -151.496 44.4961s-54.5 68.167 -54.5 115.5c0 26.667 6.83301 51.334 20.5 74.001s36 41 67 55s72.833 21 125.5 21h167v-69h-163c-47.333 0 -79.5 -7.83301 -96.5 -23.5s-25.5 -34.167 -25.5 -55.5
c0 -27.333 10.5 -48.833 31.5 -64.5s50.167 -23.5 87.5 -23.5c47.333 0 84.333 12.167 111 36.5s40 56.5 40 96.5v123c0 40.667 -11.833 72.167 -35.5 94.5s-58.834 33.5 -105.501 33.5c-32 0 -63 -5.16699 -93 -15.5s-55.333 -24.166 -76 -41.499l-40 72
c27.333 22 60.166 38.833 98.499 50.5s78.166 17.5 119.499 17.5c61.333 0 110 -12.167 146 -36.5s59 -60.166 69 -107.499l-46 6c20.667 42.667 51.167 76.334 91.5 101.001s86.833 37 139.5 37c38 0 73.167 -6.5 105.5 -19.5s60.333 -31.5 84 -55.5s42 -52.333 55 -85
s19.5 -68.334 19.5 -107.001c0 -6.66699 -0.166992 -12.667 -0.5 -18s-1.16602 -10.333 -2.49902 -15h-452v69h402l-40 -26c0 38 -8 70 -24 96s-37.167 45.833 -63.5 59.5s-54.5 20.5 -84.5 20.5c-28.667 0 -56.167 -6.83301 -82.5 -20.5s-47.666 -33.667 -63.999 -60
s-24.5 -58.833 -24.5 -97.5v-16c0 -35.333 8 -66.833 24 -94.5s38.5 -49.167 67.5 -64.5s62.833 -23 101.5 -23c31.333 0 59.666 5.33301 84.999 16s48 26.667 68 48l54 -62c-24.667 -28.667 -54.834 -50.167 -90.501 -64.5s-75.5 -21.5 -119.5 -21.5
c-40.667 0 -79 6.33301 -115 19s-67.333 32.334 -94 59.001s-47.334 61 -62.001 103l62 -2c-8 -44.667 -24.167 -80.167 -48.5 -106.5s-53 -45 -86 -56s-66.833 -16.5 -101.5 -16.5zM388.004 606.996l136 130h122l-168 -130h-90z" />
    <glyph glyph-name="Oslashacute" unicode="&#x1fe;" horiz-adv-x="840" 
d="M421 -8c-53.333 0 -102.832 9.00195 -148.499 27.002s-85.167 43.167 -118.5 75.5s-59.333 70.166 -78 113.499s-28 90.666 -28 141.999s9.33301 98.666 28 141.999s44.667 81.166 78 113.499s72.666 57.5 117.999 75.5s95 27 149 27
c53.333 0 102.5 -8.83301 147.5 -26.5s84.333 -42.667 118 -75s59.667 -70.166 78 -113.499s27.5 -91 27.5 -143s-9.16699 -99.667 -27.5 -143s-44.333 -81.166 -78 -113.499s-73 -57.333 -118 -75s-94.167 -26.5 -147.5 -26.5zM421.001 81.002
c38.667 0 74.5 6.66699 107.5 20s61.667 32.166 86 56.499s43.333 52.833 57 85.5s20.5 68.334 20.5 107.001s-6.83301 74.334 -20.5 107.001s-32.667 61.167 -57 85.5s-53 43.166 -86 56.499s-68.833 20 -107.5 20c-39.333 0 -75.5 -6.66699 -108.5 -20
s-61.833 -32.166 -86.5 -56.499s-43.834 -52.833 -57.501 -85.5s-20.5 -68.334 -20.5 -107.001s6.83301 -74.334 20.5 -107.001s32.834 -61.167 57.501 -85.5s53.5 -43.166 86.5 -56.499s69.167 -20 108.5 -20zM81.001 -69.998l602 840h78l-602 -840h-78zM346.001 757.002
l136 130h122l-168 -130h-90z" />
    <glyph glyph-name="oslashacute" unicode="&#x1ff;" horiz-adv-x="635" 
d="M318 -6c-53.333 0 -100.666 11.666 -141.999 34.999s-74 55.5 -98 96.5s-36 87.5 -36 139.5c0 52.667 12 99.334 36 140.001s56.667 72.5 98 95.5s88.666 34.5 141.999 34.5c52.667 0 99.834 -11.5 141.501 -34.5s74.334 -54.667 98.001 -95s35.5 -87.166 35.5 -140.499
c0 -52.667 -11.833 -99.334 -35.5 -140.001s-56.334 -72.667 -98.001 -96s-88.834 -35 -141.501 -35zM318 77.999c34 0 64.5 7.66699 91.5 23s48.167 37.166 63.5 65.499s23 61.166 23 98.499c0 38 -7.66699 70.833 -23 98.5s-36.5 49.167 -63.5 64.5s-57.5 23 -91.5 23
s-64.333 -7.66699 -91 -23s-48 -36.833 -64 -64.5s-24 -60.5 -24 -98.5c0 -37.333 8 -70.166 24 -98.499s37.333 -50.166 64 -65.499s57 -23 91 -23zM66 -71.001l441 669h59l-440 -669h-60zM240 606.999l136 130h122l-168 -130h-90z" />
    <glyph glyph-name="uni0200" unicode="&#x200;" horiz-adv-x="732" 
d="M-1 0l317 700h99l318 -700h-105l-283 644h40l-283 -644h-103zM134 175l27 80h394l29 -80h-450zM413 757l-111 130h102l90 -130h-81zM238 757l-109 130h101l89 -130h-81z" />
    <glyph glyph-name="uni0201" unicode="&#x201;" horiz-adv-x="598" 
d="M420 0l0.000976562 111.999l-5 21v191c0 40.667 -11.833 72.167 -35.5 94.5s-59.167 33.5 -106.5 33.5c-31.333 0 -62 -5.16699 -92 -15.5s-55.333 -24.166 -76 -41.499l-40 72c27.333 22 60.166 38.833 98.499 50.5s78.5 17.5 120.5 17.5
c72.667 0 128.667 -17.667 168 -53s59 -89.333 59 -162v-320h-91zM246.001 -6.00098c-39.333 0 -73.834 6.66602 -103.501 19.999s-52.5 31.833 -68.5 55.5s-24 50.5 -24 80.5c0 28.667 6.83301 54.667 20.5 78s36 42 67 56s72.833 21 125.5 21h168v-69h-164
c-48 0 -80.333 -8 -97 -24s-25 -35.333 -25 -58c0 -26 10.333 -46.833 31 -62.5s49.334 -23.5 86.001 -23.5c36 0 67.5 8 94.5 24s46.5 39.333 58.5 70l19 -66c-12.667 -31.333 -35 -56.166 -67 -74.499s-72.333 -27.5 -121 -27.5zM338 606.998l-111 130h102l90 -130h-81z
M163 606.998l-109 130h101l89 -130h-81z" />
    <glyph glyph-name="uni0202" unicode="&#x202;" horiz-adv-x="732" 
d="M-1 0l317 700h99l318 -700h-105l-283 644h40l-283 -644h-103zM134 175l27 80h394l29 -80h-450zM204 757c1.33301 42 17.333 75.167 48 99.5s68.667 36.5 114 36.5s83.333 -12.167 114 -36.5s46.667 -57.5 48 -99.5h-65c-0.666992 24.667 -10.5 44.167 -29.5 58.5
s-41.5 21.5 -67.5 21.5s-48.333 -7.16699 -67 -21.5s-28.667 -33.833 -30 -58.5h-65z" />
    </font>
</defs>
</svg>
